;           Gerber:: Drill Report             
;           =====================             
;    Unit                   : inch
;    Format                 : 6.6, Leading Zeros Suppressed
;    Co-ordinate data Mode  : Absolute Data mode
;+----------------------------------------+
;|  D R I L L   T O O L S   T A B L E     |
;+----------------------------------------+
;|    Drill    |    Tool    |    Drill    |
;|    Tool     |    Size    |    Count    |
;+----------------------------------------+
;|          T01|    0.007874|          512|
;|          T02|    0.011811|          256|
;+----------------------------------------+

M48
INCH,LZ,000000.000000
T01C0.007874
T02C0.011811
%
M72
G90
T01
X-000000004921Y-000000009055
X-000000024606
X-000000004921Y000000502756
X-000000024606
X-000000004921Y000001014567
X-000000024606
X-000000004921Y000001526378
X-000000024606
X-000000004921Y000003573622
X-000000024606
X000008636811Y000003061811
X-000000024606
X-000000004921
X-000000024606Y00000255
X-000000004921
Y000002038189
X-000000024606
X-000000004921Y000005620866
X-000000024606
Y000005109055
X-000000004921
X-000000024606Y000004597244
X-000000004921
Y000004085433
X-000000024606
X000011018701Y000003573622
Y000004085433
X000002357283Y000002038189
X000006274606Y-000000009055
X000005487205Y000001014567
Y00000255
X000007062008Y000001526378
X000011018701Y000002038189
X000007849409Y000003573622
X000004719488Y000000502756
X000011018701Y000001526378
X000003932087Y000005109055
X000001569882Y000001014567
X000001550197Y00000255
X000001569882
X000011018701Y000007156299
X000003912402
X000007869094Y000001526378
X000007849409Y000001014567
X000007062008Y000005109055
X000007869094Y000001014567
X000009424213Y000007156299
X000010211614Y00000255
Y00000766811
X000007869094
X000010211614Y000007156299
X000008656496Y00000255
Y000007156299
X000000762795
X000007081693Y000001526378
X000010231299Y000006644488
X000010999016Y000006132677
X000006294291Y000004597244
X000007869094Y-000000009055
X000007849409Y000000502756
X000010231299Y000001526378
X000001550197Y000002038189
X000004719488Y000003573622
Y000006644488
X000010211614Y000001014567
X000001550197
X000003912402Y000004085433
X000002337598Y000005620866
X000009424213Y000003061811
X000008656496Y000001014567
X000006274606Y00000255
X000006294291Y000000502756
X000011018701Y000004597244
X00000078248Y000006644488
X000010211614Y000002038189
X00000550689Y000001014567
X000004719488Y000001526378
X000002337598
X000002357283Y-000000009055
X000008636811Y000005109055
X000008656496Y000004597244
X000001569882Y000001526378
X000004699803Y000005620866
X000007062008Y000004085433
X000002357283Y000005620866
X000007869094Y000003573622
X000006294291Y00000255
Y000003573622
X000004719488Y000005620866
X000009443898Y000004085433
X000010211614Y000003573622
X000010999016Y000007156299
X000000762795Y000006644488
X000010999016Y00000255
X000005487205Y000005109055
X000008636811Y000001014567
X000007081693Y000004597244
X000002357283Y000001526378
X000009424213Y000000502756
X000002337598Y000001014567
X000008656496Y000001526378
X000002337598Y000006132677
X000009443898Y000001014567
X000003932087Y000005620866
X000000762795Y000003573622
X000003912402Y000005620866
X000007081693Y000004085433
X000010231299Y000007156299
X000002357283Y000004085433
X000007869094Y000004597244
X000010211614Y000004085433
X000002337598Y000006644488
X000006274606Y000001526378
X000010231299Y000003573622
X000010999016Y000002038189
X000007849409Y000005109055
X000001550197Y000006644488
X000002337598Y00000766811
X000002357283Y000001014567
X000007081693Y000000502756
X000010231299Y00000255
X000009424213Y000001526378
X00000550689Y000005620866
X000001569882Y000006644488
X000008656496Y000005109055
X000005487205Y000004085433
X00000550689Y00000255
X000008656496Y-000000009055
X000011018701Y000001014567
X000001569882Y000006132677
X000002357283Y000003061811
X000007062008Y000005620866
X000009424213Y-000000009055
X000007849409Y00000766811
X000007062008Y00000255
X000004719488Y000002038189
X000003932087Y000006132677
X000009443898Y000005620866
X000010231299Y000000502756
X000007062008Y000006132677
X000004699803Y000004597244
X000009424213Y000005620866
X00000550689Y000002038189
X000002337598Y000007156299
X000010999016Y000004597244
X000003912402Y-000000009055
X000004699803Y00000766811
X00000078248
X000009424213Y000003573622
X000010999016Y000000502756
X000009443898
X00000550689Y000006132677
X000009424213Y00000255
X000002357283Y00000766811
X000002337598Y-000000009055
X000007081693Y000005620866
X000011018701Y000003061811
X000002337598Y000000502756
X000001569882Y-000000009055
X000000762795Y000006132677
X000004719488Y000003061811
X000004699803
X000007081693Y000001014567
X000003932087Y000001526378
X000000762795Y000005620866
X000007081693Y00000255
X000004719488
X000010231299Y000002038189
X00000550689Y00000766811
X000006294291Y000001014567
X000005487205Y00000766811
X000004719488Y000001014567
X000007062008Y000002038189
X000007081693Y000006132677
X00000078248Y000005620866
X000011018701Y000000502756
X000010211614Y000001526378
X000009424213Y000004597244
X000001550197Y-000000009055
X000010211614Y000005109055
X000007081693Y000002038189
X000004699803Y000000502756
X000010231299Y000001014567
X000003932087Y000006644488
X000002337598Y000004085433
X000006294291Y000001526378
X000004719488Y000004597244
X00000550689Y000006644488
X000010999016Y-000000009055
X000006294291Y000005109055
X000008656496Y000003573622
X000003932087Y000000502756
X00000078248Y000003573622
X000008636811Y000004597244
X000002357283Y000000502756
X000000762795Y000002038189
X000001569882Y000000502756
Y000003573622
X000001550197Y000000502756
X000011018701Y00000766811
X000008656496Y000005620866
X000004699803Y000007156299
X000004719488
X000009443898Y000003061811
X000002337598Y000005109055
X000002357283
X000003144685Y000005620866
X000006294291Y-000000009055
X000005487205Y000001526378
X00000078248Y000002038189
X000010211614Y-000000009055
X000003932087Y000004597244
X000001550197Y00000766811
X000010231299
X000007869094Y000006132677
X000001569882Y000002038189
X000007062008Y000007156299
Y-000000009055
X000010211614Y000005620866
X000009443898Y000006132677
Y000003573622
X00000550689Y000005109055
X000005487205Y000006132677
X000003912402Y000006644488
X000009424213Y000004085433
X000009443898Y-000000009055
X000002357283Y000003573622
X000008656496Y000002038189
X000001569882Y000007156299
X000001550197Y000006132677
Y000001526378
X000006294291Y000006644488
X000009443898
X000006274606Y000005620866
X000005487205Y000003573622
X000009424213Y000002038189
X000006274606Y000006644488
X000002337598Y00000255
Y000003061811
X000005487205Y000006644488
X00000078248Y000000502756
X000007849409Y000002038189
X000006274606Y000001014567
X000007849409Y000001526378
Y000004597244
X000005487205Y000005620866
X000008636811Y000004085433
X00000550689Y000000502756
X000006294291Y00000766811
X000007062008Y000001014567
X000005487205Y000002038189
X000003125Y00000766811
X000007869094Y000000502756
X000010231299Y000003061811
X000002337598Y000003573622
X000009424213Y000001014567
X000001550197Y000005620866
X000007062008Y000003573622
X000009443898Y000007156299
X00000550689Y000004085433
X000007849409Y000006132677
X000001569882Y000005620866
X000003144685Y000004085433
X000003125Y00000255
X000002357283Y000006644488
X000010999016Y000005620866
X000007062008Y000003061811
X000005487205Y000007156299
X000001550197
X000003125Y000002038189
X000007081693Y000006644488
X000001550197Y000003573622
X000003932087
X000002337598Y000002038189
X000008636811Y-000000009055
X000010231299Y000005109055
X000004719488Y00000766811
X000007081693Y000003061811
X000010231299Y000004597244
X000001569882Y00000766811
X000010211614Y000004597244
X00000550689Y000007156299
X000011018701Y000006644488
X000001569882Y000005109055
X000003144685Y000004597244
X000010231299Y-000000009055
X000007062008Y000004597244
X000002357283
X000006294291Y000006132677
X000003125Y000001526378
X000001550197Y000005109055
X000007081693Y-000000009055
X000003912402Y00000766811
X000002357283Y00000255
X000009443898Y000004597244
X000001550197Y000004085433
X000001569882
X000002357283Y000006132677
X000001550197Y000004597244
X000003125Y000000502756
X000008636811Y00000255
X000006274606Y000003061811
Y00000766811
X000010999016Y000005109055
X000008656496Y000000502756
X000010999016Y00000766811
X00000550689Y000003061811
X000010231299Y000005620866
X000001569882Y000004597244
X000007062008Y000006644488
X000003125Y000005109055
X000011018701Y-000000009055
X000007081693Y000003573622
X000001569882Y000003061811
X000006294291Y000007156299
X000001550197Y000003061811
X000002357283Y000007156299
X000010999016Y000001526378
X000003144685Y-000000009055
X000007849409Y000005620866
X000010211614Y000006132677
X-000000024606
X000007869094Y000005620866
X00000078248Y000006132677
X000003912402Y000002038189
Y000006132677
X000003125Y-000000009055
X000006274606Y000004085433
X000004719488
X000008636811Y000005620866
X000010211614Y000003061811
Y000000502756
X000006274606Y000003573622
X000003932087Y-000000009055
X000003125Y000004597244
X000004719488Y-000000009055
X00000078248Y000001014567
X000003125Y000004085433
X000010231299
X000009443898Y00000766811
X000003125Y000007156299
X000005487205Y000000502756
X000008636811Y000006644488
X000007062008Y00000766811
X000000762795Y-000000009055
X000003125Y000003573622
X000003144685Y000007156299
X000003912402Y000005109055
X000003125Y000005620866
X000007062008Y000000502756
X000008656496Y00000766811
X000004699803Y-000000009055
X000008636811Y000003573622
X000003144685Y000006132677
Y000001526378
X000006274606Y000006132677
X000003144685Y000000502756
X000008636811Y000002038189
X000006274606
X000007849409Y000007156299
X000003932087Y000002038189
X000007869094Y000006644488
X000004699803Y000006132677
X000000762795Y000001014567
X-000000024606Y000007156299
X00000550689Y000004597244
X000007849409Y00000255
X000003932087Y000004085433
X000010999016Y000003573622
X000003144685Y000002038189
X000000762795Y000000502756
X000006274606Y000005109055
X000003932087Y00000766811
X000004699803Y000003573622
X000009424213Y000005109055
X000008636811Y000006132677
X000011018701Y000005109055
X000003912402Y000004597244
X-000000004921Y000007156299
Y000006132677
X000010211614Y000006644488
X-000000004921
X-000000024606
X000007869094Y000007156299
X000007849409Y000006644488
X000010999016Y000004085433
X000007869094Y000005109055
X-000000024606Y00000766811
X-000000004921
X000007869094Y000003061811
X000007849409Y000004085433
X000006294291
X000007869094Y00000255
Y000002038189
X000007849409Y000003061811
X000003912402Y000000502756
X000008636811Y000007156299
X000009443898Y000001526378
Y000005109055
X000000762795Y000004085433
X000009424213Y000006132677
Y000006644488
X000008636811Y000001526378
Y00000766811
X000004699803Y000001014567
X000006294291Y000002038189
Y000005620866
Y000003061811
X00000550689Y000001526378
X000006274606Y000004597244
Y000007156299
X000008656496Y000006132677
X000011018701
X000005487205Y000003061811
X00000550689Y000003573622
X000003144685Y00000255
X000007081693Y00000766811
X000010999016Y000001014567
X00000550689Y-000000009055
X000003144685Y000001014567
X000007869094Y000004085433
X000010999016Y000006644488
X000003932087Y000003061811
X000003144685
X000004719488Y000006132677
X000004699803Y000006644488
Y000001526378
X000005487205Y000004597244
X000008656496Y000006644488
X000004719488Y000005109055
X000004699803
Y000002038189
X000011018701Y00000255
X000003125Y000003061811
X000007081693Y000007156299
X000008636811Y000000502756
X000010999016Y000003061811
X000007081693Y000005109055
X000003932087Y00000255
X000003912402
X000003932087Y000001014567
X000003912402Y000003061811
Y000003573622
Y000001014567
X000010231299Y000006132677
X000004699803Y000004085433
X000003125Y000006644488
X000003912402Y000001526378
X000003144685Y000006644488
X000003125Y000006132677
X000003144685Y00000766811
X000004699803Y00000255
X000003144685Y000005109055
X000003125Y000001014567
X000003144685Y000003573622
X000003932087Y000007156299
X000006274606Y000000502756
X00000078248Y000004085433
X000009443898Y00000255
X000007849409Y-000000009055
X000005487205
X000002337598Y000004597244
X000009424213Y00000766811
X000008656496Y000003061811
X000011018701Y000005620866
X000008656496Y000004085433
X000009443898Y000002038189
X00000078248Y000007156299
X000000762795Y000003061811
X00000078248Y-000000009055
X000000762795Y00000766811
Y000004597244
X00000078248
Y000003061811
X000000762795Y000005109055
X00000078248
Y000001526378
X000000762795
Y00000255
X00000078248
X000011786417Y000001014567
X000011806102Y000003061811
Y000007156299
X000011786417Y00000766811
Y000006132677
X000011806102Y000003573622
Y000001014567
X000011786417Y000001526378
Y000007156299
X000011806102Y000002038189
X000011786417Y00000255
X000011806102
Y000001526378
X000011786417Y000005109055
X000011806102Y-000000009055
X000011786417
X000011806102Y000000502756
X000011786417
X000011806102Y000004597244
X000011786417
Y000003573622
X000011806102Y000004085433
X000011786417
X000011806102Y000006132677
X000011786417Y000006644488
Y000002038189
Y000003061811
X000011806102Y000006644488
X000011786417Y000005620866
X000011806102
Y000005109055
Y00000766811
T02
X0Y000000214961
X000005511811Y000007892126
X0Y000000726772
Y000001238583
Y000001750394
Y000003797638
Y000003285827
Y000002774016
Y000002262205
Y000005844882
Y000005333071
Y00000482126
Y000004309449
X000008661417Y000006868504
X000007874016Y000003285827
X000006299213Y000002262205
X000009448819Y000005333071
X00001023622Y00000482126
X000009448819Y000000214961
X000011023622Y000002774016
X000007874016Y000007892126
X000003937008Y000006356693
X000009448819Y000006868504
X00001023622Y000003797638
X000008661417Y00000482126
X000001574803Y000007892126
X000008661417Y000001238583
X000011023622Y000007892126
X000007874016Y00000482126
X00001023622Y000005844882
X000005511811Y000001238583
X000003149606Y000002262205
X000002362205Y000000726772
X000003937008Y000001750394
Y000007380315
X000009448819Y000004309449
X000005511811Y000003797638
Y000005333071
X00001023622
X000005511811Y000006356693
X000000787402Y000001750394
X000006299213Y000001238583
X00001023622Y000002262205
X000007086614Y000000726772
X000001574803Y000006868504
X000005511811Y000003285827
X000003149606Y000001238583
X00001023622
X000000787402Y000005333071
X000011023622Y000000214961
X000001574803Y000005333071
X000005511811Y000000214961
Y000005844882
X000007874016Y000001238583
X000000787402Y000004309449
X000003149606Y000000726772
X000005511811Y000002262205
X000003149606Y000007892126
X000007874016Y000000726772
X000002362205Y000002774016
X000009448819Y000005844882
X000004724409Y000003285827
X000003937008Y000005333071
X000004724409Y000003797638
X000007086614Y000001238583
X00001023622Y000004309449
X000003937008Y000007892126
X00001023622Y000007380315
X000011023622
X000011811024Y000003285827
X000007086614Y000005844882
X000007874016Y000005333071
X000004724409Y000006356693
Y000005333071
X000001574803Y000001750394
X000011023622Y000005333071
X000004724409Y000006868504
X000001574803Y000002774016
X000004724409Y000005844882
X000003937008Y000004309449
X000008661417Y000003797638
X000007086614Y000002774016
Y000000214961
X000005511811Y000000726772
X000007086614Y000001750394
X000004724409Y000007380315
X000007874016
X000011023622Y000006356693
X000008661417Y000005333071
X000007874016Y000006356693
Y000003797638
X000004724409Y000007892126
X00001023622
X000002362205
X000011023622Y000000726772
X000003149606Y000002774016
X000009448819Y000003285827
Y000002774016
X000001574803Y000002262205
X000009448819Y000007380315
X000001574803Y000001238583
X000002362205Y000005844882
X000003149606Y000006356693
Y000000214961
X000001574803
X000006299213
X000004724409Y000001238583
X000006299213Y000004309449
X000003937008Y000002262205
X000002362205Y000001750394
X000004724409Y000000726772
X000000787402Y000006356693
Y000007380315
Y000000726772
X000003937008Y000001238583
X000007086614Y000003797638
X000003937008Y000000726772
X000004724409Y00000482126
X000002362205Y000002262205
X000009448819Y000003797638
X000004724409Y000000214961
X000003149606Y000003797638
X000005511811Y00000482126
Y000006868504
X000002362205Y000003285827
X000008661417Y000007380315
X000011023622Y000003285827
X000007874016Y000001750394
X000007086614Y00000482126
Y000003285827
Y000002262205
X000008661417Y000001750394
X000003937008Y000000214961
Y000005844882
X000003149606Y000004309449
X000004724409Y000001750394
X00001023622Y000000726772
Y000000214961
X000006299213Y000000726772
X00001023622Y000006356693
X000003149606Y000005333071
X000003937008Y000003285827
X000005511811Y000007380315
X000001574803Y000000726772
X000003937008Y000003797638
X000004724409Y000002774016
X000007874016
X000006299213Y00000482126
X000007086614Y000005333071
X000003149606Y000006868504
X000011023622Y000005844882
X00001023622Y000006868504
X000007086614Y000007380315
X000005511811Y000001750394
X000003937008Y00000482126
X000008661417Y000002774016
Y000005844882
X000007874016Y000000214961
X000011023622Y000001750394
Y000002262205
X000007086614Y000006356693
X000008661417Y000007892126
X000009448819
X000005511811Y000004309449
X000003937008Y000006868504
X000007086614Y000007892126
X000007874016Y000006868504
X000009448819Y000006356693
X000005511811Y000002774016
X000003149606Y000007380315
X000006299213Y000001750394
Y000005333071
X000003149606Y00000482126
X000000787402Y000007892126
X000006299213
X000008661417Y000006356693
X000000787402Y000002774016
X0Y000006356693
X000007086614Y000004309449
X00001023622Y000003285827
X000004724409Y000004309449
X000006299213Y000006868504
X000001574803Y000006356693
Y00000482126
Y000003797638
X000011023622Y000001238583
Y00000482126
X000008661417Y000002262205
X00001023622Y000001750394
X0Y000007380315
X000003149606Y000005844882
X000007874016
X0Y000006868504
X000002362205Y000004309449
Y000006868504
Y000005333071
X000011811024Y000005844882
X000001574803Y000007380315
X000008661417Y000000214961
X000006299213Y000003797638
Y000003285827
X000001574803
Y000004309449
X000008661417Y000003285827
X000009448819Y000001750394
X000006299213Y000006356693
X000009448819Y00000482126
X000006299213Y000005844882
Y000007380315
Y000002774016
X000007086614Y000006868504
X000002362205Y00000482126
X0Y000007892126
X000007874016Y000004309449
Y000002262205
X000009448819Y000000726772
X000002362205Y000001238583
X000000787402Y000000214961
X000011023622Y000004309449
Y000006868504
X000000787402Y000002262205
X000002362205Y000003797638
Y000007380315
Y000006356693
X000003149606Y000001750394
Y000003285827
X000003937008Y000002774016
X000009448819Y000001238583
X000004724409Y000002262205
X000001574803Y000005844882
X000011023622Y000003797638
X000008661417Y000004309449
Y000000726772
X000000787402Y000001238583
Y000005844882
X000009448819Y000002262205
X000000787402Y000006868504
X000002362205Y000000214961
X000000787402Y000003285827
Y000003797638
Y00000482126
X00001023622Y000002774016
X000011811024Y000006356693
Y000002774016
Y000007380315
Y00000482126
Y000007892126
Y000006868504
Y000005333071
Y000001750394
Y000000214961
Y000000726772
Y000002262205
Y000003797638
Y000001238583
Y000004309449

M30
