G04 ===== Begin FILE IDENTIFICATION =====*
G04 File Format:  Gerber RS274X*
G04 ===== End FILE IDENTIFICATION =====*
%FSLAX66Y66*%
%MOIN*%
%SFA1.0000B1.0000*%
%OFA0.0B0.0*%
%ADD14R,0.078740X0.039370*%
%ADD15R,0.039370X0.013386*%
%ADD16R,0.013386X0.039370*%
%ADD17R,0.033465X0.098425*%
%ADD18R,0.098425X0.033465*%
%ADD19C,0.322835*%
%ADD20R,0.047244X0.043307*%
%ADD21R,0.045669X0.029528*%
%ADD22C,0.118110*%
%ADD23R,0.043307X0.047244*%
%ADD24R,0.207874X0.219685*%
%LNsolder_mask*%
%IPPOS*%
%LPD*%
G75*
D14*
X6067323Y503937D03*
D15*
X5996457Y496063D03*
Y511811D03*
D16*
X6116535Y452756D03*
X6096850D03*
X6077165D03*
X6057480D03*
X6037795D03*
X6018110D03*
Y555118D03*
X6037795D03*
X6057480D03*
X6077165D03*
X6096850D03*
X6116535D03*
D15*
X6138189Y511811D03*
Y496063D03*
D14*
X5279921Y503937D03*
D15*
X5209055Y496063D03*
Y511811D03*
D16*
X5329134Y452756D03*
X5309449D03*
X5289764D03*
X5270079D03*
X5250394D03*
X5230709D03*
Y555118D03*
X5250394D03*
X5270079D03*
X5289764D03*
X5309449D03*
X5329134D03*
D15*
X5350787Y511811D03*
Y496063D03*
D14*
X5279921Y4598425D03*
D15*
X5209055Y4590551D03*
Y4606299D03*
D16*
X5329134Y4547244D03*
X5309449D03*
X5289764D03*
X5270079D03*
X5250394D03*
X5230709D03*
Y4649606D03*
X5250394D03*
X5270079D03*
X5289764D03*
X5309449D03*
X5329134D03*
D15*
X5350787Y4606299D03*
Y4590551D03*
D14*
X9216929Y503937D03*
D15*
X9146063Y496063D03*
Y511811D03*
D16*
X9266142Y452756D03*
X9246457D03*
X9226772D03*
X9207087D03*
X9187402D03*
X9167717D03*
Y555118D03*
X9187402D03*
X9207087D03*
X9226772D03*
X9246457D03*
X9266142D03*
D15*
X9287795Y511811D03*
Y496063D03*
D14*
X2130315Y503937D03*
D15*
X2059449Y496063D03*
Y511811D03*
D16*
X2179528Y452756D03*
X2159843D03*
X2140157D03*
X2120472D03*
X2100787D03*
X2081102D03*
Y555118D03*
X2100787D03*
X2120472D03*
X2140157D03*
X2159843D03*
X2179528D03*
D15*
X2201181Y511811D03*
Y496063D03*
D14*
X10004331Y503937D03*
D15*
X9933465Y496063D03*
Y511811D03*
D16*
X10053543Y452756D03*
X10033858D03*
X10014173D03*
X9994488D03*
X9974803D03*
X9955118D03*
Y555118D03*
X9974803D03*
X9994488D03*
X10014173D03*
X10033858D03*
X10053543D03*
D15*
X10075197Y511811D03*
Y496063D03*
D14*
X2917717Y4598425D03*
D15*
X2846850Y4590551D03*
Y4606299D03*
D16*
X2966929Y4547244D03*
X2947244D03*
X2927559D03*
X2907874D03*
X2888189D03*
X2868504D03*
Y4649606D03*
X2888189D03*
X2907874D03*
X2927559D03*
X2947244D03*
X2966929D03*
D15*
X2988583Y4606299D03*
Y4590551D03*
D14*
X2917717Y503937D03*
D15*
X2846850Y496063D03*
Y511811D03*
D16*
X2966929Y452756D03*
X2947244D03*
X2927559D03*
X2907874D03*
X2888189D03*
X2868504D03*
Y555118D03*
X2888189D03*
X2907874D03*
X2927559D03*
X2947244D03*
X2966929D03*
D15*
X2988583Y511811D03*
Y496063D03*
D14*
X8429528Y503937D03*
D15*
X8358661Y496063D03*
Y511811D03*
D16*
X8478740Y452756D03*
X8459055D03*
X8439370D03*
X8419685D03*
X8400000D03*
X8380315D03*
Y555118D03*
X8400000D03*
X8419685D03*
X8439370D03*
X8459055D03*
X8478740D03*
D15*
X8500394Y511811D03*
Y496063D03*
D14*
X2130315Y4598425D03*
D15*
X2059449Y4590551D03*
Y4606299D03*
D16*
X2179528Y4547244D03*
X2159843D03*
X2140157D03*
X2120472D03*
X2100787D03*
X2081102D03*
Y4649606D03*
X2100787D03*
X2120472D03*
X2140157D03*
X2159843D03*
X2179528D03*
D15*
X2201181Y4606299D03*
Y4590551D03*
D14*
X1342913Y4598425D03*
D15*
X1272047Y4590551D03*
Y4606299D03*
D16*
X1392126Y4547244D03*
X1372441D03*
X1352756D03*
X1333071D03*
X1313386D03*
X1293701D03*
Y4649606D03*
X1313386D03*
X1333071D03*
X1352756D03*
X1372441D03*
X1392126D03*
D15*
X1413780Y4606299D03*
Y4590551D03*
D14*
X7642126Y4598425D03*
D15*
X7571260Y4590551D03*
Y4606299D03*
D16*
X7691339Y4547244D03*
X7671654D03*
X7651969D03*
X7632283D03*
X7612598D03*
X7592913D03*
Y4649606D03*
X7612598D03*
X7632283D03*
X7651969D03*
X7671654D03*
X7691339D03*
D15*
X7712992Y4606299D03*
Y4590551D03*
D14*
X10791732Y503937D03*
D15*
X10720866Y496063D03*
Y511811D03*
D16*
X10840945Y452756D03*
X10821260D03*
X10801575D03*
X10781890D03*
X10762205D03*
X10742520D03*
Y555118D03*
X10762205D03*
X10781890D03*
X10801575D03*
X10821260D03*
X10840945D03*
D15*
X10862598Y511811D03*
Y496063D03*
D14*
X1342913Y503937D03*
D15*
X1272047Y496063D03*
Y511811D03*
D16*
X1392126Y452756D03*
X1372441D03*
X1352756D03*
X1333071D03*
X1313386D03*
X1293701D03*
Y555118D03*
X1313386D03*
X1333071D03*
X1352756D03*
X1372441D03*
X1392126D03*
D15*
X1413780Y511811D03*
Y496063D03*
D14*
X6067323Y4598425D03*
D15*
X5996457Y4590551D03*
Y4606299D03*
D16*
X6116535Y4547244D03*
X6096850D03*
X6077165D03*
X6057480D03*
X6037795D03*
X6018110D03*
Y4649606D03*
X6037795D03*
X6057480D03*
X6077165D03*
X6096850D03*
X6116535D03*
D15*
X6138189Y4606299D03*
Y4590551D03*
D14*
X7642126Y503937D03*
D15*
X7571260Y496063D03*
Y511811D03*
D16*
X7691339Y452756D03*
X7671654D03*
X7651969D03*
X7632283D03*
X7612598D03*
X7592913D03*
Y555118D03*
X7612598D03*
X7632283D03*
X7651969D03*
X7671654D03*
X7691339D03*
D15*
X7712992Y511811D03*
Y496063D03*
D14*
X555512Y4598425D03*
D15*
X484646Y4590551D03*
Y4606299D03*
D16*
X604724Y4547244D03*
X585039D03*
X565354D03*
X545669D03*
X525984D03*
X506299D03*
Y4649606D03*
X525984D03*
X545669D03*
X565354D03*
X585039D03*
X604724D03*
D15*
X626378Y4606299D03*
Y4590551D03*
D14*
X10004331Y4598425D03*
D15*
X9933465Y4590551D03*
Y4606299D03*
D16*
X10053543Y4547244D03*
X10033858D03*
X10014173D03*
X9994488D03*
X9974803D03*
X9955118D03*
Y4649606D03*
X9974803D03*
X9994488D03*
X10014173D03*
X10033858D03*
X10053543D03*
D15*
X10075197Y4606299D03*
Y4590551D03*
D14*
X4492520Y4598425D03*
D15*
X4421654Y4590551D03*
Y4606299D03*
D16*
X4541732Y4547244D03*
X4522047D03*
X4502362D03*
X4482677D03*
X4462992D03*
X4443307D03*
Y4649606D03*
X4462992D03*
X4482677D03*
X4502362D03*
X4522047D03*
X4541732D03*
D15*
X4563386Y4606299D03*
Y4590551D03*
D14*
X4492520Y503937D03*
D15*
X4421654Y496063D03*
Y511811D03*
D16*
X4541732Y452756D03*
X4522047D03*
X4502362D03*
X4482677D03*
X4462992D03*
X4443307D03*
Y555118D03*
X4462992D03*
X4482677D03*
X4502362D03*
X4522047D03*
X4541732D03*
D15*
X4563386Y511811D03*
Y496063D03*
D14*
X6854724Y503937D03*
D15*
X6783858Y496063D03*
Y511811D03*
D16*
X6903937Y452756D03*
X6884252D03*
X6864567D03*
X6844882D03*
X6825197D03*
X6805512D03*
Y555118D03*
X6825197D03*
X6844882D03*
X6864567D03*
X6884252D03*
X6903937D03*
D15*
X6925591Y511811D03*
Y496063D03*
D14*
X6854724Y4598425D03*
D15*
X6783858Y4590551D03*
Y4606299D03*
D16*
X6903937Y4547244D03*
X6884252D03*
X6864567D03*
X6844882D03*
X6825197D03*
X6805512D03*
Y4649606D03*
X6825197D03*
X6844882D03*
X6864567D03*
X6884252D03*
X6903937D03*
D15*
X6925591Y4606299D03*
Y4590551D03*
D14*
X555512Y503937D03*
D15*
X484646Y496063D03*
Y511811D03*
D16*
X604724Y452756D03*
X585039D03*
X565354D03*
X545669D03*
X525984D03*
X506299D03*
Y555118D03*
X525984D03*
X545669D03*
X565354D03*
X585039D03*
X604724D03*
D15*
X626378Y511811D03*
Y496063D03*
D14*
X10791732Y4598425D03*
D15*
X10720866Y4590551D03*
Y4606299D03*
D16*
X10840945Y4547244D03*
X10821260D03*
X10801575D03*
X10781890D03*
X10762205D03*
X10742520D03*
Y4649606D03*
X10762205D03*
X10781890D03*
X10801575D03*
X10821260D03*
X10840945D03*
D15*
X10862598Y4606299D03*
Y4590551D03*
D14*
X3705118Y4598425D03*
D15*
X3634252Y4590551D03*
Y4606299D03*
D16*
X3754331Y4547244D03*
X3734646D03*
X3714961D03*
X3695276D03*
X3675591D03*
X3655906D03*
Y4649606D03*
X3675591D03*
X3695276D03*
X3714961D03*
X3734646D03*
X3754331D03*
D15*
X3775984Y4606299D03*
Y4590551D03*
D14*
X9216929Y4598425D03*
D15*
X9146063Y4590551D03*
Y4606299D03*
D16*
X9266142Y4547244D03*
X9246457D03*
X9226772D03*
X9207087D03*
X9187402D03*
X9167717D03*
Y4649606D03*
X9187402D03*
X9207087D03*
X9226772D03*
X9246457D03*
X9266142D03*
D15*
X9287795Y4606299D03*
Y4590551D03*
D14*
X8429528Y4598425D03*
D15*
X8358661Y4590551D03*
Y4606299D03*
D16*
X8478740Y4547244D03*
X8459055D03*
X8439370D03*
X8419685D03*
X8400000D03*
X8380315D03*
Y4649606D03*
X8400000D03*
X8419685D03*
X8439370D03*
X8459055D03*
X8478740D03*
D15*
X8500394Y4606299D03*
Y4590551D03*
D14*
X3705118Y503937D03*
D15*
X3634252Y496063D03*
Y511811D03*
D16*
X3754331Y452756D03*
X3734646D03*
X3714961D03*
X3695276D03*
X3675591D03*
X3655906D03*
Y555118D03*
X3675591D03*
X3695276D03*
X3714961D03*
X3734646D03*
X3754331D03*
D15*
X3775984Y511811D03*
Y496063D03*
D14*
X-231890Y503937D03*
D15*
X-302756Y496063D03*
Y511811D03*
D16*
X-182677Y452756D03*
X-202362D03*
X-222047D03*
X-241732D03*
X-261417D03*
X-281102D03*
Y555118D03*
X-261417D03*
X-241732D03*
X-222047D03*
X-202362D03*
X-182677D03*
D15*
X-161024Y511811D03*
Y496063D03*
D14*
X-231890Y4598425D03*
D15*
X-302756Y4590551D03*
Y4606299D03*
D16*
X-182677Y4547244D03*
X-202362D03*
X-222047D03*
X-241732D03*
X-261417D03*
X-281102D03*
Y4649606D03*
X-261417D03*
X-241732D03*
X-222047D03*
X-202362D03*
X-182677D03*
D15*
X-161024Y4606299D03*
Y4590551D03*
D14*
X11579134Y4598425D03*
D15*
X11508268Y4590551D03*
Y4606299D03*
D16*
X11628346Y4547244D03*
X11608661D03*
X11588976D03*
X11569291D03*
X11549606D03*
X11529921D03*
Y4649606D03*
X11549606D03*
X11569291D03*
X11588976D03*
X11608661D03*
X11628346D03*
D15*
X11650000Y4606299D03*
Y4590551D03*
D14*
X11579134Y503937D03*
D15*
X11508268Y496063D03*
Y511811D03*
D16*
X11628346Y452756D03*
X11608661D03*
X11588976D03*
X11569291D03*
X11549606D03*
X11529921D03*
Y555118D03*
X11549606D03*
X11569291D03*
X11588976D03*
X11608661D03*
X11628346D03*
D15*
X11650000Y511811D03*
Y496063D03*
D17*
X5300591Y2789370D03*
X5250591D03*
X5300591Y2942913D03*
X5250591D03*
D18*
X5120079Y-236614D03*
Y-186614D03*
Y-136614D03*
Y-86614D03*
Y-36614D03*
X5273622Y-236614D03*
Y-186614D03*
Y-136614D03*
Y-86614D03*
Y-36614D03*
X8269685Y-236614D03*
Y-186614D03*
Y-136614D03*
Y-86614D03*
Y-36614D03*
X8423228Y-236614D03*
Y-186614D03*
Y-136614D03*
Y-86614D03*
Y-36614D03*
D17*
X8450197Y2789370D03*
X8400197D03*
X8450197Y2942913D03*
X8400197D03*
D19*
X5925197Y-114173D03*
X6811024Y3263780D03*
D20*
X11496063Y7724409D03*
Y7791339D03*
X10708661Y7724409D03*
X7559055Y7929134D03*
Y7862205D03*
X8346457Y7791339D03*
Y7724409D03*
Y7929134D03*
Y7862205D03*
X7559055Y7791339D03*
Y7724409D03*
X9921260Y7929134D03*
Y7862205D03*
X9133858Y7791339D03*
Y7724409D03*
Y7929134D03*
Y7862205D03*
X6771654Y7929134D03*
Y7862205D03*
Y7791339D03*
Y7724409D03*
X9921260D03*
Y7791339D03*
X11417323D03*
Y7724409D03*
X10629921Y7791339D03*
Y7724409D03*
X9842520Y7791339D03*
Y7724409D03*
X9055118Y7791339D03*
Y7724409D03*
X8267717Y7791339D03*
Y7724409D03*
X10708661Y7862205D03*
Y7791339D03*
Y7929134D03*
X6692913Y7724409D03*
Y7791339D03*
X7480315D03*
D21*
X11811024Y5131693D03*
D20*
X11796063Y5012402D03*
X11706693Y4860236D03*
Y4927165D03*
X11875984Y4031496D03*
X11796063Y4055709D03*
D22*
X12106299Y-236220D03*
Y7913386D03*
X-295276Y-236220D03*
D23*
X11929134Y905512D03*
D20*
X11875984Y448819D03*
Y5566929D03*
D21*
X11811024Y5643504D03*
D20*
X11706693Y832677D03*
X11796063Y1496654D03*
D23*
X11929134Y6023622D03*
D20*
X11875984Y1472441D03*
Y1984252D03*
D24*
X11850000Y1169685D03*
D20*
X11875984Y1027559D03*
Y6078740D03*
X11796063Y6102953D03*
D23*
X11862205Y5511811D03*
D20*
X11875984Y6145669D03*
X11796063Y5591142D03*
D23*
X11929134Y5511811D03*
D20*
X11875984Y5633858D03*
X11796063Y5524213D03*
D23*
X11929134Y5000000D03*
D24*
X11850000Y5264173D03*
D23*
X11862205Y1929134D03*
D20*
X11875984Y2051181D03*
X11706693Y481102D03*
D23*
X11862205Y905512D03*
D20*
X11796063Y1941535D03*
D24*
X11850000Y1681496D03*
D21*
X11811024Y2060827D03*
D20*
X11796063Y2008465D03*
X11875984Y7169291D03*
Y7102362D03*
D23*
X11862205Y6023622D03*
D24*
X11850000Y5775984D03*
D23*
X11929134Y1929134D03*
D20*
X11875984Y1539370D03*
D23*
X11929134Y7047244D03*
D20*
X11875984Y6590551D03*
D23*
X11862205Y7047244D03*
D20*
X11796063Y7059646D03*
D23*
X11862205Y1417323D03*
D21*
X11811024Y1037205D03*
D24*
X11850000Y146063D03*
D20*
X11569291Y227559D03*
X11796063Y2520276D03*
Y2453346D03*
D23*
X11929134Y6535433D03*
D21*
X11811024Y6667126D03*
D23*
X11862205Y6535433D03*
D20*
X11796063Y6547835D03*
Y7126575D03*
D21*
X11811024Y7178937D03*
D23*
X11862205Y393701D03*
D20*
X11796063Y473031D03*
D21*
X11811024Y525394D03*
D20*
X11875984Y2496063D03*
D23*
X11862205Y2440945D03*
X11929134Y7559055D03*
D20*
X11796063Y7638386D03*
X-157480Y7862205D03*
X11796063Y3032087D03*
D21*
X11811024Y3084449D03*
D23*
X11929134Y2952756D03*
D24*
X11850000Y2705118D03*
Y7823228D03*
D20*
X11875984Y7681102D03*
D23*
X11929134Y2440945D03*
X11862205Y2952756D03*
D24*
X11850000Y6287795D03*
D23*
X11862205Y7559055D03*
D20*
X11875984Y7614173D03*
D23*
X11862205Y3464567D03*
D20*
X11706693Y4642520D03*
D24*
X11850000Y4752362D03*
D20*
X11875984Y960630D03*
D24*
X11850000Y3216929D03*
D20*
X11796063Y406102D03*
Y984843D03*
D23*
X11929134Y4488189D03*
D20*
X11875984Y4543307D03*
X11569291Y4255118D03*
D21*
X11811024Y3596260D03*
D20*
X11569291Y4322047D03*
X11636220Y4255118D03*
X11875984Y3007874D03*
X11796063Y2965157D03*
X11703150Y4322047D03*
X11502362Y4188189D03*
X11796063Y6614764D03*
X11875984Y5122047D03*
D23*
X11862205Y5000000D03*
D20*
X11502362Y160630D03*
Y227559D03*
X11875984Y6657480D03*
Y-62992D03*
Y3937D03*
D23*
X11929134Y-118110D03*
X11862205D03*
D21*
X11811024Y2572638D03*
D20*
X11875984Y2562992D03*
D24*
X11850000Y3728740D03*
D23*
X11862205Y3976378D03*
D20*
X11569291Y160630D03*
X11796063Y917913D03*
D23*
X11929134Y393701D03*
D20*
X11875984Y3586614D03*
X11796063Y3476969D03*
Y1429724D03*
D23*
X11929134Y1417323D03*
D21*
X11811024Y13583D03*
D20*
X11796063Y-38780D03*
D24*
X11850000Y7311417D03*
D20*
X11796063Y7571457D03*
X11875984Y3519685D03*
X11796063Y3543898D03*
D24*
X11850000Y2193307D03*
D21*
X11811024Y1549016D03*
D23*
X11929134Y3464567D03*
D20*
X11796063Y3988780D03*
Y5079331D03*
X11875984Y5055118D03*
D21*
X11811024Y7690748D03*
Y6155315D03*
D24*
X11850000Y6799606D03*
D20*
X11639764Y4396850D03*
D24*
X11850000Y4240551D03*
D20*
X11703150Y4255118D03*
X11636220Y4322047D03*
D22*
X-295276Y7913386D03*
D20*
X11796063Y-105709D03*
X11502362Y4121260D03*
Y4322047D03*
X-157480Y7929134D03*
D24*
X11850000Y657874D03*
D20*
X11875984Y515748D03*
Y3074803D03*
D23*
X11929134Y3976378D03*
D20*
X11502362Y4255118D03*
X11875984Y4098425D03*
X11502362Y93701D03*
D21*
X11811024Y4108071D03*
D20*
X11636220Y160630D03*
X11796063Y6036024D03*
X11636220Y227559D03*
X11706693Y369291D03*
X11639764Y302362D03*
D23*
X11862205Y4488189D03*
D20*
X11706693Y548031D03*
X11796063Y4500591D03*
X11706693Y765748D03*
X11796063Y4567520D03*
D21*
X11811024Y4619882D03*
D20*
X11639764Y4463780D03*
X11706693Y4575591D03*
X11703150Y227559D03*
X11639764Y369291D03*
X11706693Y302362D03*
X11703150Y160630D03*
X11706693Y4463780D03*
X-104331Y4642520D03*
Y4575591D03*
X-171260Y4463780D03*
X-104331D03*
Y4927165D03*
Y4860236D03*
X-107874Y4322047D03*
X-171260Y4396850D03*
X11502362Y26772D03*
X-174803Y4322047D03*
X-104331Y4396850D03*
D23*
X7204724Y1929134D03*
D21*
X7086614Y1549016D03*
D24*
X7125591Y4752362D03*
Y3216929D03*
D20*
X6982283Y302362D03*
X6777953Y160630D03*
X5496850Y6102953D03*
D23*
X5562992Y6023622D03*
D21*
X3149606Y2572638D03*
D20*
X3134646Y2520276D03*
D23*
X2480315Y5511811D03*
X2413386D03*
X7925197Y2952756D03*
D20*
X7859055Y2965157D03*
D23*
X8779528Y7047244D03*
D20*
X8726378Y6590551D03*
D23*
X838583Y393701D03*
D24*
X1613780Y4752362D03*
Y3216929D03*
D20*
X8726378Y1539370D03*
D21*
X8661417Y2572638D03*
D20*
X772441Y406102D03*
D23*
X905512Y393701D03*
D20*
X4415748Y93701D03*
Y26772D03*
X6127953Y4396850D03*
D24*
X6338189Y4240551D03*
D23*
X7992126Y3976378D03*
D20*
X7859055Y3543898D03*
X3628346Y26772D03*
X3832677Y369291D03*
X2257874Y832677D03*
X2347244Y1496654D03*
X6364173Y5566929D03*
Y5633858D03*
D23*
X1625984Y1417323D03*
D21*
X1574803Y1037205D03*
Y2060827D03*
D20*
X1559843Y2008465D03*
Y1941535D03*
D24*
X1613780Y1681496D03*
Y2193307D03*
D23*
X1692913Y1929134D03*
D24*
X1613780Y146063D03*
D20*
X1559843Y917913D03*
Y1429724D03*
D23*
X1692913Y1417323D03*
Y2440945D03*
X1625984Y2952756D03*
D20*
X1559843Y2453346D03*
D23*
X1625984Y2440945D03*
D20*
X1466929Y4322047D03*
X1266142Y4121260D03*
X1333071Y4322047D03*
X1266142Y4188189D03*
D24*
X1613780Y3728740D03*
D21*
X1574803Y3596260D03*
D23*
X1692913Y5511811D03*
X1625984D03*
D24*
X1613780Y1169685D03*
D20*
X1639764Y1027559D03*
X1559843Y3543898D03*
Y3476969D03*
D23*
X1692913Y3464567D03*
X1625984D03*
D20*
X1639764Y5122047D03*
D24*
X1613780Y5264173D03*
D20*
X1559843Y5591142D03*
Y5524213D03*
X5496850Y5012402D03*
Y5079331D03*
D23*
X7925197Y5000000D03*
D20*
X7938976Y5122047D03*
D24*
X7912992Y6287795D03*
D23*
X7925197Y7559055D03*
D20*
X7699213Y227559D03*
X7766142Y160630D03*
D21*
X5511811Y1037205D03*
D24*
X5550787Y1169685D03*
D20*
X4709449Y3988780D03*
X4482677Y4255118D03*
D21*
X3149606Y6667126D03*
Y7178937D03*
X11023622Y2060827D03*
D20*
X11008661Y2008465D03*
D24*
X3188583Y6287795D03*
D20*
X3045276Y4642520D03*
X3922047Y473031D03*
D24*
X3975984Y657874D03*
D20*
X2120472Y4255118D03*
X2187402D03*
X2347244Y3988780D03*
D23*
X2413386Y3976378D03*
Y393701D03*
D20*
X8646457Y4500591D03*
X8726378Y4610236D03*
X3543307Y7724409D03*
D21*
X2362205Y7690748D03*
D20*
X2427165Y7614173D03*
X2347244Y4500591D03*
D23*
X2413386Y4488189D03*
D20*
X7859055Y5591142D03*
D23*
X7992126Y5511811D03*
D20*
X2347244Y7059646D03*
X2427165Y6590551D03*
X2347244Y406102D03*
D23*
X2480315Y393701D03*
X2413386Y7047244D03*
D20*
X2427165Y7102362D03*
D21*
X2362205Y4619882D03*
D20*
X2347244Y4567520D03*
X2257874Y4396850D03*
X2190945Y4463780D03*
D21*
X2362205Y6155315D03*
D24*
X2401181Y5775984D03*
D23*
X2413386Y6023622D03*
D20*
X2347244Y6102953D03*
X2254331Y4322047D03*
X2053543Y4121260D03*
X2427165Y3074803D03*
D23*
X2480315Y2952756D03*
D21*
X1574803Y2572638D03*
D20*
X1559843Y2520276D03*
X4001969Y6145669D03*
Y6078740D03*
D23*
X4775591Y905512D03*
D20*
X4620079Y481102D03*
D23*
X2480315Y7559055D03*
X3267717Y905512D03*
D20*
X3214567Y448819D03*
D23*
X3267717Y-118110D03*
X3200787D03*
D20*
X6364173Y3586614D03*
X6284252Y3543898D03*
D23*
X11074803Y5511811D03*
D20*
X11008661Y6036024D03*
X2840945Y93701D03*
Y26772D03*
X8553543Y160630D03*
X8557087Y302362D03*
X7938976Y3007874D03*
D23*
X7992126Y2440945D03*
D20*
X3214567Y-62992D03*
Y3937D03*
X9140157Y26772D03*
X9277559Y369291D03*
X7151575Y448819D03*
Y515748D03*
X7769685Y481102D03*
D23*
X7925197Y905512D03*
X2480315Y2440945D03*
X2413386Y2952756D03*
D20*
X1333071Y160630D03*
Y227559D03*
X6364173Y2496063D03*
D23*
X6417323Y2440945D03*
X8779528D03*
X8712598Y2952756D03*
X11141732Y4488189D03*
D20*
X11088583Y4543307D03*
D23*
X3988189Y-118110D03*
D20*
X3628346Y93701D03*
D23*
X3988189Y2440945D03*
D20*
X4001969Y2562992D03*
X3922047Y3476969D03*
D23*
X4055118Y3464567D03*
X3988189Y5000000D03*
D20*
X4001969Y5122047D03*
D24*
X10275197Y1169685D03*
D20*
X10301181Y1027559D03*
X10919291Y4927165D03*
D21*
X11023622Y5131693D03*
D20*
X7938976Y3586614D03*
X7859055Y3476969D03*
X3922047Y3988780D03*
X3695276Y4255118D03*
X3922047Y7571457D03*
D23*
X3988189Y7559055D03*
D24*
X3975984Y7311417D03*
Y6287795D03*
D20*
X4001969Y4031496D03*
X3922047Y4055709D03*
Y6102953D03*
D21*
X3937008Y6155315D03*
D24*
X3975984Y5775984D03*
Y6799606D03*
D20*
X4001969Y960630D03*
X3922047Y406102D03*
X3628346Y4188189D03*
X3829134Y4322047D03*
X4001969Y1984252D03*
Y2051181D03*
D23*
X2480315Y7047244D03*
X2413386Y6535433D03*
D20*
X4001969Y7102362D03*
X3922047Y7059646D03*
X10919291Y302362D03*
X10714961Y160630D03*
X11088583Y515748D03*
X11008661Y473031D03*
X1470472Y832677D03*
X1559843Y1496654D03*
X5576772Y2051181D03*
D21*
X5511811Y2060827D03*
D23*
X4775591Y5000000D03*
D20*
X4789370Y5122047D03*
D21*
X3937008Y5643504D03*
D20*
X4001969Y5566929D03*
Y2496063D03*
D23*
X4055118Y2440945D03*
D20*
X11008661Y6614764D03*
D21*
X3149606Y6155315D03*
D24*
X3188583Y5775984D03*
D20*
X2834646Y7862205D03*
Y7929134D03*
D23*
X3988189Y2952756D03*
D20*
X4001969Y3007874D03*
D23*
X5903543Y95669D03*
D24*
X4763386Y7311417D03*
Y6287795D03*
D23*
X5629921Y5511811D03*
X5562992D03*
D20*
X4709449Y1496654D03*
X4620079Y832677D03*
D24*
X4763386Y657874D03*
D21*
X4724409Y525394D03*
D20*
X4415748Y4121260D03*
Y4322047D03*
D23*
X6350394Y6023622D03*
D24*
X6338189Y6799606D03*
D20*
X4616535Y4322047D03*
X4415748Y4188189D03*
D23*
X4842520Y2440945D03*
X4775591Y2952756D03*
X4842520Y905512D03*
D20*
X4789370Y448819D03*
X4553150Y369291D03*
X4616535Y227559D03*
D24*
X10275197Y3216929D03*
D20*
X10221260Y406102D03*
X4549606Y160630D03*
Y227559D03*
D23*
X3988189Y1929134D03*
D21*
X3937008Y2060827D03*
D20*
X4616535Y160630D03*
X4620079Y302362D03*
X4709449Y3032087D03*
D21*
X4724409Y3084449D03*
D23*
X5629921Y1417323D03*
X5562992D03*
D20*
X5576772Y4610236D03*
Y4543307D03*
D23*
X6350394Y-118110D03*
D20*
X4415748Y4255118D03*
X4789370Y4098425D03*
X3045276Y369291D03*
X2978346D03*
X9927559Y4255118D03*
X10301181Y4098425D03*
X7071654Y2520276D03*
Y2453346D03*
X8557087Y4860236D03*
Y4927165D03*
D23*
X8779528Y7559055D03*
D20*
X8646457Y7638386D03*
D24*
X8700394Y7311417D03*
D20*
X8646457Y7571457D03*
D23*
X2480315Y4488189D03*
D20*
X2427165Y4031496D03*
X9513780Y5566929D03*
Y5633858D03*
X4409449Y7929134D03*
X2427165Y4610236D03*
Y4543307D03*
X7769685Y548031D03*
Y765748D03*
X6982283Y4927165D03*
D21*
X7086614Y5131693D03*
D20*
X1639764Y1472441D03*
Y1984252D03*
X1559843Y3988780D03*
D23*
X1625984Y3976378D03*
D20*
X2347244Y4055709D03*
X2257874Y4860236D03*
D21*
X9448819Y2572638D03*
D20*
X9513780Y2562992D03*
Y2496063D03*
Y3007874D03*
D23*
X9566929Y7559055D03*
D20*
X9433858Y7638386D03*
X5196850Y7724409D03*
X6844882Y227559D03*
D24*
X7125591Y146063D03*
D20*
X1559843Y4500591D03*
D23*
X1625984Y4488189D03*
D20*
X5407480Y765748D03*
X5496850Y1496654D03*
X9433858Y7571457D03*
D24*
X9487795Y6287795D03*
D20*
X2978346Y302362D03*
X3041732Y227559D03*
D24*
X2401181Y7823228D03*
D20*
X11008661Y6547835D03*
D23*
X11141732Y6535433D03*
D20*
X6194882Y765748D03*
X6284252Y1496654D03*
X1639764Y4610236D03*
Y4543307D03*
X3832677Y765748D03*
Y832677D03*
D24*
X11062598Y4752362D03*
D20*
X11088583Y960630D03*
X4330709Y7791339D03*
D21*
X8661417Y5643504D03*
D20*
X8726378Y5566929D03*
X11008661Y1941535D03*
D24*
X11062598Y1681496D03*
D20*
X11008661Y984843D03*
D23*
X11141732Y393701D03*
D20*
X8646457Y5591142D03*
D23*
X8779528Y5511811D03*
D20*
X7938976Y7681102D03*
D24*
X7912992Y7311417D03*
D20*
X4001969Y4543307D03*
D23*
X4055118Y4488189D03*
D20*
X4409449Y7724409D03*
X1266142Y160630D03*
Y227559D03*
X2347244Y6614764D03*
Y6547835D03*
D23*
X9500000Y2952756D03*
D20*
X9433858Y2965157D03*
X2257874Y4927165D03*
D21*
X2362205Y5131693D03*
D23*
X4842520Y3464567D03*
D20*
X4709449Y2453346D03*
D23*
X4775591Y2440945D03*
D20*
X2427165Y5055118D03*
D23*
X2413386Y5000000D03*
D20*
X1333071Y4255118D03*
X1400000D03*
X10301181Y6078740D03*
D23*
X10354331Y6023622D03*
D20*
X4001969Y5633858D03*
X3922047Y5524213D03*
X1639764Y5055118D03*
D23*
X1625984Y5000000D03*
D21*
X3937008Y4108071D03*
D20*
X3765748Y4396850D03*
D24*
X7125591Y3728740D03*
D23*
X7137795Y3976378D03*
D20*
X7766142Y227559D03*
X7699213Y160630D03*
X6057480Y227559D03*
D24*
X6338189Y146063D03*
D20*
X4789370Y3519685D03*
Y3586614D03*
X2427165Y7681102D03*
X2347244Y7571457D03*
X4415748Y160630D03*
Y227559D03*
X9927559Y4188189D03*
Y4121260D03*
D21*
X7086614Y13583D03*
D20*
X2427165Y6657480D03*
D23*
X2480315Y6535433D03*
D20*
X3922047Y5079331D03*
X4001969Y5055118D03*
X3628346Y4121260D03*
Y4322047D03*
X9994488D03*
X10061417Y4255118D03*
D23*
X10287402Y905512D03*
D20*
X10131890Y765748D03*
D23*
X2413386Y7559055D03*
D24*
X2401181Y7311417D03*
D20*
X3829134Y4255118D03*
X3762205Y4322047D03*
D23*
X4055118Y2952756D03*
D24*
X3975984Y2705118D03*
D20*
X10128346Y4255118D03*
X10061417Y4322047D03*
D24*
X2401181Y2705118D03*
D23*
X2480315Y3976378D03*
D20*
X3922047Y2008465D03*
Y1941535D03*
X3041732Y160630D03*
X3045276Y302362D03*
X2347244Y3543898D03*
Y3476969D03*
X4330709Y7724409D03*
D24*
X4763386Y146063D03*
D20*
X4709449Y917913D03*
D24*
X10275197Y2193307D03*
D21*
X10236220Y1549016D03*
D23*
X1692913Y4488189D03*
D20*
X1639764Y4031496D03*
X3045276Y4927165D03*
D21*
X3149606Y5131693D03*
D20*
X1559843Y4055709D03*
X1470472Y4860236D03*
D24*
X6338189Y2705118D03*
D23*
X6417323Y2952756D03*
D20*
X472441Y7929134D03*
D21*
X7874016Y7690748D03*
D20*
X2834646Y7791339D03*
X4789370Y2051181D03*
D23*
X4775591Y1929134D03*
X2480315Y3464567D03*
X2413386D03*
X1692913Y5000000D03*
D21*
X1574803Y5643504D03*
X2362205Y6667126D03*
Y7178937D03*
D20*
X10221260Y2008465D03*
Y1941535D03*
D24*
X3975984Y1681496D03*
Y2193307D03*
D23*
X3988189Y4488189D03*
D20*
X4001969Y4610236D03*
X6364173Y448819D03*
Y515748D03*
D23*
X7137795Y905512D03*
D20*
X6982283Y548031D03*
X3922047Y6547835D03*
X4001969Y6657480D03*
X3922047Y2520276D03*
Y2453346D03*
D23*
X7925197Y1929134D03*
D20*
X7938976Y2051181D03*
X10781890Y227559D03*
D23*
X11141732Y905512D03*
D20*
X4001969Y1539370D03*
D21*
X3937008Y2572638D03*
X5511811Y525394D03*
D20*
X5407480Y481102D03*
D23*
X4775591Y3464567D03*
D24*
X4763386Y3728740D03*
D20*
X772441Y984843D03*
X852362Y960630D03*
X4789370Y2562992D03*
Y2496063D03*
D23*
X9566929Y-118110D03*
X9500000D03*
D20*
X2047244Y7724409D03*
X10915748Y227559D03*
X10852362Y302362D03*
X5576772Y5122047D03*
D23*
X5629921Y5000000D03*
D20*
X2347244Y3032087D03*
D21*
X2362205Y3084449D03*
D24*
X2401181Y6287795D03*
D20*
X2257874Y4642520D03*
X10919291Y369291D03*
X10714961Y26772D03*
D23*
X3988189Y6535433D03*
D20*
X3922047Y6614764D03*
X3832677Y4860236D03*
Y4927165D03*
X6284252Y6102953D03*
D21*
X6299213Y6155315D03*
D24*
X3188583Y146063D03*
D20*
X3134646Y917913D03*
D23*
X9566929Y3976378D03*
D20*
X9433858Y3543898D03*
X7702756Y4463780D03*
X7859055Y4567520D03*
X11088583Y4098425D03*
X10852362Y4396850D03*
D23*
X1692913Y-118110D03*
X1625984D03*
D20*
X4001969Y3586614D03*
X3922047Y3543898D03*
X3628346Y4255118D03*
X4001969Y4098425D03*
X9433858Y5524213D03*
Y5591142D03*
D24*
X2401181Y3728740D03*
D21*
X2362205Y3596260D03*
X9448819Y3084449D03*
D23*
X9566929Y2952756D03*
D21*
X4724409Y1549016D03*
D20*
X4789370Y1539370D03*
X8486614Y4255118D03*
X8553543Y4322047D03*
X2257874Y4575591D03*
Y4463780D03*
X6915354D03*
X7071654Y4567520D03*
X2347244Y7126575D03*
Y7638386D03*
X11008661Y-105709D03*
D23*
X4842520Y-118110D03*
X4775591D03*
X4055118Y1929134D03*
D21*
X3937008Y1549016D03*
D20*
X2427165Y2562992D03*
Y2496063D03*
X4001969Y6590551D03*
D23*
X4055118Y7047244D03*
D20*
X2190945Y4396850D03*
D24*
X2401181Y4240551D03*
D20*
X2427165Y4098425D03*
D21*
X2362205Y4108071D03*
D23*
X7925197Y1417323D03*
D21*
X7874016Y1037205D03*
D20*
X10221260Y7126575D03*
D21*
X10236220Y7178937D03*
D20*
X9513780Y960630D03*
X7769685Y302362D03*
X11088583Y-62992D03*
X7769685Y369291D03*
X7938976Y1539370D03*
X7859055Y-38780D03*
Y1429724D03*
X9513780Y6078740D03*
D21*
X11023622Y6667126D03*
D20*
X3543307Y7791339D03*
X-241732Y227559D03*
X7565354Y26772D03*
Y160630D03*
X9344488Y4860236D03*
X7859055Y6614764D03*
X7938976Y2496063D03*
D21*
X7874016Y525394D03*
X9448819Y6155315D03*
D20*
X10301181Y4031496D03*
X8726378Y1472441D03*
D23*
X10287402Y3464567D03*
D20*
X7632283Y4255118D03*
D24*
X38976Y6799606D03*
D23*
X51181Y7559055D03*
D20*
X-14961Y7571457D03*
X64961Y7681102D03*
D24*
X38976Y7823228D03*
D23*
X10287402Y-118110D03*
D20*
X64961Y7169291D03*
D23*
X51181Y7047244D03*
D20*
X64961Y7102362D03*
X-14961Y7059646D03*
Y7126575D03*
D21*
X0Y7178937D03*
X0Y6667126D03*
D23*
X118110Y6535433D03*
D24*
X38976Y6287795D03*
D20*
X-14961Y6036024D03*
Y7638386D03*
D23*
X10354331Y7047244D03*
Y4488189D03*
D20*
X7859055Y917913D03*
D24*
X7912992Y657874D03*
D20*
X64961Y6145669D03*
Y6657480D03*
D23*
X7992126Y905512D03*
D20*
X9513780Y4543307D03*
D21*
X0Y6155315D03*
D20*
X-14961Y6547835D03*
Y6614764D03*
D24*
X38976Y7311417D03*
D20*
X7938976Y3519685D03*
Y6657480D03*
X2834646Y7724409D03*
D21*
X7874016Y7178937D03*
D20*
X11088583Y2051181D03*
X7938976Y5633858D03*
D23*
X118110Y7559055D03*
D20*
X7938976Y-62992D03*
Y448819D03*
D21*
X7874016Y13583D03*
D24*
X7912992Y2193307D03*
D21*
X7874016Y2060827D03*
D20*
X10714961Y4188189D03*
X7769685Y4642520D03*
X10221260Y4500591D03*
X-14961Y6102953D03*
D23*
X51181Y6023622D03*
D21*
X0Y7690748D03*
D20*
X10221260Y473031D03*
X64961Y7614173D03*
Y6590551D03*
D21*
X7874016Y4619882D03*
D20*
X64961Y6078740D03*
X2755906Y7724409D03*
X1968504D03*
X7565354Y4322047D03*
D23*
X118110Y6023622D03*
D21*
X10236220Y3084449D03*
D20*
X10221260Y3032087D03*
Y2965157D03*
X10301181Y2496063D03*
D23*
X10354331Y1929134D03*
D24*
X11062598Y6287795D03*
D23*
X118110Y7047244D03*
D20*
X10919291Y4860236D03*
D24*
X10275197Y2705118D03*
D21*
X10236220Y5131693D03*
D20*
X10221260Y6036024D03*
Y6102953D03*
X9513780Y3519685D03*
D23*
X11141732Y1417323D03*
D20*
X7938976Y4610236D03*
X10131890Y4927165D03*
X11008661Y7571457D03*
X10915748Y4255118D03*
X-104331Y548031D03*
X10301181Y960630D03*
D24*
X11062598Y5775984D03*
D23*
X51181Y6535433D03*
D20*
X2347244Y-38780D03*
Y-105709D03*
D24*
X10275197Y5775984D03*
D20*
X10301181Y7169291D03*
D24*
X7125591Y2705118D03*
D23*
X7204724Y2952756D03*
D20*
X852362Y3519685D03*
Y3586614D03*
D23*
X5629921Y3976378D03*
D20*
X5576772Y3519685D03*
X3622047Y7862205D03*
D24*
X7125591Y7823228D03*
D20*
X3214567Y3007874D03*
X3134646Y2965157D03*
X10301181Y7102362D03*
D23*
X10287402Y7047244D03*
D21*
X8661417Y4619882D03*
D20*
X8490157Y4463780D03*
X10221260Y4055709D03*
X10131890Y4860236D03*
X1639764Y7681102D03*
X1559843Y7571457D03*
D23*
X10354331Y2952756D03*
D20*
X10301181Y3074803D03*
D24*
X1613780Y7823228D03*
X9487795Y3728740D03*
D23*
X9566929Y3464567D03*
D20*
X3762205Y227559D03*
X3829134Y160630D03*
D21*
X3937008Y3084449D03*
D20*
X4001969Y3074803D03*
X11008661Y6102953D03*
D21*
X11023622Y6155315D03*
D24*
X8700394Y7823228D03*
D20*
X8726378Y7681102D03*
X10919291Y765748D03*
D24*
X3975984Y5264173D03*
D23*
X4055118Y5000000D03*
D21*
X5511811Y3084449D03*
D20*
X5576772Y3074803D03*
D21*
X3149606Y2060827D03*
D20*
X3134646Y2008465D03*
X5337008Y4255118D03*
X5403937Y4322047D03*
D21*
X8661417Y13583D03*
D20*
X8726378Y-62992D03*
D24*
X7912992Y4240551D03*
D20*
X7769685Y4463780D03*
X1639764Y515748D03*
X1559843Y473031D03*
X4709449Y5079331D03*
X4789370Y5055118D03*
X6191339Y227559D03*
X6124409Y160630D03*
X1400000Y4322047D03*
X1266142Y4255118D03*
X8726378Y3074803D03*
D23*
X8779528Y2952756D03*
D20*
X3134646Y3543898D03*
Y3476969D03*
X7071654Y7126575D03*
D23*
X7204724Y7559055D03*
X11074803Y7047244D03*
D20*
X11008661Y7059646D03*
X5496850Y7126575D03*
Y7638386D03*
D24*
X826378Y2705118D03*
D23*
X905512Y3976378D03*
D20*
X8352756Y93701D03*
X8557087Y369291D03*
D23*
X2480315Y-118110D03*
X2413386D03*
D21*
X11023622Y3084449D03*
D23*
X11141732Y2952756D03*
D21*
X787402Y6667126D03*
Y7178937D03*
D20*
X683071Y369291D03*
X616142D03*
X6127953Y4463780D03*
X6284252Y4567520D03*
X2755906Y7791339D03*
D23*
X5629921Y1929134D03*
D21*
X5511811Y1549016D03*
D20*
X7632283Y227559D03*
D24*
X7912992Y146063D03*
D20*
X852362Y5122047D03*
D24*
X826378Y5264173D03*
D20*
X2907874Y4255118D03*
X2974803D03*
X7151575Y2562992D03*
D23*
X7137795Y2440945D03*
D20*
X7938976Y4543307D03*
D23*
X7992126Y4488189D03*
D20*
X3134646Y984843D03*
X3214567Y960630D03*
Y5566929D03*
Y5633858D03*
X5576772Y448819D03*
Y515748D03*
D24*
X1613780Y657874D03*
D21*
X1574803Y525394D03*
D20*
X472441Y7724409D03*
Y7862205D03*
X11088583Y3007874D03*
X11008661Y2965157D03*
D23*
X7925197Y4488189D03*
D20*
X7938976Y4098425D03*
X7565354Y4255118D03*
X9207087Y227559D03*
X10301181Y6657480D03*
X8646457Y1941535D03*
X10131890Y548031D03*
X9344488Y369291D03*
X8646457Y2453346D03*
X10128346Y160630D03*
D24*
X8700394Y1681496D03*
D20*
X9140157Y4255118D03*
D24*
X10275197Y5264173D03*
D20*
X10714961Y93701D03*
X7766142Y4322047D03*
D21*
X8661417Y2060827D03*
X1574803Y7690748D03*
D20*
X1639764Y7614173D03*
X1259843Y7791339D03*
X8726378Y7614173D03*
X852362Y5055118D03*
D23*
X838583Y5000000D03*
D20*
X9344488Y302362D03*
X9140157Y160630D03*
X6284252Y3476969D03*
X852362Y3074803D03*
D23*
X905512Y2952756D03*
D20*
X2053543Y4322047D03*
X2254331Y4255118D03*
D23*
X1625984Y905512D03*
D20*
X1470472Y481102D03*
D21*
X7086614Y7690748D03*
D20*
X7151575Y7614173D03*
X6127953Y369291D03*
Y302362D03*
X3832677D03*
X3628346Y160630D03*
D24*
X4763386Y2193307D03*
D23*
X4842520Y1929134D03*
D20*
X11088583Y5122047D03*
D23*
X11074803Y5000000D03*
D20*
X852362Y2562992D03*
Y2496063D03*
X7071654Y4055709D03*
X6982283Y4860236D03*
X2187402Y4322047D03*
X2053543Y4255118D03*
X10714961Y4121260D03*
Y4322047D03*
X1181102Y7791339D03*
D23*
X3267717Y2440945D03*
X3200787Y2952756D03*
D20*
X9433858Y1496654D03*
Y1429724D03*
D23*
X3200787Y7047244D03*
D20*
X3214567Y7102362D03*
X7766142Y4255118D03*
X7699213Y4322047D03*
D23*
X1692913Y7559055D03*
D24*
X3975984Y4240551D03*
D20*
X3832677Y4575591D03*
Y4463780D03*
Y4396850D03*
D23*
X11141732Y7047244D03*
D20*
X11088583Y6590551D03*
D21*
X7086614Y6667126D03*
Y7178937D03*
D20*
X4789370Y4543307D03*
D23*
X4842520Y4488189D03*
D20*
X683071Y4927165D03*
D21*
X787402Y5131693D03*
D20*
X1470472Y369291D03*
X1403543D03*
D23*
X7925197Y6535433D03*
D20*
X7859055Y6547835D03*
X6284252Y5524213D03*
Y5591142D03*
X5270079Y227559D03*
D24*
X5550787Y146063D03*
D20*
X4789370Y7614173D03*
X9433858Y5079331D03*
X9513780Y5055118D03*
X1470472Y548031D03*
Y765748D03*
X6194882Y4575591D03*
Y4463780D03*
X2053543Y93701D03*
Y26772D03*
X6194882Y369291D03*
X3765748Y4463780D03*
D21*
X3937008Y4619882D03*
D24*
X8700394Y5775984D03*
D23*
X8712598Y7047244D03*
D24*
X10275197Y3728740D03*
D23*
X10354331Y3464567D03*
D20*
X4001969Y1027559D03*
Y1472441D03*
D23*
X7925197Y5511811D03*
D20*
X7859055Y6036024D03*
D21*
X5511811Y7690748D03*
D20*
X5576772Y7614173D03*
X5984252Y7862205D03*
X3214567Y5122047D03*
D24*
X3188583Y5264173D03*
D20*
X9513780Y4098425D03*
X9277559Y4396850D03*
X3922047Y4567520D03*
Y4500591D03*
X2257874Y369291D03*
X2190945D03*
D23*
X3267717Y7559055D03*
D20*
X5496850Y2965157D03*
Y3032087D03*
D24*
X7912992Y3216929D03*
D20*
X7859055Y406102D03*
X5340551Y4396850D03*
D24*
X5550787Y4240551D03*
D20*
X772441Y7126575D03*
Y7638386D03*
D24*
X5550787Y1681496D03*
Y2193307D03*
D20*
X478740Y93701D03*
Y26772D03*
X7859055Y4500591D03*
D23*
X8712598Y1929134D03*
D20*
X9433858Y3476969D03*
D23*
X7992126Y3464567D03*
X8779528Y4488189D03*
X9500000Y7559055D03*
D20*
X9433858Y6614764D03*
D24*
X9487795Y4240551D03*
D20*
X10301181Y5566929D03*
X10919291Y548031D03*
D21*
X8661417Y3084449D03*
D20*
X7938976Y5055118D03*
D23*
X9500000Y393701D03*
D20*
X5576772Y4098425D03*
D21*
X5511811Y4108071D03*
X1574803Y6667126D03*
Y7178937D03*
D20*
X3214567Y5055118D03*
D23*
X3200787Y5000000D03*
X905512Y-118110D03*
X838583D03*
D20*
X4789370Y7102362D03*
X4709449Y7059646D03*
D23*
X5562992Y2952756D03*
D20*
X5576772Y3007874D03*
D23*
X9566929Y7047244D03*
D20*
X9513780Y6590551D03*
X9433858Y2008465D03*
Y1941535D03*
X1400000Y160630D03*
Y227559D03*
X7859055Y6102953D03*
D21*
X7874016Y6155315D03*
D20*
X9433858Y984843D03*
D23*
X9566929Y393701D03*
X905512Y2440945D03*
X838583Y2952756D03*
D20*
X6284252Y-105709D03*
D23*
X6417323Y-118110D03*
D20*
X11008661Y2520276D03*
Y2453346D03*
X2427165Y5122047D03*
D24*
X2401181Y5264173D03*
D21*
X6299213Y3596260D03*
D20*
X6284252Y3988780D03*
D23*
X7204724Y5511811D03*
X7137795D03*
D20*
X3628346Y227559D03*
X3695276Y160630D03*
X3214567Y2562992D03*
Y2496063D03*
D21*
X6299213Y525394D03*
D20*
X6194882Y481102D03*
X772441Y5079331D03*
Y5012402D03*
X2974803Y160630D03*
Y227559D03*
D23*
X2480315Y5000000D03*
D21*
X2362205Y5643504D03*
D20*
X8646457Y1496654D03*
Y1429724D03*
D23*
X4055118Y6023622D03*
X3988189D03*
D20*
X1466929Y160630D03*
X1470472Y302362D03*
D23*
X8779528Y1417323D03*
X8712598D03*
D21*
X7086614Y525394D03*
D20*
X6982283Y481102D03*
D24*
X4763386Y7823228D03*
D20*
X4789370Y7681102D03*
D23*
X3988189Y5511811D03*
D20*
X3922047Y6036024D03*
X6978740Y227559D03*
X6911811Y160630D03*
X2427165Y3519685D03*
Y3586614D03*
X11088583D03*
X11008661Y3476969D03*
X3922047Y7638386D03*
D23*
X4055118Y7559055D03*
D24*
X3188583Y4752362D03*
Y3216929D03*
D20*
X5203150Y227559D03*
X5270079Y160630D03*
X5576772Y6657480D03*
D23*
X5629921Y6535433D03*
D24*
X9487795Y146063D03*
D20*
X9433858Y917913D03*
X4709449Y7638386D03*
D23*
X4842520Y7559055D03*
D20*
X11088583Y1472441D03*
Y1984252D03*
X3214567Y2051181D03*
D23*
X3200787Y1929134D03*
D20*
X7938976Y6078740D03*
D23*
X7992126Y6023622D03*
D20*
X10221260Y984843D03*
D23*
X10354331Y393701D03*
D20*
X2427165Y-62992D03*
Y3937D03*
D21*
X787402Y7690748D03*
D20*
X852362Y7614173D03*
D23*
X11074803Y4488189D03*
D20*
X11088583Y4610236D03*
X10221260Y2520276D03*
Y2453346D03*
X7859055Y5079331D03*
D23*
X9500000Y5511811D03*
D20*
X11088583Y448819D03*
X9513780Y1539370D03*
D23*
X8712598Y3464567D03*
D24*
X7912992Y1681496D03*
D20*
X7769685Y4927165D03*
Y4860236D03*
X8646457Y4055709D03*
X10301181Y2562992D03*
X8646457Y3543898D03*
X9433858Y2520276D03*
D23*
X10287402Y3976378D03*
D20*
X8726378Y2051181D03*
X8646457Y7059646D03*
X8557087Y832677D03*
X7151575Y2051181D03*
D21*
X7086614Y2060827D03*
D24*
X2401181Y6799606D03*
D20*
X2427165Y7169291D03*
X2974803Y4322047D03*
X2840945Y4255118D03*
X3762205D03*
X3695276Y4322047D03*
X3134646Y5079331D03*
Y5012402D03*
X1639764Y2051181D03*
D23*
X1625984Y1929134D03*
D20*
X3214567Y1472441D03*
Y1984252D03*
X4789370Y7169291D03*
D23*
X4775591Y7047244D03*
D20*
X4482677Y4322047D03*
X4549606Y4255118D03*
X2187402Y160630D03*
Y227559D03*
X5576772Y1539370D03*
D21*
X5511811Y2572638D03*
D24*
X3975984Y7823228D03*
D20*
X4001969Y7681102D03*
X6057480Y4255118D03*
Y4322047D03*
D24*
X7125591Y1681496D03*
Y2193307D03*
D20*
X6982283Y4575591D03*
Y4463780D03*
X8646457Y4567520D03*
D23*
X8712598Y4488189D03*
X5970472Y95669D03*
D20*
X9344488Y765748D03*
Y548031D03*
D21*
X3937008Y13583D03*
D20*
X4001969Y-62992D03*
X852362Y3007874D03*
X772441Y2965157D03*
X7151575Y1539370D03*
D21*
X7086614Y2572638D03*
D20*
X6364173Y1027559D03*
Y1472441D03*
D21*
X3937008Y7690748D03*
D20*
X2120472Y4322047D03*
X2053543Y4188189D03*
X2347244Y5591142D03*
Y5524213D03*
X5990551Y4188189D03*
Y4121260D03*
D21*
X4724409Y7178937D03*
D20*
X4709449Y7126575D03*
X3695276Y227559D03*
D24*
X3975984Y146063D03*
D20*
X3922047Y2965157D03*
Y3032087D03*
X3134646Y-38780D03*
Y-105709D03*
X10301181Y3937D03*
D24*
X4763386Y5264173D03*
D23*
X4842520Y5000000D03*
D24*
X3188583Y6799606D03*
D20*
X3214567Y7169291D03*
D24*
X5550787Y5775984D03*
D20*
X5576772Y7169291D03*
X10221260Y3476969D03*
X4709449Y7571457D03*
D23*
X4775591Y7559055D03*
D20*
X7071654Y-38780D03*
X10301181Y1539370D03*
D21*
X10236220Y2572638D03*
D24*
X7125591Y6799606D03*
D23*
X7137795Y6023622D03*
D20*
X772441Y3032087D03*
D21*
X787402Y3084449D03*
D20*
X2347244Y6036024D03*
X2427165Y6145669D03*
X6911811Y4255118D03*
X6978740Y4322047D03*
X1639764Y2562992D03*
Y2496063D03*
D23*
X7204724Y1417323D03*
X7137795D03*
D21*
X3937008Y7178937D03*
D20*
X3922047Y7126575D03*
D24*
X5550787Y6287795D03*
D20*
X5407480Y4642520D03*
X2190945Y302362D03*
X2254331Y227559D03*
X11008661Y5012402D03*
Y5079331D03*
X4620079Y4642520D03*
D24*
X4763386Y4752362D03*
D23*
X9500000Y6535433D03*
D20*
X9433858Y6547835D03*
D21*
X6299213Y7690748D03*
D20*
X6364173Y7614173D03*
D23*
X905512Y7559055D03*
D24*
X3188583Y3728740D03*
D21*
X3149606Y3596260D03*
D23*
X10354331Y6535433D03*
D21*
X10236220Y6667126D03*
D20*
X9207087Y4255118D03*
Y4322047D03*
X5496850Y2520276D03*
Y2453346D03*
X5905512Y7724409D03*
D24*
X5550787Y7823228D03*
D21*
X787402Y13583D03*
D23*
X4055118Y393701D03*
X3988189D03*
D24*
X7912992Y5775984D03*
D23*
X7925197Y7047244D03*
D20*
X5407480Y302362D03*
X5203150Y160630D03*
D21*
X6299213Y4619882D03*
D20*
X6194882Y4396850D03*
X10131890Y369291D03*
X7938976Y6145669D03*
D24*
X9487795Y1681496D03*
D20*
X8726378Y3007874D03*
X8352756Y4121260D03*
D21*
X8661417Y3596260D03*
D24*
X8700394Y3728740D03*
D21*
X9448819Y7690748D03*
D20*
X9433858Y3032087D03*
D21*
X8661417Y1037205D03*
X11023622Y525394D03*
D20*
X9994488Y160630D03*
D21*
X10236220Y6155315D03*
X7874016Y2572638D03*
D23*
X9566929Y5511811D03*
D20*
X8726378Y1984252D03*
D24*
X11062598Y657874D03*
Y7311417D03*
D20*
X11088583Y6078740D03*
X8726378Y3586614D03*
X7859055Y5524213D03*
X772441Y3543898D03*
Y3476969D03*
X1559843Y7059646D03*
X1639764Y6590551D03*
X1559843Y6614764D03*
Y6547835D03*
D24*
X826378Y7823228D03*
D20*
X4620079Y4860236D03*
Y4927165D03*
X8419685Y227559D03*
D24*
X8700394Y146063D03*
D21*
X3149606Y1549016D03*
D20*
X3214567Y1539370D03*
X3134646Y4055709D03*
X3045276Y4860236D03*
X4789370Y515748D03*
X4709449Y473031D03*
X852362Y-62992D03*
Y3937D03*
D23*
X4775591Y3976378D03*
D21*
X4724409Y3596260D03*
D24*
X3975984Y3216929D03*
D20*
X3922047Y984843D03*
D24*
X3188583Y1169685D03*
D20*
X3214567Y1027559D03*
D23*
X4775591Y6023622D03*
D21*
X4724409Y6155315D03*
D20*
X4789370Y960630D03*
X4709449Y406102D03*
X6284252Y7059646D03*
X6364173Y6590551D03*
D21*
X1574803Y1549016D03*
D20*
X1639764Y1539370D03*
X772441Y5591142D03*
Y5524213D03*
X1639764Y6657480D03*
D23*
X1692913Y6535433D03*
D20*
X8726378Y5122047D03*
D23*
X8779528Y5000000D03*
D20*
X8557087Y4463780D03*
Y4575591D03*
X7151575Y2496063D03*
D23*
X7204724Y2440945D03*
D20*
X6982283Y4396850D03*
D21*
X7086614Y4619882D03*
D24*
X11062598Y5264173D03*
D20*
X11088583Y5566929D03*
X11008661Y4567520D03*
Y4500591D03*
X5496850Y473031D03*
D24*
X5550787Y657874D03*
D20*
X6124409Y4255118D03*
X6191339Y4322047D03*
X772441Y3988780D03*
D23*
X838583Y3976378D03*
D20*
X2427165Y6078740D03*
D23*
X2480315Y6023622D03*
X7137795Y7047244D03*
D20*
X7151575Y7102362D03*
Y3007874D03*
D23*
X7137795Y2952756D03*
D24*
X826378Y3728740D03*
D21*
X787402Y3596260D03*
X6299213Y13583D03*
D20*
X5990551Y4255118D03*
X6124409Y4322047D03*
X6284252Y-38780D03*
D24*
X9487795Y6799606D03*
D23*
X9500000Y6023622D03*
D20*
X4709449Y6614764D03*
X4789370Y6657480D03*
X4001969Y448819D03*
Y515748D03*
X1181102Y7724409D03*
X5984252Y7791339D03*
X772441Y-38780D03*
Y-105709D03*
D23*
X3267717Y3464567D03*
X3200787D03*
D20*
X3214567Y4610236D03*
Y4543307D03*
D21*
X4724409Y5131693D03*
D20*
X4709449Y5012402D03*
D23*
X3200787Y6023622D03*
D20*
X3134646Y6102953D03*
D23*
X11074803Y3464567D03*
D20*
X11008661Y5591142D03*
D23*
X11141732Y5511811D03*
D21*
X9448819Y1037205D03*
D24*
X9487795Y1169685D03*
D23*
X4842520Y393701D03*
X4775591D03*
X6417323Y5511811D03*
X6350394D03*
X3200787Y7559055D03*
D24*
X3188583Y7311417D03*
D20*
X5984252Y7929134D03*
X3922047Y5591142D03*
D23*
X4055118Y5511811D03*
X5562992Y2440945D03*
D20*
X5576772Y2562992D03*
Y2496063D03*
D23*
X5629921Y2440945D03*
D24*
X2401181Y4752362D03*
Y3216929D03*
D20*
X6364173Y4098425D03*
D21*
X6299213Y4108071D03*
D20*
X852362Y5566929D03*
Y5633858D03*
D24*
X7912992Y2705118D03*
Y6799606D03*
D20*
X7859055Y7571457D03*
D24*
X7912992Y7823228D03*
D20*
X7859055Y7126575D03*
X11088583Y3074803D03*
X8352756Y4322047D03*
D24*
X8700394Y5264173D03*
D20*
X8726378Y4031496D03*
Y4543307D03*
D24*
X9487795Y2705118D03*
D23*
X9566929Y2440945D03*
D20*
X9513780Y3586614D03*
D23*
X7925197Y3464567D03*
X7992126Y7047244D03*
D20*
X393701Y7724409D03*
X472441Y7791339D03*
D21*
X9448819Y1549016D03*
D20*
X7859055Y7059646D03*
X8352756Y4188189D03*
X8419685Y4255118D03*
D21*
X9448819Y3596260D03*
D20*
X616142Y302362D03*
X679528Y227559D03*
D24*
X826378Y146063D03*
D20*
X772441Y917913D03*
D23*
X905512Y5000000D03*
D21*
X787402Y5643504D03*
D20*
X852362Y7681102D03*
X772441Y7571457D03*
X7769685Y4575591D03*
Y4396850D03*
X1559843Y406102D03*
D23*
X1692913Y393701D03*
D21*
X4724409Y7690748D03*
D20*
X545669Y160630D03*
Y227559D03*
X1639764Y3007874D03*
X1559843Y2965157D03*
D23*
X3200787Y1417323D03*
D21*
X3149606Y1037205D03*
D20*
X3214567Y3519685D03*
Y3586614D03*
X6364173Y-62992D03*
Y3937D03*
D23*
X8779528Y-118110D03*
X8712598D03*
D20*
X1559843Y3032087D03*
D21*
X1574803Y3084449D03*
D23*
X4842520Y6023622D03*
D20*
X4709449Y6102953D03*
X8726378Y515748D03*
X8646457Y473031D03*
D23*
X4775591Y5511811D03*
D20*
X4709449Y6036024D03*
X11088583Y2496063D03*
D23*
X11074803Y2440945D03*
D20*
X6777953Y227559D03*
X6844882Y160630D03*
X4789370Y4031496D03*
X4709449Y4055709D03*
X5337008Y227559D03*
X5403937Y160630D03*
D24*
X5550787Y2705118D03*
D23*
X5629921Y2952756D03*
D20*
X5203150Y4255118D03*
X5337008Y4322047D03*
X5203150D03*
X5403937Y4255118D03*
D24*
X5550787Y4752362D03*
Y3216929D03*
D20*
X7632283Y4322047D03*
X7699213Y4255118D03*
X5118110Y7791339D03*
X6284252Y4500591D03*
D23*
X6350394Y4488189D03*
D20*
X2047244Y7791339D03*
Y7862205D03*
X8553543Y4255118D03*
X8486614Y4322047D03*
X7071654Y6547835D03*
Y6614764D03*
X7938976Y1472441D03*
Y1984252D03*
X9433858Y-105709D03*
D23*
X10287402Y5000000D03*
X10354331D03*
D20*
X5496850Y2008465D03*
Y1941535D03*
X7071654Y2965157D03*
Y3032087D03*
X7151575Y1027559D03*
Y1472441D03*
X4001969Y3937D03*
X3922047Y-38780D03*
X7071654Y4500591D03*
D23*
X7137795Y4488189D03*
X905512Y3464567D03*
X838583D03*
D20*
X4616535Y4255118D03*
X4549606Y4322047D03*
X7151575Y6657480D03*
D23*
X7204724Y6535433D03*
D20*
X9344488Y4575591D03*
Y4396850D03*
X6284252Y2965157D03*
Y3032087D03*
D23*
X10354331Y5511811D03*
X10287402D03*
D20*
X5990551Y227559D03*
X6057480Y160630D03*
X4789370Y3937D03*
X7071654Y7638386D03*
X3622047Y7929134D03*
X3134646Y6614764D03*
Y6547835D03*
D24*
X7912992Y4752362D03*
D20*
X7938976Y960630D03*
X9140157Y4121260D03*
X8726378Y6078740D03*
X9433858Y3988780D03*
D23*
X9500000Y1417323D03*
D20*
X9140157Y4322047D03*
D24*
X8700394Y4240551D03*
D23*
X8712598Y5511811D03*
D21*
X8661417Y6155315D03*
D20*
X8557087Y548031D03*
D21*
X8661417Y6667126D03*
D24*
X9487795Y2193307D03*
D20*
X9513780Y6145669D03*
D21*
X10236220Y2060827D03*
D23*
X8712598Y393701D03*
D24*
X10275197Y6799606D03*
D20*
X10301181Y1984252D03*
X9433858Y7059646D03*
X-107874Y4255118D03*
D21*
X11023622Y2572638D03*
D20*
X10301181Y4543307D03*
X10919291Y481102D03*
X10131890Y4463780D03*
X7938976Y6590551D03*
X8419685Y4322047D03*
X-308661Y4188189D03*
X-174803Y4255118D03*
X-241732Y160630D03*
X-104331Y832677D03*
X-308661Y4121260D03*
Y227559D03*
Y160630D03*
X11706693Y4396850D03*
X-104331Y302362D03*
Y369291D03*
X-171260D03*
Y302362D03*
X-107874Y227559D03*
X-174803Y160630D03*
Y227559D03*
X-107874Y160630D03*
X-308661Y26772D03*
Y93701D03*
X-104331Y765748D03*
X11875984Y4610236D03*
X-241732Y4322047D03*
X-308661D03*
X-241732Y4255118D03*
X-308661D03*
X9927559Y227559D03*
D23*
X10287402Y393701D03*
D20*
X11008661Y4055709D03*
X9927559Y160630D03*
D24*
X10275197Y4752362D03*
Y7823228D03*
D23*
X10287402Y6023622D03*
D20*
X4709449Y1429724D03*
D23*
X4842520Y1417323D03*
D20*
X10128346Y227559D03*
X7938976Y7102362D03*
Y7614173D03*
X6364173Y7681102D03*
X6284252Y7571457D03*
X9344488Y481102D03*
D23*
X9500000Y905512D03*
D24*
X7125591Y7311417D03*
D23*
X7137795Y7559055D03*
D20*
X6364173Y1984252D03*
D23*
X6350394Y1929134D03*
D20*
X10131890Y302362D03*
X2347244Y2453346D03*
D23*
X2413386Y2440945D03*
X8779528Y3976378D03*
D21*
X3937008Y1037205D03*
D24*
X3975984Y1169685D03*
D20*
X10064961Y302362D03*
X3922047Y1496654D03*
Y1429724D03*
X9344488Y832677D03*
D23*
X11141732Y3976378D03*
D20*
X11088583Y2562992D03*
D24*
X11062598Y2193307D03*
D23*
X11074803Y1417323D03*
D24*
X11062598Y146063D03*
D21*
X10236220Y3596260D03*
D20*
X9927559Y4322047D03*
X10852362Y369291D03*
D23*
X11074803Y7559055D03*
Y6535433D03*
D20*
X393701Y7791339D03*
X11088583Y1539370D03*
D23*
X11141732Y2440945D03*
D20*
X11008661Y3032087D03*
X11088583Y3519685D03*
Y7614173D03*
X10128346Y4322047D03*
X10301181Y-62992D03*
X10064961Y4463780D03*
X5270079Y4255118D03*
Y4322047D03*
D23*
X11141732Y7559055D03*
D20*
X11008661Y7638386D03*
X3134646Y4500591D03*
D23*
X3200787Y4488189D03*
D20*
X3214567Y6078740D03*
D23*
X3267717Y6023622D03*
D20*
X1559843Y7126575D03*
Y7638386D03*
X7071654Y6036024D03*
X7151575Y6145669D03*
X2120472Y160630D03*
Y227559D03*
X5576772Y1984252D03*
D23*
X5562992Y1929134D03*
D20*
X1639764Y3074803D03*
D23*
X1692913Y2952756D03*
D20*
X7071654Y-105709D03*
D23*
X7204724Y-118110D03*
D24*
X1613780Y2705118D03*
D23*
X1692913Y3976378D03*
X905512Y5511811D03*
X838583D03*
D20*
X545669Y4255118D03*
X612598D03*
X545669Y4322047D03*
X478740Y4188189D03*
Y160630D03*
Y227559D03*
X9433858Y4500591D03*
X9513780Y4610236D03*
X7071654Y3476969D03*
X772441Y6036024D03*
X852362Y6145669D03*
X7071654Y3543898D03*
X7151575Y3586614D03*
D21*
X7086614Y3596260D03*
D20*
X7071654Y3988780D03*
Y5012402D03*
Y5079331D03*
X1559843Y984843D03*
X1639764Y960630D03*
D23*
X10287402Y4488189D03*
D20*
X10301181Y4610236D03*
X6284252Y4055709D03*
X6194882Y4860236D03*
X7071654Y2008465D03*
Y1941535D03*
X8646457Y3476969D03*
X3134646Y1429724D03*
D23*
X3267717Y1417323D03*
X3200787Y3976378D03*
D20*
X3134646Y3988780D03*
Y2453346D03*
D23*
X3200787Y2440945D03*
D20*
X10061417Y227559D03*
Y160630D03*
X4620079Y548031D03*
Y765748D03*
D24*
X3188583Y2193307D03*
D23*
X3267717Y1929134D03*
D20*
X9513780Y7614173D03*
D24*
X9487795Y7823228D03*
D20*
X9927559Y93701D03*
Y26772D03*
X5407480Y4575591D03*
Y4463780D03*
D21*
X11023622Y1549016D03*
D23*
X11141732Y1929134D03*
D20*
X5340551Y4463780D03*
X5496850Y4567520D03*
X3214567Y7681102D03*
X3134646Y7571457D03*
X5496850Y917913D03*
D23*
X5629921Y905512D03*
D24*
X3188583Y2705118D03*
D23*
X3267717Y3976378D03*
D20*
X6284252Y5012402D03*
Y5079331D03*
X3922047Y-105709D03*
D23*
X4055118Y-118110D03*
D21*
X5511811Y6667126D03*
Y7178937D03*
D20*
X3622047Y7724409D03*
X679528Y160630D03*
X683071Y302362D03*
D23*
X4775591Y6535433D03*
D20*
X4709449Y6547835D03*
D21*
X4724409Y2060827D03*
D20*
X4709449Y2008465D03*
D23*
X1625984Y393701D03*
D20*
X852362Y6078740D03*
D23*
X905512Y6023622D03*
Y905512D03*
D20*
X852362Y448819D03*
X8646457Y6547835D03*
Y6614764D03*
D23*
X838583Y6023622D03*
D20*
X772441Y6102953D03*
X6844882Y4255118D03*
Y4322047D03*
D21*
X1574803Y4619882D03*
D20*
X1559843Y4567520D03*
X6364173Y5055118D03*
D23*
X6350394Y5000000D03*
D20*
X9344488Y4927165D03*
D21*
X9448819Y5131693D03*
D20*
X7071654Y984843D03*
D23*
X7204724Y393701D03*
X4842520Y2952756D03*
Y3976378D03*
D20*
X8646457Y6036024D03*
X8726378Y6145669D03*
X3045276Y832677D03*
X3134646Y1496654D03*
X6284252Y917913D03*
D23*
X6417323Y905512D03*
D20*
X6284252Y473031D03*
D24*
X6338189Y657874D03*
D20*
X852362Y515748D03*
X772441Y473031D03*
X10131890Y4396850D03*
Y4575591D03*
D23*
X7992126Y7559055D03*
D20*
X7859055Y7638386D03*
X3134646Y7059646D03*
X3214567Y6590551D03*
D23*
X7992126Y6535433D03*
D21*
X7874016Y6667126D03*
D20*
X5196850Y7929134D03*
X7702756Y4396850D03*
D21*
X7874016Y4108071D03*
D20*
X10848819Y160630D03*
X10915748D03*
X1470472Y4396850D03*
X1403543Y4463780D03*
X1470472Y4575591D03*
Y4463780D03*
X4789370Y1472441D03*
Y1984252D03*
X5576772Y7681102D03*
X5496850Y7571457D03*
D23*
X7992126Y5000000D03*
D24*
X7912992Y5264173D03*
D20*
X679528Y4322047D03*
X478740Y4121260D03*
X6777953Y4188189D03*
Y4121260D03*
X7151575Y5055118D03*
D23*
X7137795Y5000000D03*
D20*
X7071654Y5524213D03*
Y5591142D03*
D21*
X787402Y6155315D03*
D24*
X826378Y5775984D03*
X7125591Y5264173D03*
D21*
X7086614Y5643504D03*
D24*
X2401181Y146063D03*
D20*
X2347244Y917913D03*
D21*
X10236220Y525394D03*
D20*
X10131890Y481102D03*
X6284252Y7126575D03*
D23*
X6417323Y7559055D03*
X4842520Y6535433D03*
D21*
X4724409Y6667126D03*
D24*
X7125591Y6287795D03*
D20*
X6982283Y4642520D03*
D23*
X6350394Y905512D03*
D20*
X6194882Y548031D03*
X4789370Y6145669D03*
Y6078740D03*
X6194882Y832677D03*
X6284252Y1429724D03*
D21*
X8661417Y7178937D03*
D20*
X8646457Y7126575D03*
D24*
X826378Y657874D03*
D21*
X787402Y525394D03*
D23*
X838583Y905512D03*
D20*
X683071Y481102D03*
X8646457Y-38780D03*
X8726378Y3937D03*
X5407480Y369291D03*
X5203150Y26772D03*
X10221260Y5012402D03*
Y5079331D03*
X5118110Y7724409D03*
D23*
X2480315Y905512D03*
D20*
X2427165Y448819D03*
X3045276Y548031D03*
Y765748D03*
D23*
X6417323Y1417323D03*
X6350394D03*
X10287402Y2440945D03*
X10354331D03*
D20*
X2907874Y4322047D03*
X2840945Y4188189D03*
X10221260Y7571457D03*
D24*
X10275197Y6287795D03*
X4763386Y1169685D03*
D20*
X4789370Y1027559D03*
D21*
X6299213Y1037205D03*
D24*
X6338189Y1169685D03*
D20*
X1403543Y4396850D03*
D24*
X1613780Y4240551D03*
D20*
X5496850Y4500591D03*
D23*
X5562992Y4488189D03*
D20*
X7859055Y3032087D03*
D21*
X7874016Y3084449D03*
X4724409Y13583D03*
D20*
X4789370Y-62992D03*
D23*
X6350394Y7047244D03*
D20*
X6364173Y7102362D03*
D21*
X9448819Y4619882D03*
D20*
X9277559Y4463780D03*
D23*
X5629921Y4488189D03*
D20*
X5576772Y4031496D03*
X772441Y2453346D03*
D23*
X838583Y2440945D03*
D20*
X683071Y548031D03*
Y765748D03*
D24*
X6338189Y5264173D03*
D21*
X6299213Y5643504D03*
D23*
X7137795Y-118110D03*
D20*
X6777953Y93701D03*
X5407480Y4927165D03*
D21*
X5511811Y5131693D03*
X787402Y2572638D03*
D20*
X772441Y2520276D03*
X4709449Y-38780D03*
Y-105709D03*
D21*
X10236220Y5643504D03*
D20*
X10301181Y5633858D03*
X9513780Y7681102D03*
D24*
X9487795Y7311417D03*
D23*
X8712598Y2440945D03*
D20*
X8726378Y2496063D03*
X8646457Y2965157D03*
Y3032087D03*
D23*
X11141732Y-118110D03*
X11074803D03*
D20*
X10221260Y3543898D03*
X10301181Y3586614D03*
X5576772Y1027559D03*
Y1472441D03*
X7151575Y-62992D03*
Y3937D03*
X2427165Y515748D03*
X2347244Y473031D03*
D23*
X905512Y4488189D03*
D20*
X852362Y4031496D03*
X7151575Y1984252D03*
D23*
X7137795Y1929134D03*
D20*
X612598Y160630D03*
Y227559D03*
X4789370Y6590551D03*
D23*
X4842520Y7047244D03*
D20*
X2840945Y4322047D03*
X3041732Y4255118D03*
D23*
X5562992Y7047244D03*
D20*
X5576772Y7102362D03*
X852362Y4610236D03*
Y4543307D03*
D21*
X7874016Y5131693D03*
D20*
X7859055Y5012402D03*
X478740Y4322047D03*
X679528Y4255118D03*
D21*
X11023622Y3596260D03*
D20*
X10781890Y4322047D03*
X612598D03*
X478740Y4255118D03*
X5407480Y832677D03*
X5496850Y1429724D03*
D23*
X10287402Y6535433D03*
D20*
X10221260Y6547835D03*
X7151575Y5122047D03*
D23*
X7204724Y5000000D03*
D20*
X4001969Y7614173D03*
D23*
X2413386Y905512D03*
D20*
X2257874Y481102D03*
X6364173Y5122047D03*
D23*
X6417323Y5000000D03*
D20*
X3214567Y4098425D03*
D21*
X3149606Y4108071D03*
D23*
X3267717Y7047244D03*
X3200787Y6535433D03*
D24*
X826378Y6799606D03*
D20*
X852362Y7169291D03*
X4709449Y1941535D03*
D24*
X4763386Y1681496D03*
D20*
X6284252Y6036024D03*
X6364173Y6145669D03*
X7859055Y2520276D03*
X7938976Y2562992D03*
D23*
X4775591Y4488189D03*
D20*
X4789370Y4610236D03*
X7071654Y7059646D03*
X7151575Y6590551D03*
X9433858Y2453346D03*
D23*
X9500000Y2440945D03*
D20*
X6364173Y7169291D03*
D24*
X6338189Y5775984D03*
D20*
X772441Y4500591D03*
D23*
X838583Y4488189D03*
D21*
X5511811Y3596260D03*
D20*
X5496850Y3988780D03*
D23*
X7992126Y1929134D03*
D21*
X7874016Y1549016D03*
D20*
X7071654Y6102953D03*
D21*
X7086614Y6155315D03*
D20*
X4789370Y3074803D03*
D24*
X4763386Y2705118D03*
D20*
X1639764Y4098425D03*
D21*
X1574803Y4108071D03*
D23*
X4775591Y1417323D03*
D21*
X4724409Y1037205D03*
D23*
X6417323Y3464567D03*
X6350394D03*
D20*
X8726378Y5055118D03*
D23*
X8712598Y5000000D03*
D21*
X11023622Y1037205D03*
D24*
X11062598Y1169685D03*
D23*
X7137795Y393701D03*
D20*
X8646457Y984843D03*
D23*
X8779528Y393701D03*
X11074803D03*
D20*
X6364173Y2051181D03*
D21*
X6299213Y2060827D03*
D20*
X8726378Y960630D03*
D24*
X8700394Y3216929D03*
D20*
X7151575Y5566929D03*
Y5633858D03*
D24*
X10275197Y4240551D03*
D21*
X10236220Y4108071D03*
D23*
X7204724Y3464567D03*
X7137795D03*
D20*
X9994488Y227559D03*
D24*
X10275197Y146063D03*
D20*
X10848819Y4322047D03*
X10714961Y4255118D03*
X8646457Y917913D03*
D23*
X8779528Y905512D03*
D20*
X683071Y832677D03*
X772441Y1496654D03*
D23*
X5562992Y-118110D03*
D20*
X5203150Y93701D03*
D23*
X10287402Y1929134D03*
D20*
X10301181Y2051181D03*
X5196850Y7862205D03*
X10848819Y4255118D03*
X10915748Y4322047D03*
D21*
X11023622Y13583D03*
D20*
X11008661Y-38780D03*
X1266142Y4322047D03*
X1466929Y4255118D03*
X3134646Y7126575D03*
Y7638386D03*
D21*
X11023622Y5643504D03*
D20*
X11088583Y5633858D03*
D23*
X6417323Y7047244D03*
X6350394Y6535433D03*
D20*
X5196850Y7791339D03*
X7151575Y960630D03*
X7071654Y406102D03*
X2347244Y5079331D03*
Y5012402D03*
X6284252Y2008465D03*
Y1941535D03*
X7769685Y832677D03*
X7859055Y1496654D03*
D23*
X4055118Y3976378D03*
D20*
X4001969Y3519685D03*
D24*
X5550787Y5264173D03*
D21*
X5511811Y5643504D03*
D20*
X5496850Y-105709D03*
D23*
X5629921Y-118110D03*
D20*
X6284252Y6547835D03*
Y6614764D03*
D23*
X5629921Y3464567D03*
X5562992D03*
D20*
X7859055Y2453346D03*
D23*
X7925197Y2440945D03*
D21*
X3937008Y5131693D03*
D20*
X3922047Y5012402D03*
X2978346Y4396850D03*
D24*
X3188583Y4240551D03*
D20*
X3134646Y5591142D03*
Y5524213D03*
D21*
X11023622Y7690748D03*
D24*
X2401181Y657874D03*
D21*
X2362205Y525394D03*
X7086614Y3084449D03*
D20*
X7151575Y3074803D03*
X6982283Y369291D03*
X6777953Y26772D03*
X2053543Y160630D03*
Y227559D03*
D21*
X5511811Y4619882D03*
D20*
X5407480Y4396850D03*
X6982283Y832677D03*
X7071654Y1429724D03*
D24*
X1613780Y6287795D03*
D20*
X1470472Y4642520D03*
X1639764Y3519685D03*
Y3586614D03*
X7938976Y3937D03*
D23*
X4055118Y6535433D03*
D21*
X3937008Y6667126D03*
D20*
X4709449Y4567520D03*
Y4500591D03*
D21*
X4724409Y5643504D03*
D20*
X4789370Y5566929D03*
X4620079Y369291D03*
X4553150Y302362D03*
D24*
X4763386Y6799606D03*
Y5775984D03*
D20*
X2347244Y984843D03*
X2427165Y960630D03*
X9513780Y-62992D03*
Y3937D03*
D24*
X8700394Y2705118D03*
D20*
X8726378Y3519685D03*
D23*
X1625984Y7559055D03*
D24*
X1613780Y7311417D03*
D20*
X1403543Y302362D03*
X1466929Y227559D03*
D23*
X9500000Y7047244D03*
D20*
X9513780Y7102362D03*
X5576772Y3586614D03*
X5496850Y3543898D03*
X2254331Y160630D03*
X2257874Y302362D03*
X11088583Y7169291D03*
Y7102362D03*
X8352756Y4255118D03*
X8726378Y4098425D03*
X6364173Y4610236D03*
Y4543307D03*
X10221260Y-105709D03*
D23*
X10354331Y-118110D03*
D21*
X10236220Y13583D03*
D20*
X10221260Y-38780D03*
D24*
X9487795Y3216929D03*
D20*
X9433858Y406102D03*
X6124409Y227559D03*
X6191339Y160630D03*
X5496850Y406102D03*
D23*
X5629921Y393701D03*
X10287402Y7559055D03*
D20*
X10131890Y4642520D03*
X10301181Y7681102D03*
D24*
X10275197Y7311417D03*
D23*
X838583Y7559055D03*
D24*
X826378Y7311417D03*
D23*
X1692913Y905512D03*
D20*
X1639764Y448819D03*
D24*
X5550787Y3728740D03*
D23*
X5562992Y3976378D03*
D20*
X10301181Y3519685D03*
D23*
X10354331Y3976378D03*
X5562992Y393701D03*
D24*
X11062598Y6799606D03*
D23*
X11074803Y6023622D03*
D20*
X8646457Y5012402D03*
Y5079331D03*
D23*
X1692913Y7047244D03*
X1625984Y6535433D03*
D20*
X8352756Y227559D03*
X8419685Y160630D03*
D23*
X7204724Y3976378D03*
D20*
X7151575Y3519685D03*
D21*
X2362205Y1549016D03*
D20*
X2427165Y1539370D03*
D23*
X9566929Y905512D03*
D24*
X11062598Y3728740D03*
Y4240551D03*
D20*
X1259843Y7724409D03*
X9513780Y1984252D03*
X8557087Y4396850D03*
X9513780Y6657480D03*
D23*
X9566929Y1929134D03*
X9500000Y3976378D03*
D20*
X9513780Y3074803D03*
X8490157Y302362D03*
X9433858Y6036024D03*
X10301181Y1472441D03*
X10221260Y7059646D03*
X10301181Y448819D03*
X8646457Y-105709D03*
Y3988780D03*
X10221260Y917913D03*
D23*
X11074803Y3976378D03*
D21*
X10236220Y1037205D03*
D23*
X10354331Y7559055D03*
D20*
X8557087Y4642520D03*
D21*
X11023622Y4619882D03*
D20*
X8553543Y227559D03*
X10919291Y4642520D03*
D23*
X9500000Y3464567D03*
D20*
X9274016Y4255118D03*
X9513780Y1027559D03*
X10301181Y5055118D03*
D21*
X9448819Y4108071D03*
D20*
X9140157Y93701D03*
X9277559Y302362D03*
X11088583Y5055118D03*
X9513780Y448819D03*
D21*
X9448819Y5643504D03*
Y525394D03*
D20*
X8352756Y26772D03*
X8726378Y2562992D03*
D24*
X11062598Y2705118D03*
D20*
X8646457Y406102D03*
X11008661Y3543898D03*
X11088583Y4031496D03*
X8490157Y369291D03*
X8646457Y2520276D03*
D23*
X11141732Y5000000D03*
D20*
X11088583Y6145669D03*
X11008661Y5524213D03*
D24*
X8700394Y4752362D03*
D20*
X9340945Y4322047D03*
D23*
X9566929Y1417323D03*
D20*
X10301181Y6145669D03*
Y5122047D03*
X8726378Y7169291D03*
X10301181Y6590551D03*
D23*
X8712598Y7559055D03*
D21*
X8661417Y1549016D03*
D20*
X9274016Y4322047D03*
D24*
X8700394Y6287795D03*
D20*
X9140157Y4188189D03*
X9433858Y473031D03*
X9340945Y4255118D03*
X8726378Y7102362D03*
X11088583Y1027559D03*
D21*
X11023622Y4108071D03*
D20*
X7938976Y515748D03*
X7859055Y473031D03*
X10131890Y832677D03*
X10221260Y1496654D03*
D24*
X3188583Y7823228D03*
D20*
X11088583Y6657480D03*
D23*
X3267717Y5511811D03*
X3200787D03*
X8712598Y905512D03*
D20*
X8557087Y765748D03*
X6284252Y406102D03*
D23*
X6417323Y393701D03*
Y1929134D03*
D21*
X6299213Y1549016D03*
D20*
X1259843Y7862205D03*
Y7929134D03*
X3214567Y6657480D03*
D23*
X3267717Y6535433D03*
X11074803Y905512D03*
D20*
X10919291Y832677D03*
X3832677Y481102D03*
Y548031D03*
X3829134Y227559D03*
X3762205Y160630D03*
D23*
X8779528Y3464567D03*
X8712598Y3976378D03*
D20*
X5576772Y5055118D03*
D23*
X5562992Y5000000D03*
D20*
X2427165Y1472441D03*
Y1984252D03*
D23*
X5562992Y905512D03*
D20*
X5407480Y548031D03*
D21*
X7874016Y5643504D03*
D20*
X7938976Y5566929D03*
X9433858Y4567520D03*
D23*
X9500000Y4488189D03*
D20*
X1470472Y4927165D03*
D21*
X1574803Y5131693D03*
D20*
X4709449Y5591142D03*
D23*
X4842520Y5511811D03*
D21*
X5511811Y13583D03*
D24*
X4763386Y4240551D03*
D20*
X4620079Y4575591D03*
D23*
X1625984Y7047244D03*
D20*
X1639764Y7102362D03*
X4709449Y3543898D03*
Y3476969D03*
X4789370Y3007874D03*
X4709449Y2965157D03*
X4789370Y5633858D03*
X4709449Y5524213D03*
D21*
X2362205Y2572638D03*
D20*
X2347244Y2520276D03*
D23*
X838583Y7047244D03*
D20*
X852362Y7102362D03*
X10221260Y3988780D03*
X9994488Y4255118D03*
X2427165Y3007874D03*
X2347244Y2965157D03*
X3041732Y4322047D03*
X2840945Y4121260D03*
X6915354Y369291D03*
Y302362D03*
D24*
X8700394Y6799606D03*
D23*
X8712598Y6023622D03*
D24*
X8700394Y657874D03*
D21*
X8661417Y525394D03*
D20*
X9340945Y227559D03*
X9274016D03*
X7151575Y7681102D03*
X7071654Y7571457D03*
X9274016Y160630D03*
X9340945D03*
D23*
X8779528Y6023622D03*
D20*
X8646457Y6102953D03*
X5496850Y5524213D03*
Y5591142D03*
D24*
X1613780Y6799606D03*
D20*
X1639764Y7169291D03*
X6364173Y6657480D03*
D23*
X6417323Y6535433D03*
X7204724Y4488189D03*
D20*
X7151575Y4031496D03*
D24*
X4763386Y3216929D03*
D20*
X4709449Y984843D03*
X10781890Y160630D03*
X11008661Y917913D03*
X7565354Y227559D03*
X7632283Y160630D03*
X6364173Y1539370D03*
D21*
X6299213Y2572638D03*
D23*
X6350394Y393701D03*
D20*
X2427165Y5566929D03*
Y5633858D03*
X6284252Y2520276D03*
Y2453346D03*
X772441Y1429724D03*
D23*
X905512Y1417323D03*
D20*
X5203150Y4188189D03*
Y4121260D03*
X4001969Y7169291D03*
D23*
X3988189Y7047244D03*
D20*
X10848819Y227559D03*
X8646457Y2008465D03*
X8486614Y227559D03*
X9513780Y1472441D03*
D23*
X9500000Y1929134D03*
D24*
X10275197Y1681496D03*
D23*
X10287402Y1417323D03*
X10354331Y905512D03*
D20*
X11088583Y3937D03*
D23*
X8712598Y6535433D03*
D21*
X8661417Y7690748D03*
D20*
X5496850Y6036024D03*
X5576772Y6145669D03*
X10301181Y3007874D03*
D23*
X10287402Y2952756D03*
D21*
X10236220Y4619882D03*
D20*
X10221260Y4567520D03*
X7480315Y7724409D03*
X5340551Y369291D03*
Y302362D03*
D23*
X3200787Y393701D03*
D21*
X3149606Y4619882D03*
D20*
X3134646Y4567520D03*
X7859055Y984843D03*
D23*
X7992126Y393701D03*
D20*
X8490157Y4396850D03*
D21*
X8661417Y4108071D03*
D20*
X9344488Y4642520D03*
D24*
X9487795Y4752362D03*
D21*
X3149606Y13583D03*
X3937008Y525394D03*
D23*
X3988189Y905512D03*
D24*
X6338189Y1681496D03*
Y2193307D03*
D23*
X7925197Y6023622D03*
D20*
X7938976Y7169291D03*
D23*
X9566929Y6535433D03*
D21*
X9448819Y6667126D03*
D20*
X8726378Y5633858D03*
X8646457Y5524213D03*
D21*
X6299213Y6667126D03*
Y7178937D03*
D20*
X1559843Y5079331D03*
Y5012402D03*
X5576772Y-62992D03*
Y3937D03*
X4620079Y4463780D03*
Y4396850D03*
D21*
X1574803Y6155315D03*
D24*
X1613780Y5775984D03*
D20*
X6194882Y302362D03*
X5990551Y160630D03*
D24*
X2401181Y2193307D03*
D23*
X2480315Y1929134D03*
D20*
X772441Y7059646D03*
X852362Y6590551D03*
D21*
X787402Y4619882D03*
D20*
X772441Y4567520D03*
Y4055709D03*
X683071Y4860236D03*
Y4396850D03*
X616142Y4463780D03*
D23*
X838583Y1417323D03*
D21*
X787402Y1037205D03*
D20*
X5496850Y4055709D03*
X5407480Y4860236D03*
D21*
X7086614Y1037205D03*
D24*
X7125591Y1169685D03*
D20*
X852362Y6657480D03*
D23*
X905512Y6535433D03*
D20*
X6915354Y4396850D03*
D24*
X7125591Y4240551D03*
D20*
X7151575Y4098425D03*
D21*
X7086614Y4108071D03*
X9448819Y13583D03*
D20*
X9433858Y-38780D03*
X6982283Y765748D03*
X7071654Y1496654D03*
X5984252Y7724409D03*
X5576772Y6078740D03*
D23*
X5629921Y6023622D03*
X1625984D03*
D20*
X1559843Y6102953D03*
D23*
X2413386Y1417323D03*
D21*
X2362205Y1037205D03*
D20*
X6364173Y960630D03*
X6284252Y984843D03*
D23*
X9566929Y5000000D03*
D24*
X9487795Y5264173D03*
X3188583Y657874D03*
D21*
X3149606Y525394D03*
D20*
X6364173Y2562992D03*
D23*
X6350394Y2440945D03*
D24*
X8700394Y2193307D03*
D23*
X8779528Y1929134D03*
D20*
X3832677Y4642520D03*
D24*
X3975984Y4752362D03*
D20*
X5576772Y5566929D03*
Y5633858D03*
D24*
X826378Y1169685D03*
D20*
X852362Y1027559D03*
D23*
X3988189Y3464567D03*
D24*
X3975984Y3728740D03*
D20*
X6364173Y3007874D03*
D23*
X6350394Y2952756D03*
D20*
X6364173Y6078740D03*
D23*
X6417323Y6023622D03*
D24*
X826378Y6287795D03*
D20*
X683071Y4642520D03*
X10064961Y369291D03*
X2047244Y7929134D03*
X8726378Y448819D03*
X9344488Y4463780D03*
X9433858Y5012402D03*
X8557087Y481102D03*
D23*
X11074803Y1929134D03*
D20*
X7938976Y4031496D03*
X7859055Y4055709D03*
D24*
X8700394Y1169685D03*
D20*
X8726378Y1027559D03*
X5496850Y6547835D03*
Y6614764D03*
Y984843D03*
X5576772Y960630D03*
X10221260Y7638386D03*
D21*
X10236220Y7690748D03*
D23*
X9566929Y6023622D03*
D20*
X9433858Y6102953D03*
X9513780Y7169291D03*
D24*
X9487795Y5775984D03*
D20*
X9513780Y515748D03*
D24*
X9487795Y657874D03*
D20*
X6777953Y4255118D03*
X6911811Y4322047D03*
D21*
X3149606Y7690748D03*
D20*
X3214567Y7614173D03*
Y3074803D03*
D23*
X3267717Y2952756D03*
D20*
X3045276Y4575591D03*
Y4463780D03*
D24*
X6338189Y4752362D03*
Y3216929D03*
D23*
X4055118Y1417323D03*
X3988189D03*
D20*
X3765748Y369291D03*
Y302362D03*
D23*
X9566929Y4488189D03*
D20*
X9513780Y4031496D03*
D23*
X5562992Y7559055D03*
D24*
X5550787Y7311417D03*
D20*
X7151575Y4610236D03*
Y4543307D03*
D24*
X2401181Y1169685D03*
D20*
X2427165Y1027559D03*
D21*
X2362205Y13583D03*
D24*
X6338189Y7311417D03*
D23*
X6350394Y7559055D03*
D20*
X10919291Y4575591D03*
X10852362Y4463780D03*
X7859055Y-105709D03*
D23*
X7992126Y-118110D03*
D20*
X10221260Y1429724D03*
D23*
X10354331Y1417323D03*
D20*
X9513780Y2051181D03*
D21*
X9448819Y2060827D03*
D20*
X5496850Y-38780D03*
X1559843Y6036024D03*
X1639764Y6145669D03*
X9140157Y227559D03*
X9207087Y160630D03*
D21*
X2362205Y2060827D03*
D20*
X2347244Y2008465D03*
X772441Y6614764D03*
Y6547835D03*
D23*
X6417323Y4488189D03*
D20*
X6364173Y4031496D03*
X683071Y4575591D03*
Y4463780D03*
D21*
X4724409Y2572638D03*
D20*
X4709449Y2520276D03*
D24*
X826378Y4240551D03*
D20*
X616142Y4396850D03*
D21*
X787402Y1549016D03*
D20*
X852362Y1539370D03*
X3622047Y7791339D03*
X6777953Y4322047D03*
X6978740Y4255118D03*
X7151575Y7169291D03*
D24*
X7125591Y5775984D03*
D20*
X7151575Y6078740D03*
D23*
X7204724Y6023622D03*
D20*
X7565354Y4188189D03*
Y4121260D03*
X7938976Y3074803D03*
D23*
X7992126Y2952756D03*
X5629921Y7559055D03*
D20*
X5905512Y7791339D03*
X7071654Y917913D03*
D23*
X7204724Y905512D03*
X5629921Y7047244D03*
X5562992Y6535433D03*
D20*
X1639764Y6078740D03*
D23*
X1692913Y6023622D03*
D20*
X4409449Y7862205D03*
D24*
X6338189Y7823228D03*
D20*
X2257874Y548031D03*
Y765748D03*
X5403937Y227559D03*
X5337008Y160630D03*
D24*
X6338189Y6287795D03*
D20*
X6194882Y4642520D03*
D23*
X7925197Y393701D03*
X3200787Y905512D03*
D20*
X3045276Y481102D03*
X10301181Y515748D03*
D24*
X10275197Y657874D03*
X826378Y2193307D03*
D23*
X905512Y1929134D03*
X3267717Y4488189D03*
D20*
X3214567Y4031496D03*
X5990551Y4322047D03*
X6191339Y4255118D03*
D24*
X6338189Y3728740D03*
D23*
X6350394Y3976378D03*
D20*
X852362Y1472441D03*
Y1984252D03*
X10064961Y4396850D03*
D21*
X8661417Y5131693D03*
D20*
X8352756Y160630D03*
D23*
X11074803Y2952756D03*
D20*
X1968504Y7791339D03*
X9433858Y4055709D03*
D23*
X11141732Y6023622D03*
D20*
X7859055Y2008465D03*
Y1941535D03*
X5496850Y7059646D03*
X5576772Y6590551D03*
X9433858Y7126575D03*
D21*
X9448819Y7178937D03*
X1574803Y13583D03*
D20*
X1639764Y-62992D03*
Y3937D03*
X1559843Y-38780D03*
Y-105709D03*
D24*
X11062598Y7823228D03*
D20*
X11088583Y7681102D03*
X3134646Y406102D03*
D23*
X3267717Y393701D03*
D20*
X3134646Y3032087D03*
D21*
X3149606Y3084449D03*
D20*
X3045276Y4396850D03*
X2978346Y4463780D03*
X3134646Y6036024D03*
X3214567Y6145669D03*
D23*
X6417323Y3976378D03*
D20*
X6364173Y3519685D03*
X3214567Y515748D03*
X3134646Y473031D03*
X6284252Y7638386D03*
X4409449Y7791339D03*
X2840945Y160630D03*
Y227559D03*
X4482677Y160630D03*
Y227559D03*
D24*
X11062598Y3216929D03*
D20*
X11008661Y406102D03*
D21*
X7874016Y3596260D03*
D20*
X7859055Y3988780D03*
D23*
X3267717Y5000000D03*
D21*
X3149606Y5643504D03*
D20*
X5496850Y3476969D03*
D21*
X5511811Y6155315D03*
D24*
X5550787Y6799606D03*
D20*
X3922047Y917913D03*
D23*
X4055118Y905512D03*
D20*
X10919291Y4463780D03*
Y4396850D03*
X2907874Y160630D03*
Y227559D03*
X2427165Y2051181D03*
D23*
X2413386Y1929134D03*
D24*
X7912992Y3728740D03*
D23*
X7925197Y3976378D03*
D20*
X10221260Y5524213D03*
Y5591142D03*
X1639764Y5566929D03*
Y5633858D03*
D23*
X7204724Y7047244D03*
X7137795Y6535433D03*
D21*
X4724409Y4619882D03*
D20*
X4553150Y4463780D03*
D21*
X4724409Y4108071D03*
D20*
X4553150Y4396850D03*
X2347244Y1941535D03*
D24*
X2401181Y1681496D03*
D20*
X852362Y4098425D03*
D21*
X787402Y4108071D03*
D20*
X852362Y2051181D03*
D23*
X838583Y1929134D03*
D20*
X6911811Y227559D03*
X6978740Y160630D03*
X7702756Y369291D03*
Y302362D03*
X9513780Y5122047D03*
D23*
X9500000Y5000000D03*
D20*
X11008661Y3988780D03*
X10781890Y4255118D03*
D23*
X905512Y7047244D03*
X838583Y6535433D03*
D20*
X8726378Y6657480D03*
D23*
X8779528Y6535433D03*
D20*
X10221260Y6614764D03*
X7071654Y473031D03*
D24*
X7125591Y657874D03*
D20*
X2347244Y1429724D03*
D23*
X2480315Y1417323D03*
X7925197Y-118110D03*
D20*
X7565354Y93701D03*
X11008661Y1496654D03*
Y1429724D03*
X10301181Y7614173D03*
X11008661Y7126575D03*
D21*
X11023622Y7178937D03*
X6299213Y3084449D03*
D20*
X6364173Y3074803D03*
D21*
X787402Y2060827D03*
D20*
X772441Y2008465D03*
Y1941535D03*
D24*
X826378Y1681496D03*
D20*
X6194882Y4927165D03*
D21*
X6299213Y5131693D03*
D24*
X826378Y4752362D03*
Y3216929D03*
D23*
X3988189Y3976378D03*
D21*
X3937008Y3596260D03*
D20*
X3134646Y1941535D03*
D24*
X3188583Y1681496D03*
D20*
X1266142Y93701D03*
Y26772D03*
X8486614Y160630D03*
D23*
X7992126Y1417323D03*
D24*
X7912992Y1169685D03*
D20*
X7938976Y1027559D03*
D23*
X118110Y3976378D03*
D24*
X38976Y4240551D03*
Y4752362D03*
D23*
X118110Y4488189D03*
Y5000000D03*
D24*
X38976Y5264173D03*
D20*
X10714961Y227559D03*
X64961Y4543307D03*
Y4610236D03*
Y4031496D03*
Y4098425D03*
D23*
X51181Y3976378D03*
D20*
X64961Y5122047D03*
D23*
X51181Y5000000D03*
D20*
X64961Y5055118D03*
D21*
X0Y4619882D03*
D20*
X-14961Y4567520D03*
Y4500591D03*
D21*
X0Y4108071D03*
D20*
X-14961Y4055709D03*
Y3988780D03*
Y5012402D03*
Y5079331D03*
D23*
X51181Y4488189D03*
D21*
X0Y5131693D03*
X0Y5643504D03*
D24*
X38976Y5775984D03*
D20*
X64961Y5566929D03*
Y5633858D03*
X-14961Y5591142D03*
Y5524213D03*
D23*
X118110Y5511811D03*
X51181D03*
X11141732Y3464567D03*
D20*
X-104331Y481102D03*
D23*
X118110Y1929134D03*
D24*
X38976Y2193307D03*
Y2705118D03*
D23*
X118110Y2440945D03*
Y2952756D03*
D24*
X38976Y3216929D03*
D20*
X64961Y2496063D03*
Y2562992D03*
Y1984252D03*
Y2051181D03*
D23*
X51181Y1929134D03*
D20*
X64961Y3074803D03*
D23*
X51181Y2952756D03*
D20*
X64961Y3007874D03*
D21*
X0Y2572638D03*
D20*
X-14961Y2520276D03*
Y2453346D03*
D21*
X0Y2060827D03*
D20*
X-14961Y2008465D03*
Y1941535D03*
Y2965157D03*
Y3032087D03*
D23*
X51181Y2440945D03*
D21*
X0Y3084449D03*
X0Y3596260D03*
D24*
X38976Y3728740D03*
D20*
X64961Y3519685D03*
Y3586614D03*
X-14961Y3543898D03*
Y3476969D03*
D23*
X118110Y3464567D03*
X51181D03*
D21*
X0Y1549016D03*
D24*
X38976Y1681496D03*
D20*
X64961Y1472441D03*
Y1539370D03*
X-14961Y1496654D03*
Y1429724D03*
D23*
X118110Y1417323D03*
X51181D03*
D21*
X0Y1037205D03*
D24*
X38976Y1169685D03*
D20*
X64961Y960630D03*
Y1027559D03*
X-14961Y984843D03*
Y917913D03*
D23*
X118110Y905512D03*
X51181D03*
D21*
X0Y525394D03*
D24*
X38976Y657874D03*
D20*
X64961Y448819D03*
Y515748D03*
X-14961Y473031D03*
Y406102D03*
D23*
X118110Y393701D03*
X51181D03*
Y-118110D03*
X118110D03*
D20*
X-14961Y-105709D03*
Y-38780D03*
X64961Y3937D03*
Y-62992D03*
D24*
X38976Y146063D03*
D21*
X0Y13583D03*
M02*

