G04 ===== Begin FILE IDENTIFICATION =====*
G04 File Format:  Gerber RS274X*
G04 ===== End FILE IDENTIFICATION =====*
%FSLAX66Y66*%
%MOIN*%
%SFA1.0000B1.0000*%
%OFA0.0B0.0*%
%ADD14R,0.039370X0.035433*%
%ADD15R,0.007874X0.033858*%
%ADD16R,0.033858X0.007874*%
%ADD17R,0.015748X0.015748*%
%ADD18R,0.035433X0.039370*%
%ADD19R,0.039370X0.038189*%
%ADD20R,0.039764X0.035433*%
%ADD21C,0.009843*%
%LNsilk_screen*%
%IPPOS*%
%LPD*%
G75*
D14*
X9277559Y369291D03*
D15*
X9246457Y452756D03*
X9187402D03*
D16*
X9146063Y511811D03*
D14*
X9344488Y548031D03*
D15*
X9167717Y555118D03*
D14*
X5407480Y369291D03*
D15*
X5309449Y452756D03*
X5329134D03*
X5250394D03*
D16*
X5350787Y511811D03*
D14*
X10131890Y369291D03*
X9927559Y227559D03*
X9994488D03*
X10061417D03*
D15*
X5289764Y555118D03*
D14*
X7699213Y4322047D03*
D16*
X5209055Y511811D03*
D14*
X10061417Y160630D03*
D17*
X10018110Y503937D03*
D15*
X5230709Y555118D03*
X10053543Y452756D03*
X10033858D03*
X10053543Y555118D03*
D16*
X9933465Y511811D03*
X10075197D03*
D15*
X10033858Y555118D03*
D14*
X5407480Y302362D03*
D18*
X5970472Y95669D03*
D14*
X6191339Y160630D03*
X6124409D03*
D16*
X9933465Y496063D03*
D14*
X10131890Y481102D03*
Y302362D03*
X10064961D03*
X1968504Y7724409D03*
D17*
X6081102Y503937D03*
D14*
X6191339Y227559D03*
X6124409D03*
D16*
X10075197Y496063D03*
D15*
X9955118Y555118D03*
D14*
X10131890Y548031D03*
X5990551Y227559D03*
D15*
X6116535Y452756D03*
D14*
X3622047Y7791339D03*
D15*
X6037795Y452756D03*
D14*
X10714961Y160630D03*
X10781890Y227559D03*
D16*
X6138189Y511811D03*
D15*
X6057480Y452756D03*
X6018110D03*
D14*
X10714961Y227559D03*
X10848819Y160630D03*
D15*
X10801575Y452756D03*
D14*
X10919291Y369291D03*
D16*
X5996457Y511811D03*
D15*
X6116535Y555118D03*
X6096850D03*
X6057480D03*
D14*
X10852362Y369291D03*
D15*
X10742520Y452756D03*
X10781890D03*
X10762205D03*
D14*
X6194882Y548031D03*
D16*
X6138189Y496063D03*
X5996457D03*
X10720866Y511811D03*
X10862598D03*
D15*
X10821260Y555118D03*
D14*
X10714961Y26772D03*
X6127953Y302362D03*
X6911811Y227559D03*
X6978740D03*
D15*
X10801575Y555118D03*
D16*
X10862598Y496063D03*
D17*
X10777953Y503937D03*
X5266142D03*
D14*
X10919291Y548031D03*
D15*
X10742520Y555118D03*
X10762205D03*
D14*
X6777953Y93701D03*
D17*
X6868504Y503937D03*
D14*
X10919291Y302362D03*
X10852362D03*
X10919291Y481102D03*
D16*
X10720866Y496063D03*
D14*
X11703150Y227559D03*
X6844882D03*
D15*
X6903937Y452756D03*
X6825197D03*
X6844882D03*
D14*
X11569291Y160630D03*
X11703150D03*
D17*
X11592913Y503937D03*
D14*
X11502362Y160630D03*
X11569291Y227559D03*
X6982283Y548031D03*
X11706693Y369291D03*
X11639764D03*
D15*
X4443307Y4649606D03*
X6903937Y555118D03*
D14*
X9274016Y227559D03*
D17*
X6840945Y503937D03*
D16*
X6925591Y496063D03*
D14*
X5337008Y4322047D03*
X8557087Y765748D03*
D15*
X11608661Y555118D03*
D14*
X616142Y4463780D03*
D15*
X11588976Y555118D03*
X11569291D03*
D14*
X9340945Y227559D03*
D16*
X11508268Y511811D03*
D15*
X11549606Y555118D03*
X11529921D03*
D14*
X11706693Y548031D03*
X7769685Y832677D03*
X11706693Y302362D03*
X6194882Y832677D03*
X5407480Y765748D03*
X6982283D03*
X6194882D03*
X9344488Y832677D03*
X8557087D03*
X9344488Y765748D03*
X5407480Y832677D03*
X-104331Y4463780D03*
X-308661Y4322047D03*
Y4188189D03*
Y4255118D03*
X-107874Y4322047D03*
X-174803D03*
X-241732D03*
X-107874Y4255118D03*
D15*
X-281102Y4547244D03*
D16*
X-161024Y4606299D03*
D17*
X11565354Y503937D03*
D14*
X-104331Y4927165D03*
X-171260Y4463780D03*
X3832677Y4396850D03*
D15*
X-281102Y4649606D03*
X-182677D03*
X-202362D03*
X-241732D03*
D14*
X9344488Y302362D03*
D17*
X-245669Y4598425D03*
D16*
X-161024Y4590551D03*
D14*
X-104331Y4575591D03*
Y4396850D03*
X-171260D03*
D17*
X9990551Y503937D03*
D14*
X-308661Y4121260D03*
X5337008Y4255118D03*
X3832677Y4860236D03*
D16*
X3775984Y4606299D03*
D14*
X3628346Y4255118D03*
X3695276D03*
D15*
X1313386Y4649606D03*
D14*
X1266142Y4188189D03*
D15*
X9207087Y452756D03*
D14*
X478740Y4255118D03*
X545669D03*
X478740Y4121260D03*
X1470472Y4927165D03*
Y4575591D03*
D15*
X9994488Y452756D03*
D14*
X612598Y4322047D03*
X1466929D03*
X1470472Y4396850D03*
D15*
X1372441Y4547244D03*
X1333071D03*
X1313386D03*
D16*
X1272047Y4606299D03*
D14*
X1466929Y4255118D03*
X1400000D03*
D16*
X2846850Y4606299D03*
D15*
X3714961Y4649606D03*
X1333071D03*
X1293701D03*
D16*
X3634252Y4590551D03*
D14*
X3765748Y4463780D03*
D16*
X3775984Y4590551D03*
D14*
X3832677Y4927165D03*
D15*
X2966929Y4649606D03*
D14*
X1266142Y4255118D03*
D15*
X2868504Y4547244D03*
D14*
X5407480Y548031D03*
D15*
X2140157Y4649606D03*
X6077165Y452756D03*
D14*
X478740Y4322047D03*
D16*
X-302756Y4590551D03*
X2059449D03*
D15*
X6825197Y555118D03*
D16*
X2201181Y4590551D03*
D15*
X585039Y4547244D03*
D14*
X2257874Y4927165D03*
X2053543Y4121260D03*
D15*
X506299Y4547244D03*
X525984D03*
D14*
X2120472Y4255118D03*
X2053543D03*
X2254331D03*
D15*
X2159843Y4547244D03*
D14*
X3628346Y4121260D03*
D15*
X9266142Y452756D03*
D14*
X4415748Y4121260D03*
X3628346Y4322047D03*
X3762205D03*
X10915748Y160630D03*
D15*
X3714961Y4547244D03*
X-241732D03*
X3754331D03*
X2907874D03*
D17*
X3691339Y4598425D03*
D15*
X3675591Y4649606D03*
X-261417D03*
D17*
X2903937Y4598425D03*
D14*
X8346457Y7724409D03*
X2190945Y4396850D03*
D15*
X506299Y4649606D03*
D16*
X2059449Y4606299D03*
D15*
X6096850Y452756D03*
D14*
X9921260Y7862205D03*
D15*
X2179528Y4547244D03*
X2140157D03*
X2100787Y4649606D03*
X2120472D03*
D16*
X4563386Y4606299D03*
D14*
X11496063Y7724409D03*
D16*
X4421654Y4590551D03*
X4563386D03*
D14*
X4620079Y4575591D03*
Y4642520D03*
X11706693Y832677D03*
D15*
X585039Y4649606D03*
X604724D03*
X525984D03*
X545669D03*
X2159843D03*
D14*
X3045276Y4642520D03*
X10919291Y765748D03*
D17*
X2931496Y4598425D03*
D14*
X3045276Y4575591D03*
X4616535Y4255118D03*
D15*
X4502362Y4547244D03*
D14*
X4616535Y4322047D03*
D15*
X-222047Y4649606D03*
D14*
X9994488Y160630D03*
X3045276Y4927165D03*
X11502362Y26772D03*
X2978346Y4463780D03*
D15*
X9187402Y555118D03*
D16*
X484646Y4590551D03*
D14*
X2840945Y4188189D03*
X2974803Y4322047D03*
Y4255118D03*
X2840945Y4322047D03*
Y4255118D03*
D15*
X11529921Y452756D03*
D14*
X2907874Y4255118D03*
X683071Y4927165D03*
X9140157Y160630D03*
X10064961Y369291D03*
X1333071Y4255118D03*
D15*
X1352756Y4649606D03*
D14*
X1266142Y4121260D03*
X3041732Y4322047D03*
D15*
X9167717Y452756D03*
X6037795Y4547244D03*
X9207087D03*
X1392126D03*
X4522047D03*
X4541732D03*
D14*
X4620079Y4396850D03*
Y4927165D03*
X8486614Y160630D03*
X9207087D03*
D18*
X5903543Y95669D03*
D15*
X4541732Y4649606D03*
X11628346Y4547244D03*
X5289764Y4649606D03*
X4522047D03*
D17*
X5293701Y4598425D03*
D14*
X5407480Y4642520D03*
X10131890Y4860236D03*
D16*
X626378Y4590551D03*
D14*
X6982283Y4642520D03*
D15*
X6037795Y4649606D03*
D14*
X5203150Y4322047D03*
D16*
X5996457Y4606299D03*
D14*
X6777953Y26772D03*
D15*
X5329134Y4547244D03*
X5309449D03*
X9246457D03*
D14*
X9340945Y4255118D03*
X9344488Y4396850D03*
D16*
X6783858Y4590551D03*
D14*
X5203150Y4255118D03*
X7565354Y93701D03*
X6982283Y481102D03*
D15*
X1352756Y4547244D03*
D14*
X5407480Y4396850D03*
X5270079Y4322047D03*
D17*
X7655906Y503937D03*
D15*
X5250394Y4547244D03*
D14*
X5407480Y481102D03*
D15*
X6057480Y4547244D03*
D14*
X6982283Y4860236D03*
D15*
X6864567Y4649606D03*
D17*
X6868504Y4598425D03*
D14*
X9207087Y4322047D03*
X9277559Y4396850D03*
X5203150Y4121260D03*
X7766142Y160630D03*
X7565354Y227559D03*
X7766142D03*
X7632283D03*
X7565354Y160630D03*
D16*
X5209055Y4606299D03*
D15*
X5250394Y4649606D03*
D14*
X7769685Y369291D03*
D15*
X6077165Y4649606D03*
D17*
X6081102Y4598425D03*
D15*
X5309449Y4649606D03*
X6116535Y4547244D03*
D17*
X10805512Y503937D03*
D14*
X6982283Y4463780D03*
X6777953Y4188189D03*
D16*
X11650000Y496063D03*
D14*
X6915354Y4463780D03*
X6844882Y4255118D03*
X6777953Y4121260D03*
D15*
X6096850Y4547244D03*
D14*
X9927559Y4255118D03*
X10061417D03*
X5203150Y4188189D03*
D15*
X6844882Y4649606D03*
D16*
X6138189Y4606299D03*
D15*
X7612598Y555118D03*
X7671654Y452756D03*
X7651969Y555118D03*
X7671654D03*
X7691339D03*
D16*
X7571260Y511811D03*
D15*
X7651969Y452756D03*
D14*
X5990551Y4188189D03*
D16*
X484646Y4606299D03*
D14*
X6127953Y4463780D03*
X6194882Y4642520D03*
D15*
X6884252Y555118D03*
D14*
X5340551Y369291D03*
X6194882Y4463780D03*
D15*
X7691339Y452756D03*
X7632283Y555118D03*
D14*
X6057480Y4255118D03*
D15*
X5329134Y4649606D03*
D14*
X7702756Y302362D03*
X8352756Y93701D03*
X6911811Y160630D03*
X7769685Y548031D03*
D17*
X7628346Y503937D03*
D16*
X7712992Y496063D03*
X7571260D03*
D14*
X6124409Y4322047D03*
X5990551D03*
D15*
X2947244Y4649606D03*
D17*
X8443307Y503937D03*
D14*
X5340551Y4463780D03*
X6194882Y4927165D03*
D15*
X6805512Y4649606D03*
D14*
X5407480Y4463780D03*
X6978740Y4322047D03*
X6777953D03*
X6844882D03*
X6978740Y4255118D03*
D15*
X6903937Y4547244D03*
X9226772Y555118D03*
D14*
X10781890Y4322047D03*
X10714961D03*
X10848819D03*
Y4255118D03*
X10781890D03*
D15*
X2100787Y4547244D03*
X6903937Y4649606D03*
X10742520D03*
X10781890D03*
D16*
X9146063Y496063D03*
D15*
X6825197Y4649606D03*
D17*
X6840945Y4598425D03*
D14*
X11706693Y481102D03*
D15*
X10762205Y4649606D03*
D14*
X5407480Y4575591D03*
X11706693Y4860236D03*
X9274016Y160630D03*
X7769685Y4642520D03*
D16*
X7712992Y4606299D03*
D14*
X8490157Y369291D03*
X8419685Y160630D03*
X8352756D03*
X8486614Y227559D03*
X5403937Y4255118D03*
X7769685Y4927165D03*
X7565354Y4121260D03*
X7632283Y4255118D03*
X7565354D03*
X7699213D03*
X7565354Y4322047D03*
D15*
X8380315Y452756D03*
X8419685D03*
D14*
X8557087Y369291D03*
X7769685Y4396850D03*
X7565354Y4188189D03*
X7766142Y4255118D03*
X8352756Y4121260D03*
X8419685Y4255118D03*
X8486614D03*
X8557087Y4927165D03*
X8486614Y4322047D03*
X1181102Y7791339D03*
X1259843D03*
X1181102Y7724409D03*
X2047244Y7929134D03*
X9344488Y4860236D03*
D15*
X8459055Y4649606D03*
D14*
X2047244Y7791339D03*
X2257874Y4860236D03*
X8419685Y4322047D03*
D15*
X7671654Y4547244D03*
X9187402D03*
X8439370Y452756D03*
D14*
X8553543Y4322047D03*
D16*
X8500394Y511811D03*
D15*
X7592913Y555118D03*
X8459055Y452756D03*
D16*
X8358661Y511811D03*
D14*
X11639764Y302362D03*
D15*
X8478740Y555118D03*
D17*
X7628346Y4598425D03*
D15*
X7632283Y4547244D03*
D16*
X5350787Y4590551D03*
D15*
X7651969Y4547244D03*
X7592913D03*
D16*
X7571260Y4590551D03*
D14*
X8557087Y4396850D03*
X8490157D03*
X2834646Y7791339D03*
D16*
X9287795Y4606299D03*
D14*
X2755906Y7791339D03*
X2834646Y7862205D03*
X5196850Y7791339D03*
X2834646Y7929134D03*
D15*
X8419685Y555118D03*
X10840945Y452756D03*
D14*
X5196850Y7724409D03*
D15*
X6018110Y555118D03*
X7691339Y4649606D03*
X7671654D03*
X7592913D03*
D14*
X3829134Y4255118D03*
D15*
X8478740Y4547244D03*
D14*
X9344488Y4642520D03*
D16*
X11650000Y511811D03*
D17*
X9230709Y4598425D03*
D15*
X6864567Y4547244D03*
D14*
X8557087Y4463780D03*
X8490157D03*
D17*
X9230709Y503937D03*
D15*
X8400000Y4649606D03*
D14*
X9344488Y4575591D03*
X6692913Y7791339D03*
D15*
X8439370Y4547244D03*
X8400000Y555118D03*
D14*
X8557087Y548031D03*
X8490157Y302362D03*
X8557087D03*
D17*
X8443307Y4598425D03*
D15*
X545669Y4547244D03*
X8419685Y4649606D03*
D14*
X8557087Y4642520D03*
Y481102D03*
X6124409Y4255118D03*
D16*
X7571260Y4606299D03*
D15*
X8380315Y4649606D03*
X8400000Y4547244D03*
D17*
X8415748Y4598425D03*
D14*
X6771654Y7862205D03*
X8557087Y4860236D03*
X11639764Y4463780D03*
X9140157Y4188189D03*
D15*
X9187402Y4649606D03*
X6096850D03*
X9167717Y4547244D03*
D16*
X10075197Y4606299D03*
D15*
X9246457Y4649606D03*
D14*
X9207087Y4255118D03*
X9277559Y4463780D03*
X9927559Y4188189D03*
D15*
X9207087Y555118D03*
D14*
X6982283Y4927165D03*
X9927559Y4121260D03*
X6911811Y4322047D03*
X10131890Y4396850D03*
D15*
X9994488Y4649606D03*
X9955118D03*
D14*
X10919291Y4642520D03*
D17*
X10805512Y4598425D03*
D15*
X8439370Y4649606D03*
X10801575D03*
D16*
X10862598Y4590551D03*
D15*
X9266142Y4547244D03*
X10781890D03*
D14*
X11502362Y4322047D03*
X11636220D03*
D15*
X10840945Y4547244D03*
D14*
X11636220Y160630D03*
X11706693Y4927165D03*
X10714961Y4121260D03*
D15*
X10742520Y4547244D03*
D14*
X683071Y4575591D03*
X7559055Y7724409D03*
D17*
X5266142Y4598425D03*
D14*
X-174803Y4255118D03*
X6777953Y160630D03*
D15*
X11588976Y4649606D03*
D14*
X10128346Y4255118D03*
X10714961Y4188189D03*
D15*
X11628346Y4649606D03*
X11549606Y4547244D03*
X6864567Y555118D03*
X11529921Y4649606D03*
X11569291Y4547244D03*
D17*
X11565354Y4598425D03*
D16*
X11508268Y4606299D03*
D15*
X9226772Y4547244D03*
D14*
X3622047Y7724409D03*
X10919291Y4575591D03*
X2907874Y4322047D03*
X393701Y7791339D03*
X6844882Y160630D03*
X6057480Y4322047D03*
X-157480Y7862205D03*
X4330709Y7724409D03*
X4409449D03*
Y7791339D03*
X7559055Y7929134D03*
X6692913Y7724409D03*
X1259843Y7929134D03*
X10708661D03*
X7480315Y7791339D03*
X8346457Y7929134D03*
D15*
X10033858Y4547244D03*
D14*
X8267717Y7724409D03*
X8346457Y7791339D03*
X9133858Y7929134D03*
Y7791339D03*
D15*
X5270079Y4649606D03*
D14*
X9140157Y4322047D03*
X9133858Y7724409D03*
X9842520Y7791339D03*
X9055118Y7724409D03*
X9921260Y7929134D03*
Y7791339D03*
D16*
X9933465Y4590551D03*
D14*
X10708661Y7862205D03*
X11496063Y7791339D03*
X11417323D03*
X10708661Y7724409D03*
D15*
X10821260Y452756D03*
D16*
X9287795Y4590551D03*
D14*
X7480315Y7724409D03*
X9133858Y7862205D03*
X7632283Y160630D03*
X9927559D03*
D17*
X2116535Y4598425D03*
D14*
X11502362Y4255118D03*
D16*
X7712992Y511811D03*
D15*
X5270079Y555118D03*
X6077165D03*
D14*
X545669Y4322047D03*
D16*
X8358661Y496063D03*
D14*
X4415748Y4188189D03*
D15*
X5289764Y452756D03*
X6884252Y4547244D03*
D14*
X10061417Y4322047D03*
X6194882Y4396850D03*
X2978346D03*
D16*
X9146063Y4590551D03*
D14*
X6915354Y369291D03*
X2053543Y4188189D03*
D16*
X6783858Y511811D03*
D14*
X7702756Y4463780D03*
X683071D03*
X10131890Y832677D03*
X5118110Y7791339D03*
D15*
X2081102Y4547244D03*
D14*
X2254331Y4322047D03*
D15*
X11608661Y452756D03*
X11569291Y4649606D03*
D17*
X541732Y4598425D03*
D14*
X5407480Y4860236D03*
X2120472Y4322047D03*
D15*
X7612598Y4649606D03*
X5289764Y4547244D03*
D14*
X11636220Y227559D03*
X2190945Y4463780D03*
D15*
X3675591Y4547244D03*
D14*
X1403543Y4396850D03*
D16*
X11508268Y4590551D03*
D15*
X10053543Y4547244D03*
D14*
X11703150Y4255118D03*
X7769685Y4575591D03*
X683071Y4642520D03*
X5118110Y7724409D03*
X10714961Y93701D03*
X5990551Y4255118D03*
X9140157Y4121260D03*
X472441Y7724409D03*
D15*
X604724Y4547244D03*
D17*
X11592913Y4598425D03*
D14*
X6982283Y4396850D03*
X5990551Y4121260D03*
X-157480Y7929134D03*
X3762205Y4255118D03*
X4549606Y4322047D03*
D15*
X565354Y4547244D03*
D14*
X1470472Y4860236D03*
D15*
X9994488Y555118D03*
X5230709Y4547244D03*
D14*
X-104331Y4860236D03*
X8352756Y26772D03*
D16*
X8358661Y4590551D03*
D15*
X3655906Y4547244D03*
X2927559D03*
X1372441Y4649606D03*
D14*
X3832677Y4463780D03*
X9277559Y302362D03*
X2257874Y4575591D03*
X11706693D03*
X7769685Y302362D03*
X6057480Y160630D03*
D16*
X1413780Y4590551D03*
X7712992D03*
D14*
X9344488Y4927165D03*
X8419685Y227559D03*
D16*
X3634252Y4606299D03*
D14*
X9140157Y26772D03*
D15*
X6805512Y555118D03*
D14*
X6057480Y227559D03*
X6771654Y7929134D03*
X11703150Y4322047D03*
X9340945Y160630D03*
X6982283Y832677D03*
D15*
X3734646Y4649606D03*
D14*
X4415748Y4322047D03*
D15*
X10014173Y4649606D03*
D14*
X10708661Y7791339D03*
D15*
X6825197Y4547244D03*
D16*
X10720866Y4590551D03*
D14*
X10128346Y4322047D03*
X616142Y4396850D03*
X-104331Y4642520D03*
X6982283Y369291D03*
X7559055Y7791339D03*
X6194882Y4575591D03*
X6191339Y4255118D03*
D15*
X11608661Y4547244D03*
D14*
X10915748Y4255118D03*
X6915354Y302362D03*
X3045276Y4463780D03*
D16*
X6925591Y511811D03*
D15*
X6116535Y4649606D03*
D14*
X10131890Y765748D03*
D15*
X9226772Y4649606D03*
D16*
X8500394Y4606299D03*
D14*
X5196850Y7929134D03*
D15*
X6844882Y555118D03*
D14*
X1259843Y7724409D03*
D15*
X10821260Y4649606D03*
D14*
X9994488Y4255118D03*
D15*
X6077165Y4547244D03*
D14*
X4620079Y4463780D03*
D16*
X9933465Y4606299D03*
D14*
X1333071Y4322047D03*
X7699213Y160630D03*
X10919291Y4396850D03*
D15*
X3695276Y4547244D03*
D14*
X9927559Y26772D03*
X5905512Y7724409D03*
D15*
X11549606Y4649606D03*
D14*
X11502362Y93701D03*
X7559055Y7862205D03*
X7565354Y26772D03*
D15*
X2966929Y4547244D03*
D14*
X9140157Y4255118D03*
D17*
X7655906Y4598425D03*
D14*
X6915354Y4396850D03*
D15*
X5329134Y555118D03*
X11569291Y452756D03*
X7612598D03*
D14*
X9921260Y7724409D03*
D17*
X3718898Y4598425D03*
D14*
X7769685Y765748D03*
X3622047Y7929134D03*
X6771654Y7791339D03*
X683071Y4396850D03*
X4549606Y4255118D03*
D15*
X2888189Y4649606D03*
D14*
X3045276Y4860236D03*
D15*
X8478740Y452756D03*
D14*
X6191339Y4322047D03*
X9140157Y93701D03*
X8352756Y227559D03*
X2187402Y4255118D03*
D15*
X9207087Y4649606D03*
D17*
X8415748Y503937D03*
D16*
X-302756Y4606299D03*
D14*
X4620079Y4860236D03*
X6777953Y4255118D03*
X5984252Y7724409D03*
X4415748Y4255118D03*
X3695276Y4322047D03*
X2840945Y4121260D03*
X3628346Y4188189D03*
D15*
X1293701Y4547244D03*
D14*
X1968504Y7791339D03*
X3832677Y4575591D03*
D15*
X2081102Y4649606D03*
D14*
X3622047Y7862205D03*
D15*
X11588976Y4547244D03*
X10053543Y4649606D03*
D16*
X2988583Y4606299D03*
D17*
X1329134Y4598425D03*
D15*
X9246457Y555118D03*
D14*
X4482677Y4322047D03*
D17*
X6053543Y4598425D03*
D15*
X7651969Y4649606D03*
X8380315Y4547244D03*
D16*
X11650000Y4590551D03*
D15*
X9974803Y4649606D03*
X5309449Y555118D03*
X9266142D03*
X11608661Y4649606D03*
X9994488Y4547244D03*
X4502362Y4649606D03*
D14*
X10852362Y4463780D03*
X11639764Y4396850D03*
X7769685Y481102D03*
D15*
X-261417Y4547244D03*
X10840945Y4649606D03*
D14*
X2257874Y4396850D03*
X11569291Y4255118D03*
D15*
X11549606Y452756D03*
D16*
X8500394Y496063D03*
D14*
X9927559Y93701D03*
X2257874Y4463780D03*
D15*
X9955118Y4547244D03*
D16*
X8500394Y4590551D03*
D14*
X10629921Y7791339D03*
D15*
X2907874Y4649606D03*
D14*
X10131890Y4463780D03*
D15*
X9226772Y452756D03*
D14*
X10919291Y4927165D03*
D17*
X10777953Y4598425D03*
D15*
X-182677Y4547244D03*
D14*
X3041732Y4255118D03*
D15*
X6057480Y4649606D03*
D14*
X6771654Y7724409D03*
X2257874Y4642520D03*
X8553543Y227559D03*
X3543307Y7724409D03*
D15*
X10762205Y4547244D03*
X7592913Y452756D03*
D14*
X1400000Y4322047D03*
X10131890Y4642520D03*
D16*
X1272047Y4590551D03*
D15*
X10014173Y555118D03*
Y452756D03*
D16*
X4421654Y4606299D03*
D14*
X612598Y4255118D03*
X6978740Y160630D03*
X6194882Y481102D03*
X5203150Y26772D03*
D16*
X10720866Y4606299D03*
D14*
X10781890Y160630D03*
D17*
X10018110Y4598425D03*
D15*
X2888189Y4547244D03*
D14*
X2047244Y7724409D03*
D15*
X3695276Y4649606D03*
D14*
X11569291Y4322047D03*
D15*
X6037795Y555118D03*
D16*
X5209055Y4590551D03*
D14*
X7699213Y227559D03*
D15*
X4443307Y4547244D03*
D14*
X10714961Y4255118D03*
X10919291Y4860236D03*
D15*
X7691339Y4547244D03*
X11628346Y452756D03*
D14*
X6194882Y4860236D03*
X10064961Y4396850D03*
X5984252Y7929134D03*
X10848819Y227559D03*
X5403937Y4322047D03*
D17*
X569291Y4598425D03*
D14*
X3045276Y4396850D03*
X9994488Y4322047D03*
D16*
X8358661Y4606299D03*
D14*
X3041732Y227559D03*
X2907874D03*
X7769685Y4860236D03*
X2840945Y93701D03*
X9140157Y227559D03*
D15*
X1333071Y452756D03*
D14*
X1466929Y227559D03*
D15*
X-222047Y4547244D03*
D14*
X4482677Y4255118D03*
X2053543Y4322047D03*
D15*
X-202362Y4547244D03*
X6844882D03*
D16*
X5209055Y496063D03*
D14*
X3829134Y4322047D03*
D15*
X10821260Y4547244D03*
D16*
X11650000Y4606299D03*
D17*
X9203150Y503937D03*
D14*
X11417323Y7724409D03*
D16*
X6925591Y4590551D03*
D15*
X11628346Y555118D03*
D17*
X6053543Y503937D03*
D14*
X1266142Y4322047D03*
X10128346Y160630D03*
D15*
X11588976Y452756D03*
D14*
X10128346Y227559D03*
X478740Y4188189D03*
X11706693Y4463780D03*
X9842520Y7724409D03*
X7702756Y4396850D03*
X5984252Y7862205D03*
X9344488Y4463780D03*
X2834646Y7724409D03*
D15*
X6805512Y4547244D03*
D14*
X6194882Y302362D03*
D17*
X1356693Y4598425D03*
D15*
X10840945Y555118D03*
D14*
X472441Y7929134D03*
Y7862205D03*
X9274016Y4322047D03*
X10629921Y7724409D03*
D15*
X8478740Y4649606D03*
D14*
X1403543Y4463780D03*
D19*
X11875984Y3587992D03*
D20*
X11796260Y7126772D03*
D18*
X11862205Y6535433D03*
D14*
X-308661Y26772D03*
D21*
X787402Y5139567D03*
D14*
X11875984Y6590551D03*
D21*
X0Y4100197D03*
D14*
X1639764Y5566929D03*
D18*
X1692913Y5511811D03*
D21*
X10236220Y533268D03*
D20*
X772638Y7638583D03*
D21*
X15748Y7698622D03*
X0D03*
D14*
X6364173Y6078740D03*
D21*
X6299213Y5651378D03*
D18*
X2413386Y-118110D03*
D19*
X1639764Y517126D03*
D18*
X6417323Y1417323D03*
D21*
X7070866Y3076575D03*
Y7186811D03*
D18*
X6350394Y6535433D03*
X11929134Y4488189D03*
D21*
X6314961Y5635630D03*
D18*
X11862205Y5000000D03*
Y6023622D03*
D21*
X11795276Y5651378D03*
X15748Y4627756D03*
D18*
X838583Y1417323D03*
D21*
X-15748Y4115945D03*
X0Y4627756D03*
X1559055Y517520D03*
D18*
X1625984Y-118110D03*
D21*
X3165354Y7698622D03*
D18*
X5562992Y6023622D03*
D21*
X7086614Y6675000D03*
X5511811Y6147441D03*
X5527559Y7186811D03*
X787402Y3588386D03*
D14*
X1639764Y1472441D03*
D19*
X5576772Y4611614D03*
D18*
X3267717Y7047244D03*
X1692913Y2440945D03*
X1625984D03*
D19*
X5576772Y6147047D03*
D21*
X5496063Y6163189D03*
X6299213Y517520D03*
X6314961D03*
D18*
X5629921Y6023622D03*
D20*
X5497047Y6103150D03*
D21*
X7102362Y7698622D03*
D18*
X1692913Y393701D03*
D21*
X5496063Y6675000D03*
D20*
X5497047Y7126772D03*
D18*
X5562992Y7047244D03*
X7137795Y-118110D03*
X838583Y2440945D03*
D21*
X0Y5139567D03*
X771654Y3604134D03*
D14*
X1639764Y7614173D03*
D20*
X1560039Y473228D03*
X3134843D03*
D21*
X2362205Y3604134D03*
X1559055Y533268D03*
X787402Y3604134D03*
D18*
X118110Y5000000D03*
D21*
X5496063Y2564764D03*
X-15748Y5139567D03*
D18*
X905512Y3976378D03*
D21*
X-15748Y4612008D03*
D20*
X-14764Y5079528D03*
D14*
X64961Y5055118D03*
D20*
X1560039Y7638583D03*
D18*
X838583Y905512D03*
Y3976378D03*
D21*
X3165354Y2580512D03*
D14*
X1639764Y448819D03*
D21*
X1574803Y533268D03*
X1559055Y1556890D03*
D18*
X1625984Y1929134D03*
D21*
X1590551Y3076575D03*
Y3092323D03*
X1574803D03*
D14*
X5576772Y6590551D03*
D21*
X5511811Y6659252D03*
X6299213Y1029331D03*
D18*
X5562992Y905512D03*
X6350394Y7559055D03*
D14*
X6364173Y7614173D03*
D18*
X5629921Y905512D03*
D21*
X7070866Y5139567D03*
D14*
X6284252Y918110D03*
D21*
X6299213Y2052953D03*
D19*
X6364173Y2052559D03*
D21*
X6283465Y2068701D03*
X6299213D03*
X7086614Y4627756D03*
X7102362Y7682874D03*
D18*
X6350394Y905512D03*
D20*
X7071850Y1496850D03*
D21*
X7070866Y1541142D03*
X7102362D03*
D18*
X7137795Y7559055D03*
D20*
X7071850Y7638583D03*
D21*
X7102362Y1045079D03*
X7086614D03*
X7070866D03*
D18*
X11862205Y7047244D03*
D20*
X7071850Y-38583D03*
D21*
X6299213Y6163189D03*
D19*
X852362Y7170669D03*
Y1540748D03*
D14*
X772441Y3988976D03*
D20*
X-14764Y5591339D03*
D21*
X2346457Y7698622D03*
X7874016Y2564764D03*
X11023622Y5123819D03*
X11007874Y7171063D03*
D18*
X1625984Y7559055D03*
D20*
X3134843Y985039D03*
D14*
X852362Y7102362D03*
D21*
X5496063Y6147441D03*
D19*
X5576772Y7170669D03*
D21*
X2362205Y2580512D03*
X1590551Y1556890D03*
D14*
X5576772Y6078740D03*
X7071654Y7571654D03*
Y1429921D03*
D21*
X6299213Y1556890D03*
X7102362D03*
D19*
X5576772Y517126D03*
D21*
X-15748Y5123819D03*
D18*
X51181Y5511811D03*
D14*
X64961Y5566929D03*
D18*
X4055118Y-118110D03*
D21*
X787402Y4100197D03*
X0Y5123819D03*
X1574803Y5709D03*
D20*
X1560039Y985039D03*
Y3544094D03*
D19*
X5576772Y6658858D03*
D21*
X6283465Y1556890D03*
D19*
X11088583Y517126D03*
D21*
X8645669Y4627756D03*
X5511811Y5651378D03*
X11811024Y5635630D03*
X7102362Y3092323D03*
X6314961Y7682874D03*
X-15748Y5651378D03*
D14*
X1639764Y960630D03*
D21*
X1559055Y21457D03*
X6314961Y5709D03*
D14*
X5576772Y7102362D03*
D18*
X6417323Y1929134D03*
X11929134Y5000000D03*
D21*
X0Y5651378D03*
X15748D03*
Y5635630D03*
D20*
X-14764Y6103150D03*
D21*
X-15748Y5635630D03*
D18*
X118110Y6023622D03*
D19*
X64961Y6147047D03*
D14*
X-14961Y6036220D03*
D19*
X11875984Y5123425D03*
D18*
X51181Y6023622D03*
D14*
X64961Y6078740D03*
D21*
X787402Y4612008D03*
D20*
X772638Y4567717D03*
D14*
X772441Y4500787D03*
D21*
X6314961Y5139567D03*
D20*
X772638Y4055906D03*
D21*
X1574803Y7682874D03*
X1590551D03*
X1574803Y7698622D03*
D19*
X1639764Y7682480D03*
D21*
X1590551Y7698622D03*
D18*
X905512Y1417323D03*
D21*
X1590551Y1029331D03*
D20*
X8646654Y5591339D03*
X1560039Y1496850D03*
D21*
X1590551Y1045079D03*
X1574803D03*
X1559055D03*
D14*
X1559843Y1429921D03*
X3134646Y7571654D03*
D21*
X1574803Y2564764D03*
D20*
X1560039Y2520472D03*
D21*
X6283465Y533268D03*
D19*
X1639764Y3076181D03*
X7151575Y7682480D03*
D18*
X1625984Y1417323D03*
D21*
X7070866Y7698622D03*
D20*
X6284449Y985039D03*
D21*
X1590551Y3588386D03*
X1574803D03*
X6299213Y5139567D03*
X1574803Y1556890D03*
X4724409Y2580512D03*
X6299213Y5709D03*
X6283465D03*
Y21457D03*
X11007874Y3604134D03*
X1574803Y2068701D03*
X1590551Y533268D03*
D14*
X-14961Y5012598D03*
D21*
X6299213Y2580512D03*
X6314961D03*
Y2564764D03*
X6283465D03*
X7070866Y5709D03*
X7086614D03*
Y5139567D03*
D14*
X7071654Y2965354D03*
D18*
X7204724Y2952756D03*
D14*
X1639764Y1984252D03*
D18*
X118110Y5511811D03*
D21*
X1559055Y2052953D03*
X787402Y4115945D03*
X6299213Y21457D03*
D18*
X7204724Y7559055D03*
D19*
X64961Y5635236D03*
D21*
X1559055Y1029331D03*
D15*
X3734646Y4547244D03*
D14*
X4620079Y832677D03*
X3832677Y4642520D03*
X5270079Y227559D03*
D21*
X1559055Y7698622D03*
D14*
X4549606Y227559D03*
D21*
X6299213Y7682874D03*
D18*
X10354331Y5511811D03*
D16*
X2846850Y4590551D03*
D14*
X2974803Y227559D03*
D18*
X1692913Y7559055D03*
D15*
X3655906Y555118D03*
X3754331Y452756D03*
X6884252Y4649606D03*
D14*
X2974803Y160630D03*
X6911811Y4255118D03*
X3832677Y548031D03*
D21*
X6283465Y7682874D03*
D19*
X852362Y1028937D03*
D20*
X6284449Y2520472D03*
D14*
X1559843Y-105512D03*
D21*
X787402Y4627756D03*
X1574803Y3076575D03*
X15748Y6147441D03*
X1559055Y1541142D03*
X1590551Y2580512D03*
X1559055Y3604134D03*
X7086614Y2052953D03*
D14*
X1639764Y4031496D03*
D20*
X6284449Y-38583D03*
D18*
X1692913Y-118110D03*
X6350394D03*
D19*
X2427165Y6147047D03*
D21*
X15748Y5123819D03*
D14*
X3832677Y765748D03*
D16*
X2988583Y4590551D03*
D21*
X6299213Y1541142D03*
D18*
X6350394Y393701D03*
D20*
X6284449Y2008661D03*
D18*
X7204724Y1929134D03*
D14*
X6284252Y6548031D03*
X10131890Y4575591D03*
X7151575Y-62992D03*
D21*
X5527559Y5651378D03*
D14*
X2187402Y4322047D03*
D21*
X7086614Y1029331D03*
D14*
X3628346Y93701D03*
D20*
X11796260Y5591339D03*
D14*
X11796063Y5524409D03*
D21*
X11007874Y7682874D03*
D14*
X8352756Y4322047D03*
D21*
X0Y6163189D03*
D14*
X1559843Y406299D03*
X10221260Y1941732D03*
D21*
X7102362Y2052953D03*
D18*
X5629921Y6535433D03*
D21*
X9448819Y3092323D03*
X1559055Y2580512D03*
D14*
X6364173Y960630D03*
X683071Y765748D03*
X1559843Y3477165D03*
X5905512Y7791339D03*
X5203150Y227559D03*
D18*
X1625984Y905512D03*
D14*
X5203150Y93701D03*
D21*
X1574803Y517520D03*
D14*
X6982283Y302362D03*
X4620079D03*
D21*
X6283465Y1541142D03*
D15*
X3754331Y4649606D03*
D14*
X-308661Y160630D03*
D15*
X4443307Y452756D03*
D14*
X6364173Y1984252D03*
D15*
X3675591Y555118D03*
X7632283Y452756D03*
X4502362Y555118D03*
D14*
X10915748Y227559D03*
D21*
X1574803Y7186811D03*
X6299213Y2564764D03*
X771654Y4612008D03*
X15748Y4115945D03*
D14*
X1559843Y3988976D03*
D21*
X1574803Y5635630D03*
X15748Y7186811D03*
D14*
X6364173Y1472441D03*
D21*
X0Y7186811D03*
D14*
X-14961Y7059843D03*
D18*
X6350394Y2952756D03*
D19*
X64961Y5123425D03*
D18*
X6417323Y3976378D03*
X6350394Y1929134D03*
X6417323Y4488189D03*
D19*
X7151575Y5315D03*
D18*
X7204724Y3464567D03*
D21*
X9448819Y4100197D03*
X10236220Y2580512D03*
X11826772Y5635630D03*
D18*
X8779528Y3464567D03*
D20*
X11796260Y5079528D03*
D21*
X1559055Y6659252D03*
D20*
X-14764Y6614961D03*
D21*
X771654Y4627756D03*
X6314961Y2068701D03*
X-15748Y6147441D03*
X1590551Y5635630D03*
D14*
X1559843Y2453543D03*
D20*
X1560039Y4055906D03*
D14*
X6364173Y2496063D03*
D21*
X11826772Y5123819D03*
D14*
X11875984Y6078740D03*
X1639764Y-62992D03*
D18*
X118110Y6535433D03*
D21*
X15748Y6659252D03*
X0D03*
D20*
X-14764Y7126772D03*
D18*
X905512Y4488189D03*
D21*
X1574803Y6147441D03*
D19*
X852362Y4611614D03*
D21*
X2346457Y5123819D03*
D14*
X2427165Y4543307D03*
D18*
X838583Y4488189D03*
D14*
X852362Y4543307D03*
X7859055Y5012598D03*
D21*
X1574803Y4115945D03*
X7102362Y21457D03*
X1590551Y4115945D03*
X8677165Y5651378D03*
X1559055Y2068701D03*
X6299213Y4627756D03*
X1574803Y4612008D03*
X1590551D03*
D14*
X1559843Y4500787D03*
D21*
X7086614Y21457D03*
D20*
X1560039Y4567717D03*
D14*
X1639764Y6078740D03*
D20*
X7071850Y3544094D03*
D14*
X-14961Y6548031D03*
D21*
X7874016Y6163189D03*
X1590551Y5651378D03*
X1559055D03*
X6299213Y5123819D03*
D20*
X6284449Y4567717D03*
D14*
X1559843Y6036220D03*
D18*
X6417323Y3464567D03*
D19*
X1639764Y6658858D03*
D21*
X1574803Y6659252D03*
X1590551D03*
D20*
X11008858Y6103150D03*
D14*
X6284252Y3477165D03*
D21*
X6299213Y3076575D03*
X6314961Y3092323D03*
D19*
X7151575Y4099803D03*
D18*
X6350394Y1417323D03*
D21*
X6283465Y3588386D03*
X6299213D03*
D14*
X8726378Y5055118D03*
X4409449Y7862205D03*
D21*
X6314961Y3588386D03*
X6283465Y4115945D03*
X7070866Y1029331D03*
X6299213Y4115945D03*
D18*
X5629921Y1417323D03*
D21*
X6314961Y4100197D03*
D18*
X6350394Y4488189D03*
D21*
X6283465Y4627756D03*
X6314961Y4612008D03*
D15*
X4462992Y452756D03*
D21*
X7086614Y3092323D03*
X6283465Y4612008D03*
Y5123819D03*
D18*
X7204724Y393701D03*
D21*
X1590551Y7171063D03*
X6314961Y4627756D03*
D14*
X7071654Y406299D03*
D21*
X7102362Y5651378D03*
D20*
X7071850Y473228D03*
D21*
X803150Y4100197D03*
D18*
X7137795Y393701D03*
D21*
X7102362Y7171063D03*
X7086614Y2564764D03*
D14*
X11875984Y5566929D03*
X6364173Y-62992D03*
D20*
X7071850Y2008661D03*
D21*
X7070866Y3588386D03*
X7102362Y5709D03*
X7086614Y3604134D03*
D14*
X64961Y7102362D03*
D19*
Y7170669D03*
D21*
X0Y7171063D03*
X15748D03*
X1590551Y6675000D03*
X-15748Y7186811D03*
X771654Y5139567D03*
X803150Y5123819D03*
Y5139567D03*
D18*
X1625984Y4488189D03*
D19*
X852362Y517126D03*
X1639764Y4611614D03*
D18*
X1692913Y2952756D03*
D21*
X1574803Y4100197D03*
D18*
X1692913Y4488189D03*
D21*
X1574803Y6163189D03*
D14*
X11796063Y918110D03*
X1639764Y7102362D03*
D21*
X9433071Y2052953D03*
X1559055Y3092323D03*
D19*
X1639764Y3587992D03*
Y7170669D03*
D18*
X6417323Y2952756D03*
D14*
X6284252Y3988976D03*
X7071654Y1941732D03*
D21*
X6299213Y3604134D03*
X6283465D03*
X11007874Y5139567D03*
D14*
X6284252Y4500787D03*
D21*
X1559055Y2564764D03*
X7070866Y2580512D03*
D20*
X6284449Y4055906D03*
D21*
X1559055Y4100197D03*
D18*
X9566929Y393701D03*
D15*
X8419685Y4547244D03*
D21*
X6299213Y4612008D03*
X7070866Y517520D03*
D14*
X5496850Y6036220D03*
D21*
X7102362Y2580512D03*
D14*
X6364173Y4543307D03*
D21*
X7070866Y2068701D03*
X11795276Y5139567D03*
X-15748Y6163189D03*
D18*
X11862205Y4488189D03*
D14*
X6284252Y5524409D03*
D21*
X1559055Y6147441D03*
D14*
X5496850Y6548031D03*
D20*
X772638Y5079528D03*
D14*
X6364173Y5055118D03*
X772441Y7571654D03*
D21*
X4708661Y4627756D03*
X-15748Y7682874D03*
Y7171063D03*
X1574803Y5651378D03*
X0Y7682874D03*
X771654Y3588386D03*
D18*
X1625984Y5000000D03*
D19*
X64961Y6658858D03*
D21*
X-15748Y4100197D03*
D19*
X4789370Y3076181D03*
D18*
X51181Y6535433D03*
X838583Y5511811D03*
D21*
X4740157Y1541142D03*
X1590551Y5139567D03*
D14*
X1639764Y4543307D03*
D21*
X7102362Y517520D03*
D14*
X7151575Y7614173D03*
D21*
X1559055Y7186811D03*
D18*
X11929134Y1417323D03*
D14*
X7151575Y3519685D03*
D20*
X2347441Y7638583D03*
D18*
X1625984Y3976378D03*
D20*
X1560039Y6103150D03*
D18*
X838583Y5000000D03*
D21*
X2346457Y7682874D03*
X6299213Y1045079D03*
D18*
X2480315Y-118110D03*
D21*
X6314961Y5123819D03*
X6283465Y6163189D03*
D20*
X6284449Y5591339D03*
D18*
X7992126Y3464567D03*
D14*
X2427165Y7614173D03*
X7071654Y918110D03*
D18*
X6350394Y3976378D03*
X6417323Y6023622D03*
D19*
X6364173Y3587992D03*
Y1540748D03*
D21*
X6314961Y6675000D03*
D18*
X7204724Y3976378D03*
X5562992Y6535433D03*
D21*
X10220472Y7698622D03*
D14*
X4620079Y765748D03*
D19*
X7151575Y2564370D03*
D20*
X-14764Y7638583D03*
D14*
X-14961Y7571654D03*
D18*
X118110Y7559055D03*
D21*
X7086614Y3588386D03*
D19*
X6364173Y4611614D03*
D14*
X772441Y5524409D03*
D21*
X1559055Y5139567D03*
X1590551Y5123819D03*
D14*
X-14961Y5524409D03*
X9513780Y6078740D03*
D21*
X7070866Y2052953D03*
D19*
X852362Y5635236D03*
D21*
X1574803Y5123819D03*
Y5139567D03*
D20*
X1560039Y5079528D03*
D18*
X1692913Y6023622D03*
D21*
X1559055Y6163189D03*
D18*
X1692913Y6535433D03*
D21*
X2362205Y7682874D03*
D14*
X1559843Y7571654D03*
D21*
X6314961Y4115945D03*
X2377953Y7682874D03*
X6283465Y4100197D03*
X2377953Y7698622D03*
D18*
X6350394Y5511811D03*
D19*
X6364173Y5123425D03*
D21*
X0Y4115945D03*
D14*
X1266142Y227559D03*
D21*
X11023622Y6675000D03*
X6283465Y7171063D03*
D20*
X7071850Y985039D03*
D18*
X6417323Y5511811D03*
D21*
X6283465Y6147441D03*
X1559055Y4612008D03*
D14*
X6284252Y7059843D03*
Y2453543D03*
D21*
X1590551Y2052953D03*
X6299213Y6147441D03*
X1559055Y4627756D03*
D18*
X1692913Y3464567D03*
D14*
X852362Y4031496D03*
D21*
X-15748Y6675000D03*
X6283465D03*
X6299213Y6659252D03*
D19*
X6364173Y5635236D03*
D21*
X6283465Y2580512D03*
X7102362Y533268D03*
X7086614D03*
D18*
X7137795Y2440945D03*
D14*
X3832677Y481102D03*
D19*
X7151575Y7170669D03*
D17*
X3718898Y503937D03*
D16*
X9146063Y4606299D03*
D21*
X7070866Y533268D03*
D19*
X11875984Y6147047D03*
D14*
X11796063Y7059843D03*
D21*
X11811024Y6147441D03*
D14*
X11796063Y6036220D03*
D21*
X6314961Y2052953D03*
D18*
X6350394Y7047244D03*
D21*
X7086614Y1556890D03*
D16*
X11508268Y496063D03*
D21*
X11826772Y6163189D03*
D14*
X6364173Y7102362D03*
D15*
X10781890Y555118D03*
D14*
X2347244Y7571654D03*
X852362Y3007874D03*
D21*
X771654Y7698622D03*
D19*
X852362Y7682480D03*
D21*
X787402Y7698622D03*
X803150D03*
D14*
X1639764Y5055118D03*
D20*
X1560039Y5591339D03*
D19*
X852362Y3076181D03*
D15*
X3695276Y452756D03*
D19*
X1639764Y5123425D03*
D21*
X2362205Y3076575D03*
X787402Y5123819D03*
D20*
X6284449Y3032283D03*
D21*
X1559055Y5635630D03*
D18*
X2480315Y7559055D03*
X7137795Y5511811D03*
X1625984Y6535433D03*
D20*
X1560039Y6614961D03*
D18*
X9566929Y3464567D03*
D21*
X0Y4612008D03*
D19*
X5576772Y1028937D03*
D18*
X1625984Y5511811D03*
D20*
X7071850Y2520472D03*
D19*
X2427165Y7682480D03*
D20*
X2347441Y-38583D03*
D19*
X7151575Y3076181D03*
D21*
X2346457Y5709D03*
D14*
X1559843Y5524409D03*
D18*
X7137795Y3464567D03*
D14*
X6284252Y5012598D03*
D21*
X7889764Y21457D03*
D20*
X1560039Y7126772D03*
D14*
X11875984Y5055118D03*
D21*
X1590551Y6163189D03*
D14*
X11875984Y4543307D03*
D18*
X6350394Y6023622D03*
D14*
X11796063Y5012598D03*
D20*
X6284449Y5079528D03*
D21*
X7070866Y7171063D03*
D14*
X6284252Y6036220D03*
D21*
X7102362Y2068701D03*
D19*
X6364173Y6147047D03*
D21*
X6283465Y5139567D03*
D20*
X6284449Y6103150D03*
D14*
X1639764Y2496063D03*
D20*
X6284449Y7126772D03*
D18*
X1625984Y6023622D03*
D19*
X6364173Y1028937D03*
D14*
X7151575Y2496063D03*
X10221260Y-105512D03*
D21*
X1574803Y1541142D03*
X11795276Y4627756D03*
X11023622Y2580512D03*
X1559055Y4115945D03*
Y6675000D03*
X11826772Y4627756D03*
D18*
X11929134Y905512D03*
D21*
X803150Y3588386D03*
D18*
X11929134Y7047244D03*
D21*
X1559055Y3076575D03*
X15748Y5139567D03*
D14*
X11875984Y7102362D03*
D21*
X11826772Y6675000D03*
D18*
X6350394Y2440945D03*
D14*
X11796063Y6548031D03*
D18*
X11929134Y6535433D03*
X1692913Y3976378D03*
D19*
X11875984Y1028937D03*
D20*
X11796260Y6614961D03*
D15*
X4482677Y555118D03*
D18*
X1692913Y905512D03*
X11862205D03*
D19*
X11875984Y1540748D03*
D14*
X4620079Y481102D03*
D21*
X6314961Y1045079D03*
X11007874Y1556890D03*
X803150Y3604134D03*
D14*
X-308661Y227559D03*
D18*
X51181Y393701D03*
D21*
X1590551Y2564764D03*
X-15748Y517520D03*
D14*
X4620079Y369291D03*
D19*
X64961Y1028937D03*
D18*
X118110Y905512D03*
D20*
X6284449Y3544094D03*
D21*
X15748Y1045079D03*
D18*
X2413386Y7559055D03*
D14*
X6364173Y4031496D03*
X64961Y448819D03*
D19*
Y517126D03*
D21*
X0Y517520D03*
X15748D03*
X7102362Y3604134D03*
D14*
X-14961Y918110D03*
D19*
X5576772Y3587992D03*
D20*
X-14764Y985039D03*
D21*
X6299213Y7186811D03*
X1559055Y7171063D03*
X6283465Y7698622D03*
D14*
X64961Y960630D03*
D18*
X51181Y905512D03*
D21*
X1590551Y1541142D03*
D14*
X2347244Y-105512D03*
D21*
X-15748Y1045079D03*
D14*
X6364173Y448819D03*
D21*
X7070866Y3604134D03*
D19*
X7151575Y4611614D03*
D21*
X6314961Y6659252D03*
D18*
X6417323Y7559055D03*
D21*
X15748Y1029331D03*
D14*
X7151575Y4031496D03*
D21*
X0Y5635630D03*
X0Y1029331D03*
X1590551Y7186811D03*
X-15748Y6659252D03*
D20*
X11796260Y6103150D03*
D14*
X852362Y7614173D03*
D19*
X1639764Y1028937D03*
D21*
X803150Y4612008D03*
D18*
X1692913Y1417323D03*
D14*
X2978346Y369291D03*
D20*
X1560039Y-38583D03*
X-14764Y473228D03*
D21*
X2346457Y517520D03*
D17*
X2903937Y503937D03*
D14*
X9207087Y227559D03*
X10064961Y4463780D03*
D21*
X15748Y4612008D03*
X6283465Y1029331D03*
D14*
X1559843Y7059843D03*
D21*
X1590551Y5709D03*
D14*
X7151575Y960630D03*
D21*
X1559055Y5123819D03*
X5496063Y5651378D03*
X6314961Y533268D03*
X803150Y4627756D03*
D18*
X7137795Y1929134D03*
X1625984Y2952756D03*
D21*
X6283465Y517520D03*
D14*
X64961Y7614173D03*
D16*
X1413780Y511811D03*
D14*
X3045276Y548031D03*
D21*
X6299213Y5635630D03*
D14*
X9513780Y4543307D03*
D21*
X1574803Y6675000D03*
D19*
X11875984Y517126D03*
X852362Y3587992D03*
D14*
X7938976Y1472441D03*
D19*
X6364173Y2564370D03*
D21*
X7086614Y3076575D03*
D19*
X5576772Y1540748D03*
D21*
X-15748Y1029331D03*
X10236220Y5139567D03*
D18*
X905512Y7559055D03*
D21*
X771654Y4115945D03*
X6283465Y1045079D03*
X11826772Y5139567D03*
D20*
X9434055Y7126772D03*
D14*
X2047244Y7862205D03*
D21*
X1574803Y2052953D03*
X7070866Y3092323D03*
X5527559Y6163189D03*
D19*
X1639764Y6147047D03*
Y2564370D03*
D21*
X1574803Y4627756D03*
X7102362Y1029331D03*
X9433071Y2068701D03*
D19*
X7938976Y517126D03*
D15*
X2927559Y4649606D03*
D18*
X6417323Y2440945D03*
D21*
X7102362Y3588386D03*
D18*
X6417323Y6535433D03*
X6350394Y3464567D03*
D21*
X7086614Y1541142D03*
D19*
X6364173Y6658858D03*
D21*
X3952756Y4627756D03*
D19*
X1639764Y5315D03*
D21*
X11795276Y5123819D03*
X7102362Y3076575D03*
D15*
X4482677Y452756D03*
D21*
X15748Y7682874D03*
X11811024Y5651378D03*
X6314961Y21457D03*
D18*
X11929134Y5511811D03*
D14*
X1559843Y5012598D03*
D15*
X3655906Y452756D03*
D18*
X11929134Y6023622D03*
D19*
X1639764Y2052559D03*
D14*
X772441Y5012598D03*
D21*
X1559055Y5709D03*
D14*
X5496850Y7059843D03*
X11706693Y4396850D03*
X7151575Y448819D03*
D19*
X6364173Y4099803D03*
D14*
X1639764Y6590551D03*
D18*
X118110Y393701D03*
D16*
X10862598Y4606299D03*
D21*
X1590551Y4627756D03*
X7070866Y2564764D03*
X1590551Y6147441D03*
X6314961Y7698622D03*
D18*
X5629921Y3464567D03*
D14*
X6284252Y-105512D03*
D21*
X803150Y4115945D03*
X0Y1045079D03*
X6299213Y6675000D03*
D18*
X1625984Y7047244D03*
X6350394Y5000000D03*
D21*
X2362205Y7698622D03*
D16*
X3634252Y496063D03*
D14*
X7151575Y1984252D03*
D15*
X5270079Y452756D03*
D14*
X852362Y3519685D03*
X1559843Y1941732D03*
D21*
X4740157Y3604134D03*
X6283465Y3076575D03*
D14*
X1559843Y2965354D03*
D21*
X771654Y5123819D03*
D14*
X8352756Y4188189D03*
D21*
X6283465Y2052953D03*
D18*
X51181Y5000000D03*
D19*
X11875984Y6658858D03*
D14*
X-308661Y93701D03*
D21*
X1574803Y7171063D03*
D14*
X7071654Y2453543D03*
X6284252Y406299D03*
D21*
X1590551Y3604134D03*
D20*
X5497047Y6614961D03*
D21*
X1590551Y4100197D03*
D18*
X1625984Y3464567D03*
D21*
X7070866Y21457D03*
X11023622Y5139567D03*
X6299213Y7171063D03*
X-15748Y533268D03*
D18*
X7204724Y2440945D03*
D21*
X0Y533268D03*
X5496063Y6659252D03*
D18*
X9566929Y1417323D03*
D21*
X6314961Y1029331D03*
X6283465Y6659252D03*
D18*
X905512Y905512D03*
D21*
X7086614Y7682874D03*
D19*
X64961Y7682480D03*
D21*
X0Y6675000D03*
D19*
X852362Y4099803D03*
D14*
X7071654Y3988976D03*
D21*
X-15748Y7698622D03*
X1559055Y3588386D03*
D18*
X7204724Y-118110D03*
D21*
X6283465Y5651378D03*
X2377953Y5709D03*
X11811024Y6659252D03*
D14*
X-14961Y406299D03*
D17*
X-218110Y4598425D03*
D21*
X15748Y4100197D03*
D15*
X2179528Y4649606D03*
D18*
X6417323Y-118110D03*
D15*
X9266142Y4649606D03*
D21*
X1590551Y21457D03*
X9464567Y5651378D03*
X11039370Y4115945D03*
D14*
X6284252Y1941732D03*
X64961Y6590551D03*
X5337008Y227559D03*
D19*
X11875984Y5635236D03*
X6364173Y517126D03*
D14*
X7151575Y3007874D03*
D21*
X6314961Y6163189D03*
Y7171063D03*
D19*
X6364173Y5315D03*
D21*
X6314961Y3076575D03*
D14*
X8726378Y-62992D03*
D21*
X7102362Y6659252D03*
X6283465Y7186811D03*
D14*
X7938976Y3519685D03*
D21*
X6299213Y533268D03*
D14*
X7151575Y1472441D03*
X6284252Y2965354D03*
D18*
X7992126Y7047244D03*
D21*
X6299213Y4100197D03*
D20*
X1560039Y3032283D03*
D14*
X5407480Y4927165D03*
D19*
X5576772Y2564370D03*
D14*
X1639764Y3007874D03*
D18*
X6417323Y393701D03*
X1692913Y5000000D03*
D20*
X1560039Y2008661D03*
D14*
X4616535Y227559D03*
D21*
X7086614Y7171063D03*
X1590551Y2068701D03*
X1574803Y3604134D03*
X6314961Y5651378D03*
X1574803Y2580512D03*
Y21457D03*
D19*
X1639764Y5635236D03*
D21*
X10251969Y5123819D03*
X6314961Y7186811D03*
D18*
X838583Y7559055D03*
X6417323Y5000000D03*
D21*
X7102362Y2564764D03*
D19*
X8726378Y6658858D03*
D21*
X6314961Y1541142D03*
D18*
X7137795Y2952756D03*
D21*
X7070866Y7682874D03*
D14*
X6364173Y3007874D03*
D21*
X1574803Y1029331D03*
D16*
X9287795Y511811D03*
D14*
X1559843Y918110D03*
D21*
X15748Y6163189D03*
X6314961Y6147441D03*
D14*
X8646457Y3988976D03*
D18*
X5629921Y7047244D03*
D21*
X15748Y533268D03*
D14*
X1559843Y6548031D03*
D21*
X7086614Y5123819D03*
X0Y6147441D03*
X6314961Y3604134D03*
D18*
X1692913Y7047244D03*
D20*
X6284449Y1496850D03*
D18*
X1692913Y1929134D03*
D14*
X6364173Y5566929D03*
D18*
X6417323Y7047244D03*
D21*
X7086614Y2068701D03*
D19*
X7151575Y2052559D03*
D18*
X51181Y7559055D03*
D19*
X1639764Y1540748D03*
D15*
X2120472Y4547244D03*
D18*
X118110Y7047244D03*
D21*
X1559055Y7682874D03*
D20*
X7071850Y3032283D03*
D21*
X1590551Y517520D03*
X6299213Y7698622D03*
D14*
X9344488Y369291D03*
X7071654Y-105512D03*
X8557087Y4575591D03*
D21*
X15748Y6675000D03*
D18*
X51181Y7047244D03*
D14*
X1639764Y3519685D03*
D15*
X3675591Y452756D03*
D21*
X10236220Y5123819D03*
D20*
X772638Y1496850D03*
D21*
X803150Y2580512D03*
D20*
X3134843Y3032283D03*
D21*
X4740157Y4612008D03*
D18*
X838583Y1929134D03*
D14*
X3922047Y1429921D03*
D18*
X905512Y2440945D03*
D21*
X803150Y5709D03*
X3937008Y533268D03*
X3133858Y6163189D03*
D18*
X4055118Y2440945D03*
D21*
X3937008Y7171063D03*
X3921260Y1045079D03*
X3937008Y5123819D03*
D18*
X4055118Y4488189D03*
D21*
X3952756Y6147441D03*
X771654Y2580512D03*
D20*
X3134843Y3544094D03*
X772638Y-38583D03*
D21*
X787402Y533268D03*
D18*
X905512Y393701D03*
D15*
X8459055Y555118D03*
D20*
X3922244Y4567717D03*
D21*
X3952756Y3604134D03*
D14*
X852362Y-62992D03*
D18*
X838583Y-118110D03*
D21*
X803150Y517520D03*
X787402Y2052953D03*
D18*
X3988189Y1417323D03*
D21*
X771654Y2052953D03*
X3149606Y5123819D03*
D14*
X852362Y2496063D03*
D21*
X11039370Y6659252D03*
X11007874Y6163189D03*
X3149606Y5651378D03*
D19*
X11088583Y4611614D03*
D21*
X4740157Y5123819D03*
D18*
X1625984Y393701D03*
D15*
X4522047Y452756D03*
D14*
X4616535Y160630D03*
D21*
X787402Y1556890D03*
D18*
X905512Y1929134D03*
D21*
X3921260Y3604134D03*
D20*
X3134843Y2520472D03*
D21*
X3165354Y1541142D03*
X771654Y1556890D03*
D20*
X7071850Y6103150D03*
D21*
X3937008Y1045079D03*
D14*
X3134646Y5524409D03*
D21*
X3133858Y1541142D03*
X11023622Y7171063D03*
D20*
X11008858Y5591339D03*
D18*
X3200787Y3464567D03*
D21*
X3952756Y2580512D03*
D14*
X5496850Y918110D03*
D21*
X3952756Y5139567D03*
D18*
X3200787Y5511811D03*
D21*
X771654Y1045079D03*
D14*
X2978346Y302362D03*
D21*
X11007874Y6147441D03*
X3952756Y5123819D03*
D19*
X852362Y2564370D03*
D20*
X3134843Y5079528D03*
D21*
X3921260Y517520D03*
D14*
X6284252Y1429921D03*
D21*
X3921260Y5635630D03*
X3149606Y2052953D03*
X11811024Y5123819D03*
D19*
X2427165Y7170669D03*
X3214567Y2052559D03*
D15*
X4482677Y4649606D03*
D16*
X2201181Y496063D03*
D18*
X905512Y-118110D03*
D14*
X11796063Y2453543D03*
D21*
X803150Y2564764D03*
X7874016Y6659252D03*
D18*
X11074803Y5511811D03*
D14*
X10301181Y960630D03*
D21*
X3165354Y2052953D03*
D19*
X4001969Y2564370D03*
D14*
X5984252Y7791339D03*
D21*
X3952756Y1045079D03*
D19*
X852362Y5315D03*
D21*
X3937008Y5635630D03*
D14*
X3134646Y3477165D03*
D15*
X2966929Y555118D03*
D14*
X772441Y1941732D03*
D21*
X3165354Y5123819D03*
D18*
X3988189Y2440945D03*
D14*
X3134646Y5012598D03*
D21*
X3952756Y533268D03*
X771654Y517520D03*
D15*
X4502362Y452756D03*
D18*
X3988189Y5000000D03*
D21*
X3165354Y2068701D03*
D14*
X3134646Y1429921D03*
D19*
X3214567Y6147047D03*
D21*
X3165354Y5651378D03*
D20*
X3134843Y6103150D03*
D18*
X9566929Y1929134D03*
D14*
X4415748Y93701D03*
D21*
X3149606Y1541142D03*
D19*
X11875984Y7682480D03*
D20*
X772638Y3544094D03*
D21*
X3952756Y517520D03*
D18*
X11141732Y1929134D03*
D14*
X2254331Y160630D03*
D21*
X3165354Y6147441D03*
D14*
X3922047Y4500787D03*
D21*
X3952756Y5635630D03*
D18*
X3267717Y5511811D03*
D21*
X3133858Y6675000D03*
D18*
X11929134Y7559055D03*
D14*
X4001969Y2496063D03*
D21*
X771654Y533268D03*
D14*
X3628346Y26772D03*
D18*
X3267717Y6023622D03*
D21*
X803150Y533268D03*
X3149606Y6675000D03*
D14*
X772441Y1429921D03*
D18*
X838583Y3464567D03*
D21*
X3149606Y3604134D03*
D14*
X772441Y918110D03*
D21*
X3165354Y3604134D03*
D18*
X3267717Y2952756D03*
X838583D03*
X3267717Y3464567D03*
D20*
X3134843Y5591339D03*
D21*
X787402Y517520D03*
D14*
X3134646Y2453543D03*
D21*
X3149606Y6147441D03*
X11007874Y1029331D03*
D14*
X3922047Y918110D03*
X852362Y1984252D03*
D21*
X3921260Y533268D03*
X3133858Y6147441D03*
Y2052953D03*
X3937008Y517520D03*
X3165354Y6675000D03*
X3937008Y3604134D03*
D19*
X6364173Y7682480D03*
D21*
X3165354Y6163189D03*
X3921260Y7171063D03*
X771654Y7682874D03*
D14*
X772441Y3477165D03*
D20*
X772638Y3032283D03*
D14*
X772441Y-105512D03*
D21*
X11007874Y5651378D03*
X3921260Y4115945D03*
X3165354Y5139567D03*
D18*
X3988189Y2952756D03*
D21*
X6299213Y3092323D03*
D14*
X11088583Y1984252D03*
X3214567Y3519685D03*
D16*
X6138189Y4590551D03*
D21*
X787402Y1045079D03*
D14*
X8646457Y5524409D03*
D15*
X2966929Y452756D03*
D21*
X803150Y1541142D03*
D15*
X4541732Y555118D03*
D21*
X803150Y1556890D03*
X787402Y2564764D03*
D15*
X1313386Y452756D03*
D21*
X3149606Y2564764D03*
Y3092323D03*
X3937008Y6675000D03*
X4740157Y3092323D03*
X3937008Y1541142D03*
X771654Y2068701D03*
D20*
X3922244Y1496850D03*
D21*
X771654Y3092323D03*
X3952756Y2564764D03*
X787402Y3076575D03*
D15*
X7632283Y4649606D03*
D21*
X803150Y21457D03*
X3937008Y6163189D03*
X3149606Y6659252D03*
X3937008Y3092323D03*
X3952756Y5651378D03*
Y3092323D03*
X3937008Y5651378D03*
D20*
X3922244Y5079528D03*
D21*
X3937008Y7186811D03*
D14*
X852362Y1472441D03*
D21*
X3921260Y6147441D03*
D19*
X4001969Y4099803D03*
D21*
X787402Y2580512D03*
D14*
X3214567Y3007874D03*
D21*
X5511811Y7682874D03*
X771654Y1029331D03*
D18*
X838583Y393701D03*
D16*
X4563386Y511811D03*
D14*
X9433858Y7571654D03*
D18*
X3988189Y3976378D03*
D20*
X772638Y473228D03*
D21*
X771654Y21457D03*
Y1541142D03*
X787402Y1029331D03*
X8677165Y7698622D03*
X11039370Y1029331D03*
D14*
X7632283Y4322047D03*
D18*
X4055118Y3976378D03*
D19*
X852362Y2052559D03*
X3214567Y5123425D03*
D21*
X787402Y2068701D03*
D14*
X5403937Y160630D03*
D21*
X803150Y3092323D03*
D14*
X11008661Y1941732D03*
D18*
X11074803Y1929134D03*
D14*
X3214567Y6078740D03*
D21*
X11007874Y2052953D03*
X771654Y3076575D03*
X803150Y7682874D03*
X7889764Y1556890D03*
X771654Y2564764D03*
D20*
X772638Y2520472D03*
D18*
X3200787Y1417323D03*
D14*
X3922047Y3988976D03*
X3762205Y160630D03*
D15*
X4522047Y555118D03*
D14*
X3214567Y1472441D03*
X772441Y2453543D03*
D21*
X3921260Y3076575D03*
D15*
X2100787Y555118D03*
D21*
X3165354Y5635630D03*
Y1556890D03*
X11039370Y2068701D03*
X7874016D03*
D19*
X3214567Y3076181D03*
D21*
X3149606Y3076575D03*
D14*
X3922047Y5012598D03*
D21*
X3149606Y5635630D03*
X11007874D03*
D14*
X3922047Y5524409D03*
D18*
X3267717Y5000000D03*
D14*
X3922047Y406299D03*
D21*
X787402Y3092323D03*
D14*
X4001969Y5055118D03*
D21*
X11795276Y7698622D03*
X3921260Y5139567D03*
X3133858Y2564764D03*
X787402Y5709D03*
X3133858Y3604134D03*
D14*
X3134646Y6036220D03*
D19*
X11088583Y2052559D03*
D21*
X3133858Y3588386D03*
X3149606Y2068701D03*
X3952756Y3076575D03*
X3921260Y1541142D03*
X803150Y2068701D03*
D14*
X852362Y448819D03*
X3134646Y2965354D03*
D20*
X772638Y2008661D03*
D21*
X3133858Y5139567D03*
D14*
X3214567Y5566929D03*
D21*
X3952756Y1029331D03*
D14*
X772441Y406299D03*
X4001969Y4543307D03*
D21*
X3133858Y2068701D03*
D18*
X3200787Y7047244D03*
D21*
X3133858Y1045079D03*
Y6659252D03*
Y5651378D03*
D14*
X3134646Y6548031D03*
D21*
X8677165Y533268D03*
X3149606Y1556890D03*
X11826772Y7682874D03*
D18*
X905512Y3464567D03*
D21*
X3921260Y1029331D03*
X11023622Y2052953D03*
D14*
X3214567Y6590551D03*
Y5055118D03*
X3134646Y7059843D03*
D21*
X11811024Y7698622D03*
X10236220D03*
X803150Y1029331D03*
D16*
X4421654Y511811D03*
D20*
X3134843Y6614961D03*
D14*
X852362Y960630D03*
D21*
X787402Y1541142D03*
D18*
X905512Y2952756D03*
X3267717Y3976378D03*
D21*
X803150Y1045079D03*
X5527559Y6675000D03*
X5511811Y7186811D03*
X3165354Y3588386D03*
X803150Y3076575D03*
X3149606Y3588386D03*
X3133858Y5635630D03*
D20*
X772638Y985039D03*
D21*
X3165354Y2564764D03*
D18*
X6417323Y905512D03*
D14*
X4001969Y960630D03*
D18*
X11141732Y7047244D03*
X3267717Y6535433D03*
D14*
X3134646Y1941732D03*
D21*
X3937008Y1029331D03*
D19*
X3214567Y6658858D03*
D21*
X9433071Y6675000D03*
X803150Y2052953D03*
D18*
X3200787Y6023622D03*
D21*
X3921260Y3092323D03*
X787402Y7682874D03*
X7874016Y7698622D03*
D14*
X772441Y2965354D03*
D21*
X771654Y5709D03*
D20*
X3922244Y985039D03*
Y4055906D03*
D14*
X3045276Y302362D03*
D21*
X3937008Y3076575D03*
X787402Y21457D03*
X11039370Y2052953D03*
D14*
X852362Y6078740D03*
D21*
X771654Y5635630D03*
D20*
X5497047Y-38583D03*
D18*
X905512Y5511811D03*
D15*
X4541732Y452756D03*
X4462992Y555118D03*
D21*
X803150Y6659252D03*
X787402Y6675000D03*
D14*
X3214567Y1984252D03*
X3134646Y3988976D03*
D16*
X4563386Y496063D03*
D21*
X787402Y6163189D03*
D14*
X3214567Y4031496D03*
D21*
X787402Y6659252D03*
D18*
X838583Y6535433D03*
X3200787Y3976378D03*
D14*
X852362Y6590551D03*
D21*
X803150Y7171063D03*
Y6163189D03*
Y7186811D03*
X3937008Y4100197D03*
D20*
X772638Y7126772D03*
D21*
X3133858Y3092323D03*
X3149606Y7171063D03*
X11811024Y2068701D03*
D20*
X6284449Y7638583D03*
D21*
X3165354Y7171063D03*
X3921260Y7682874D03*
D19*
X10301181Y6147047D03*
D14*
X3041732Y160630D03*
D21*
X3952756Y5709D03*
D14*
X4001969Y4031496D03*
D21*
X803150Y5651378D03*
D14*
X772441Y7059843D03*
X11502362Y4121260D03*
D19*
X6364173Y7170669D03*
D15*
X5270079Y4547244D03*
D20*
X3922244Y473228D03*
D18*
X3988189Y1929134D03*
D20*
X8646654Y1496850D03*
D21*
X3921260Y1556890D03*
X8677165Y21457D03*
D14*
X4001969Y1984252D03*
D21*
X3952756Y1541142D03*
D14*
X3045276Y481102D03*
D18*
X3988189Y393701D03*
D21*
X3937008Y7682874D03*
Y2564764D03*
D18*
X3267717Y905512D03*
D14*
X679528Y4255118D03*
D21*
X3149606Y1045079D03*
D14*
X3922047Y2965354D03*
Y3477165D03*
X2257874Y832677D03*
D21*
X3921260Y2580512D03*
X771654Y7186811D03*
D15*
X2888189Y555118D03*
D18*
X4055118Y5511811D03*
D14*
X4001969Y6078740D03*
X3922047Y6036220D03*
D18*
X3988189Y4488189D03*
X905512Y5000000D03*
D21*
X3921260Y6163189D03*
X3937008Y4612008D03*
D18*
X905512Y7047244D03*
D21*
X3133858Y4115945D03*
D14*
X772441Y6036220D03*
D21*
X3937008Y5139567D03*
D14*
X852362Y5055118D03*
D20*
X4709646Y4055906D03*
D21*
X3937008Y3588386D03*
X787402Y5651378D03*
D16*
X4421654Y496063D03*
D18*
X905512Y6023622D03*
D21*
X803150Y6147441D03*
D14*
X772441Y6548031D03*
D19*
X852362Y6147047D03*
D21*
X11023622Y6163189D03*
D20*
X772638Y6614961D03*
X3134843Y7126772D03*
D18*
X905512Y6535433D03*
D21*
X787402Y7186811D03*
X11007874Y2564764D03*
X11039370Y7171063D03*
X11023622Y2564764D03*
D19*
X1639764Y4099803D03*
D21*
X787402Y6147441D03*
X771654Y6675000D03*
D18*
X838583Y6023622D03*
D21*
X3149606Y4115945D03*
X11826772Y7698622D03*
D18*
X3200787Y5000000D03*
D20*
X3134843Y1496850D03*
D21*
X803150Y6675000D03*
D20*
X3922244Y3032283D03*
D19*
X3214567Y1028937D03*
D15*
X2868504Y555118D03*
D21*
X3133858Y1556890D03*
X11039370Y2564764D03*
D19*
X4001969Y5315D03*
D18*
X3200787Y2440945D03*
D19*
X3214567Y4099803D03*
D21*
X3133858Y4627756D03*
D20*
X3922244Y5591339D03*
D18*
X3267717Y1417323D03*
X3200787Y905512D03*
D14*
X3214567Y4543307D03*
X4553150Y302362D03*
D21*
X11007874Y2068701D03*
D18*
X3988189Y5511811D03*
D19*
X3214567Y1540748D03*
D14*
X4001969Y1472441D03*
D21*
X3921260Y5651378D03*
D18*
X838583Y7047244D03*
D21*
X3149606Y2580512D03*
X3133858Y4100197D03*
X11007874Y2580512D03*
D14*
X3134646Y4500787D03*
D21*
X3133858Y7171063D03*
D18*
X3988189Y3464567D03*
D19*
X852362Y5123425D03*
D21*
X3165354Y4100197D03*
X3149606Y7186811D03*
D19*
X3214567Y3587992D03*
D21*
X3937008Y1556890D03*
X7070866Y5635630D03*
D19*
X4001969Y4611614D03*
D21*
X3921260Y5709D03*
X3165354Y7186811D03*
X3937008Y5709D03*
X11795276Y7682874D03*
D20*
X11008858Y2008661D03*
D16*
X626378Y4606299D03*
D21*
X3952756Y7682874D03*
X11795276Y7171063D03*
X771654Y6163189D03*
X9448819Y2052953D03*
X771654Y6147441D03*
D20*
X772638Y6103150D03*
D15*
X8439370Y555118D03*
D21*
X771654Y7171063D03*
X3165354Y4115945D03*
D20*
X3134843Y4055906D03*
D19*
X3214567Y5635236D03*
D21*
X3133858Y7186811D03*
D18*
X4055118Y1929134D03*
D21*
X3952756Y6659252D03*
D18*
X3267717Y2440945D03*
D21*
X3952756Y1556890D03*
D19*
X3214567Y7170669D03*
D21*
X771654Y6659252D03*
X3937008Y2580512D03*
X787402Y5635630D03*
Y7171063D03*
X803150Y5635630D03*
X3952756Y4612008D03*
D20*
X3922244Y3544094D03*
D21*
X771654Y5651378D03*
X11039370Y2580512D03*
X2377953Y21457D03*
D19*
X2427165Y5315D03*
D14*
Y-62992D03*
D21*
X2377953Y2580512D03*
D19*
X2427165Y2564370D03*
D17*
X4478740Y503937D03*
D18*
X51181Y4488189D03*
D21*
X2346457Y3076575D03*
D20*
X6284449Y6614961D03*
D14*
X4553150Y4396850D03*
X683071Y832677D03*
D18*
X118110Y4488189D03*
D21*
X2362205Y5139567D03*
D20*
X772638Y5591339D03*
D18*
X2413386Y5511811D03*
D14*
X2347244Y5524409D03*
X3765748Y302362D03*
D21*
X2377953Y5139567D03*
Y5123819D03*
D19*
X852362Y6658858D03*
D21*
X2362205Y5123819D03*
Y6147441D03*
Y6163189D03*
X2377953Y5635630D03*
D19*
X3214567Y2564370D03*
D21*
X3165354Y3076575D03*
X3149606Y4612008D03*
D18*
X2480315Y393701D03*
D14*
X2053543Y227559D03*
D19*
X3214567Y4611614D03*
D18*
X3267717Y4488189D03*
D14*
X-14961Y4500787D03*
D21*
X3921260Y4100197D03*
X3165354Y3092323D03*
D14*
X683071Y4860236D03*
D21*
X3937008Y7698622D03*
Y4115945D03*
X2377953Y6163189D03*
X771654Y4100197D03*
D14*
X10915748Y4322047D03*
D15*
X3734646Y452756D03*
D14*
X4620079Y548031D03*
D21*
X3133858Y2580512D03*
D14*
X4001969Y448819D03*
D21*
X3952756Y7698622D03*
D14*
X3922047Y-105512D03*
D19*
X4001969Y7682480D03*
D21*
X3937008Y4627756D03*
X3952756Y21457D03*
Y4115945D03*
X2362205Y21457D03*
D18*
X3200787Y1929134D03*
D21*
X6314961Y1556890D03*
X3937008Y2068701D03*
D14*
X3922047Y1941732D03*
D20*
X3922244Y2008661D03*
D14*
X3922047Y2453543D03*
D19*
X4001969Y2052559D03*
D14*
X3695276Y160630D03*
D21*
X3921260Y2068701D03*
Y2564764D03*
D18*
X4055118Y7559055D03*
D21*
X3165354Y1045079D03*
D19*
X4001969Y3076181D03*
D14*
Y3007874D03*
Y3519685D03*
D18*
X2480315Y6023622D03*
D15*
X2947244Y555118D03*
D19*
X4001969Y5123425D03*
D18*
X7137795Y3976378D03*
D21*
X3952756Y6163189D03*
X3921260Y4627756D03*
D20*
X3922244Y6103150D03*
D21*
X5527559Y1541142D03*
X-15748Y4627756D03*
X3165354Y4612008D03*
X2346457Y2580512D03*
D14*
X2427165Y448819D03*
D21*
X3921260Y4612008D03*
X3952756Y4100197D03*
X2377953Y1045079D03*
D18*
X2413386Y2440945D03*
D20*
X3134843Y4567717D03*
D14*
X2347244Y5012598D03*
D21*
X11039370Y1045079D03*
D19*
X4001969Y6147047D03*
D21*
X11007874Y7186811D03*
D19*
X3214567Y517126D03*
D21*
X2377953Y5651378D03*
D20*
X11008858Y4567717D03*
D21*
X11039370Y6147441D03*
D19*
X11088583Y2564370D03*
D21*
X2362205Y5651378D03*
X11023622Y3588386D03*
X11007874D03*
D20*
X-14764Y4567717D03*
D14*
X3214567Y7102362D03*
D21*
X3133858Y4612008D03*
X9433071Y7682874D03*
D14*
X11796063Y-105512D03*
D15*
X565354Y4649606D03*
D21*
X11811024Y4627756D03*
X11795276Y6675000D03*
X3921260Y7698622D03*
X3165354Y6659252D03*
D19*
X64961Y4611614D03*
D18*
X4055118Y3464567D03*
D14*
X4001969Y-62992D03*
D20*
X3922244Y7638583D03*
D18*
X3267717Y1929134D03*
D14*
X64961Y4543307D03*
X3214567Y2496063D03*
D21*
X3165354Y4627756D03*
D16*
X2846850Y496063D03*
D14*
X4001969Y5566929D03*
X3922047Y7571654D03*
D18*
X4055118Y393701D03*
Y5000000D03*
D14*
X4001969Y7614173D03*
D20*
X3922244Y2520472D03*
D21*
X3937008Y6147441D03*
X2377953D03*
X7858268Y2052953D03*
D20*
X7859252Y5591339D03*
D18*
X3200787Y4488189D03*
Y2952756D03*
D21*
X3952756Y3588386D03*
D14*
X852362Y5566929D03*
D20*
X8646654Y2008661D03*
D18*
X3988189Y7559055D03*
D21*
X3921260Y2052953D03*
X9448819Y5709D03*
D14*
X9513780Y3007874D03*
D20*
X7859252Y473228D03*
D21*
X3937008Y21457D03*
D18*
X11074803Y2440945D03*
X3988189Y-118110D03*
D14*
X2427165Y2496063D03*
D21*
X3921260Y21457D03*
D18*
X2413386Y2952756D03*
D16*
X1272047Y511811D03*
D14*
X5196850Y7862205D03*
D19*
X5576772Y5635236D03*
D21*
X3133858Y5123819D03*
X8677165Y3604134D03*
X7086614Y6163189D03*
D20*
X3922244Y-38583D03*
D21*
X3952756Y2052953D03*
Y2068701D03*
X3133858Y3076575D03*
X3937008Y2052953D03*
D20*
X2347441Y5079528D03*
D18*
X4055118Y2952756D03*
X2413386Y6023622D03*
D21*
X3149606Y4100197D03*
X3921260Y5123819D03*
Y3588386D03*
X2346457Y21457D03*
D18*
X11141732Y2440945D03*
D15*
X1392126Y452756D03*
D20*
X2347441Y473228D03*
Y985039D03*
D21*
X2362205Y5709D03*
Y3092323D03*
X2377953Y3076575D03*
D17*
X5293701Y503937D03*
D14*
X2347244Y3477165D03*
Y2965354D03*
D20*
X2347441Y3032283D03*
D21*
X2362205Y7186811D03*
D15*
X4443307Y555118D03*
D14*
X4415748Y26772D03*
D17*
X9990551Y4598425D03*
D18*
X2480315Y5000000D03*
D14*
X2427165Y5566929D03*
D21*
X2346457Y5635630D03*
D14*
X2427165Y5055118D03*
D21*
X2346457Y5139567D03*
D18*
X2413386Y5000000D03*
D19*
X2427165Y4611614D03*
D20*
X2347441Y5591339D03*
Y6103150D03*
D21*
X7102362Y6147441D03*
D14*
X6194882Y369291D03*
D21*
X2346457Y5651378D03*
X3952756Y7186811D03*
D14*
X2427165Y6590551D03*
D16*
X6925591Y4606299D03*
D18*
X3988189Y7047244D03*
D21*
X4740157Y7682874D03*
D18*
X4775591Y393701D03*
X10354331Y6535433D03*
D21*
X4740157Y517520D03*
D14*
X2347244Y918110D03*
X4789370Y960630D03*
D21*
X4724409Y517520D03*
D18*
X4775591Y1929134D03*
X4842520D03*
D21*
X4708661Y1556890D03*
X2346457Y3092323D03*
D18*
X4842520Y6023622D03*
D14*
X2347244Y406299D03*
D21*
X4724409Y3076575D03*
X4708661Y7698622D03*
D18*
X3200787Y6535433D03*
D21*
X4740157Y2580512D03*
X3921260Y6675000D03*
D14*
X4789370Y4031496D03*
D20*
X4709646Y6103150D03*
D21*
X2346457Y6147441D03*
D14*
X2427165Y6078740D03*
X2840945Y160630D03*
D15*
X5250394Y555118D03*
D14*
X5990551Y160630D03*
D15*
X2907874Y555118D03*
D14*
X5496850Y1941732D03*
D21*
X2346457Y6163189D03*
D19*
X2427165Y5123425D03*
D21*
X3952756Y7171063D03*
X4724409Y7698622D03*
X4708661Y4100197D03*
D14*
X2347244Y6036220D03*
D19*
X4789370Y4611614D03*
D18*
X3988189Y6023622D03*
D21*
X4708661Y4612008D03*
D14*
X7938976Y3007874D03*
D18*
X8712598Y5511811D03*
D21*
X6283465Y5635630D03*
X4708661Y5123819D03*
Y3604134D03*
X5527559Y6147441D03*
D18*
X4842520Y4488189D03*
X4775591D03*
D14*
X9513780Y1472441D03*
D19*
X4789370Y6147047D03*
D21*
X2377953Y517520D03*
X11023622D03*
D19*
X11875984Y5315D03*
D18*
X2480315Y6535433D03*
X8779528D03*
D20*
X4709646Y6614961D03*
D14*
X4709449Y6548031D03*
D18*
X4775591Y6535433D03*
X4842520D03*
D21*
X9433071Y5651378D03*
D19*
X10301181Y5315D03*
D21*
X4740157Y6675000D03*
D18*
X4775591Y6023622D03*
X4842520Y7047244D03*
D21*
X2377953Y533268D03*
D20*
X4709646Y3032283D03*
D21*
X8645669Y3092323D03*
X4708661Y6675000D03*
D18*
X4775591Y7047244D03*
D21*
X7889764Y7186811D03*
D18*
X8779528Y1929134D03*
D14*
X4709449Y7059843D03*
D19*
X4789370Y6658858D03*
D21*
X3921260Y7186811D03*
D20*
X4709646Y473228D03*
D14*
X10919291Y832677D03*
D18*
X8712598Y7559055D03*
D21*
X4740157Y7171063D03*
X4708661Y7186811D03*
D19*
X4789370Y7170669D03*
D21*
X3952756Y6675000D03*
X9433071Y6163189D03*
X10220472Y21457D03*
D14*
X4789370Y7102362D03*
X8726378Y448819D03*
D21*
X4740157Y7186811D03*
D14*
X4709449Y406299D03*
D19*
X4789370Y5635236D03*
D21*
X4724409Y7186811D03*
D14*
X7859055Y2965354D03*
D21*
X2377953Y3092323D03*
X2362205Y533268D03*
X7889764Y3076575D03*
D20*
X4709646Y7126772D03*
D21*
X4740157Y6659252D03*
X4724409Y1556890D03*
D14*
X11088583Y960630D03*
Y2496063D03*
D21*
X4740157Y2564764D03*
D18*
X11074803Y3464567D03*
Y2952756D03*
D21*
X11007874Y3076575D03*
X11023622Y3092323D03*
D14*
X11008661Y2965354D03*
D21*
X11039370Y1556890D03*
X4724409Y3604134D03*
X2362205Y5635630D03*
X4708661Y517520D03*
X2346457Y533268D03*
X4724409Y4100197D03*
D18*
X2413386Y3464567D03*
D21*
X11826772Y3604134D03*
D14*
X2840945Y26772D03*
D18*
X11929134Y-118110D03*
X11862205D03*
D20*
X3922244Y7126772D03*
D18*
X3988189Y6535433D03*
D21*
X4724409Y2564764D03*
D18*
X2413386Y393701D03*
D16*
X5350787Y4606299D03*
D21*
X4724409Y6659252D03*
Y7682874D03*
X4740157Y1556890D03*
X7086614Y7698622D03*
X4724409Y3092323D03*
D14*
X4789370Y6590551D03*
D21*
X8645669Y5123819D03*
D14*
X7071654Y3477165D03*
D21*
X8661417Y4612008D03*
X4740157Y4627756D03*
X4708661Y6659252D03*
X4740157Y7698622D03*
D18*
X2480315Y5511811D03*
X2413386Y6535433D03*
D21*
X2362205Y517520D03*
D20*
X11008858Y3032283D03*
D16*
X1413780Y4606299D03*
D21*
X5496063Y5709D03*
D19*
X4789370Y1540748D03*
D21*
X3133858Y5709D03*
Y7682874D03*
D14*
X2347244Y1429921D03*
D21*
X2377953Y1029331D03*
D20*
X2347441Y1496850D03*
D21*
X2362205Y1541142D03*
Y3588386D03*
D18*
X2480315Y3464567D03*
D14*
X2427165Y3519685D03*
D15*
X2927559Y555118D03*
X2868504Y4649606D03*
D18*
X2480315Y2952756D03*
D21*
X2377953Y3588386D03*
D18*
X2413386Y1417323D03*
D21*
X2377953Y3604134D03*
D14*
X393701Y7724409D03*
X5203150Y160630D03*
D15*
X6805512Y452756D03*
X4482677Y4547244D03*
D21*
X11007874Y6659252D03*
X8645669Y7186811D03*
X2346457Y6675000D03*
X2362205D03*
X2377953D03*
D18*
X7137795Y905512D03*
D19*
X2427165Y517126D03*
D21*
X7889764Y2052953D03*
X2346457Y6659252D03*
X3165354Y5709D03*
D20*
X3134843Y-38583D03*
D18*
X3267717Y-118110D03*
D21*
X3149606Y4627756D03*
D19*
X4001969Y7170669D03*
D21*
X3149606Y533268D03*
X10251969D03*
X5496063Y5123819D03*
D14*
X5403937Y227559D03*
X4001969Y7102362D03*
X5576772Y4031496D03*
X4709449Y-105512D03*
X3134646D03*
D19*
X7151575Y3587992D03*
D16*
X3775984Y496063D03*
D14*
X4789370Y448819D03*
X6284252Y7571654D03*
D21*
X4708661Y533268D03*
D14*
X6364173Y3519685D03*
D20*
X3134843Y2008661D03*
X4709646Y985039D03*
D14*
X2427165Y960630D03*
D21*
X10220472Y6659252D03*
D14*
X1259843Y7862205D03*
D17*
X4506299Y503937D03*
D21*
X4724409Y2052953D03*
D14*
X4709449Y1941732D03*
D21*
X4708661Y2052953D03*
X9433071Y3604134D03*
X9448819D03*
X2362205Y1045079D03*
D14*
X4709449Y2965354D03*
D18*
X4775591Y1417323D03*
D21*
X2346457Y3588386D03*
D18*
X4775591Y2440945D03*
D21*
X6283465Y3092323D03*
X4740157Y4100197D03*
D15*
X8459055Y4547244D03*
D21*
X2362205Y1029331D03*
D15*
X2888189Y452756D03*
D14*
X472441Y7791339D03*
D21*
X4724409Y4627756D03*
D15*
X2907874Y452756D03*
D14*
X3045276Y369291D03*
X2347244Y7059843D03*
D18*
X3200787Y-118110D03*
D17*
X4506299Y4598425D03*
D19*
X4001969Y5635236D03*
D21*
X4708661Y7682874D03*
X4740157Y4115945D03*
D20*
X4709646Y5591339D03*
D18*
X4055118Y6535433D03*
D21*
X4708661Y5139567D03*
X4740157D03*
X4724409Y5123819D03*
D20*
X4709646Y5079528D03*
D18*
X4842520Y3976378D03*
D14*
X2427165Y3007874D03*
X4709449Y5012598D03*
Y5524409D03*
D18*
X4775591Y5000000D03*
D19*
X4789370Y3587992D03*
D21*
X4724409Y7171063D03*
D14*
X4789370Y4543307D03*
D19*
X4001969Y3587992D03*
D18*
X4842520Y905512D03*
D14*
X5496850Y7571654D03*
D18*
X5629921Y7559055D03*
D19*
X5576772Y7682480D03*
D18*
X5562992Y7559055D03*
D20*
X5497047Y7638583D03*
D19*
X4789370Y1028937D03*
D21*
X5496063Y7698622D03*
D18*
X4775591Y905512D03*
X4842520Y1417323D03*
D21*
X5527559Y7698622D03*
X2346457Y1029331D03*
D14*
X4709449Y3477165D03*
D18*
X4055118Y7047244D03*
D21*
X5527559Y7682874D03*
X5511811Y4627756D03*
D18*
X5629921Y-118110D03*
D14*
X5496850Y-105512D03*
D21*
X5496063Y7682874D03*
X5527559Y5709D03*
D18*
X5562992Y-118110D03*
D21*
X5511811Y7698622D03*
D19*
X4001969Y1540748D03*
D21*
X4740157Y533268D03*
X5496063Y21457D03*
X5511811D03*
Y5139567D03*
X5527559Y21457D03*
D14*
X5576772Y448819D03*
D18*
X5629921Y393701D03*
D19*
X5576772Y5315D03*
D18*
X5562992Y393701D03*
D14*
X5576772Y-62992D03*
X4709449Y918110D03*
D21*
X5511811Y5709D03*
D20*
X5497047Y473228D03*
D19*
X2427165Y3076181D03*
D21*
X4708661Y2580512D03*
D14*
X5496850Y406299D03*
D21*
X11023622Y1045079D03*
D14*
X11008661Y3477165D03*
D20*
X11008858Y3544094D03*
D21*
X2346457Y1045079D03*
D19*
X2427165Y6658858D03*
D21*
X4724409Y533268D03*
D18*
X4775591Y5511811D03*
D14*
X5576772Y7614173D03*
D18*
X4775591Y3464567D03*
D14*
X4789370Y1984252D03*
D19*
Y517126D03*
D14*
X4001969Y6590551D03*
D21*
X7889764Y2564764D03*
D20*
X11796260Y-38583D03*
D14*
X11875984Y-62992D03*
D21*
X11826772Y5709D03*
D20*
X2347441Y3544094D03*
D21*
X2346457Y1541142D03*
X7874016Y6147441D03*
D20*
X3134843Y7638583D03*
D21*
X11023622Y7186811D03*
D18*
X11141732Y2952756D03*
Y3464567D03*
D14*
X11088583Y3519685D03*
Y3007874D03*
D21*
X11039370Y3588386D03*
D18*
X11074803Y1417323D03*
X11141732Y3976378D03*
D19*
X11088583Y7170669D03*
D14*
X11008661Y3988976D03*
X11088583Y4031496D03*
D21*
X5527559Y2052953D03*
X5511811D03*
X5496063D03*
X5527559Y6659252D03*
D14*
X5576772Y1984252D03*
D18*
X5562992Y1929134D03*
D21*
X5496063Y1045079D03*
X5511811Y6675000D03*
D20*
X5497047Y1496850D03*
D21*
X5496063Y1541142D03*
X5511811D03*
D14*
X5496850Y1429921D03*
D21*
X5496063Y1029331D03*
D20*
X5497047Y985039D03*
D21*
X5496063Y533268D03*
X5511811D03*
X5527559D03*
Y517520D03*
D14*
X4709449Y6036220D03*
X4789370Y6078740D03*
D19*
X11088583Y1540748D03*
D14*
X4789370Y5566929D03*
D19*
Y5123425D03*
D14*
Y5055118D03*
Y2496063D03*
D19*
Y2564370D03*
D18*
X4842520Y2440945D03*
Y3464567D03*
Y2952756D03*
D20*
X4709646Y3544094D03*
D21*
X4740157Y1029331D03*
X4724409Y6163189D03*
X4740157Y1045079D03*
X4724409D03*
X4708661D03*
X4724409Y1029331D03*
D18*
X3988189Y905512D03*
D21*
X11023622Y7682874D03*
D19*
X4001969Y517126D03*
D18*
X4055118Y1417323D03*
D19*
X4001969Y1028937D03*
D18*
X4055118Y905512D03*
D21*
X3133858Y21457D03*
X3149606D03*
X3165354D03*
X3149606Y5139567D03*
D19*
X3214567Y5315D03*
D14*
Y-62992D03*
D21*
X2362205Y7171063D03*
X2377953D03*
Y7186811D03*
D20*
X2347441Y7126772D03*
D18*
X2413386Y7047244D03*
X2480315D03*
D21*
X2362205Y4100197D03*
X2377953D03*
D14*
X2347244Y3988976D03*
D21*
X2346457Y4100197D03*
X2377953Y4115945D03*
X2362205D03*
X2377953Y1556890D03*
X2362205D03*
X2346457D03*
D18*
X2480315Y1929134D03*
D14*
X7859055Y6036220D03*
D18*
X9566929Y2952756D03*
D20*
X11008858Y4055906D03*
D21*
X11007874Y4612008D03*
Y5123819D03*
X11023622Y4100197D03*
Y4115945D03*
X11039370Y4100197D03*
D18*
X5562992Y3464567D03*
D21*
X8677165Y3588386D03*
D18*
X8779528Y3976378D03*
D20*
X7859252Y7638583D03*
D21*
X10236220Y1029331D03*
D14*
X5496850Y3477165D03*
D20*
X5497047Y2520472D03*
D14*
X5496850Y2453543D03*
D20*
X5497047Y2008661D03*
D21*
X8661417Y4627756D03*
D20*
X8646654Y985039D03*
D18*
X5562992Y2952756D03*
D21*
X9448819Y2564764D03*
X5496063Y2580512D03*
X5527559D03*
Y2564764D03*
X5511811Y7171063D03*
D18*
X7992126Y4488189D03*
X7925197Y5000000D03*
D21*
X4708661Y6163189D03*
D19*
X8726378Y5635236D03*
D21*
X4708661Y5635630D03*
X4724409D03*
X4740157D03*
Y3076575D03*
X4708661Y3092323D03*
Y3076575D03*
Y3588386D03*
D14*
X4789370Y3007874D03*
Y3519685D03*
X6364173Y6590551D03*
X4709449Y1429921D03*
D21*
X4724409Y6675000D03*
X4708661Y1541142D03*
X4724409D03*
D14*
X4789370Y1472441D03*
X4709449Y7571654D03*
D18*
X4842520Y7559055D03*
D19*
X4789370Y7682480D03*
D14*
Y7614173D03*
D20*
X4709646Y7638583D03*
D18*
X4775591Y7559055D03*
X3200787Y393701D03*
D14*
X3134646Y406299D03*
D21*
X3133858Y517520D03*
X3165354Y533268D03*
Y517520D03*
X3149606D03*
D19*
X2427165Y3587992D03*
Y1540748D03*
D18*
X2480315Y1417323D03*
D21*
X2346457Y7186811D03*
D14*
X2427165Y7102362D03*
D19*
Y5635236D03*
D21*
X2362205Y4612008D03*
X2377953D03*
D14*
X2347244Y4500787D03*
D20*
X2347441Y4567717D03*
D21*
X2377953Y4627756D03*
X2362205D03*
X2377953Y6659252D03*
D18*
X2413386Y1929134D03*
X2480315Y2440945D03*
D21*
X2346457Y2052953D03*
D14*
X2347244Y1941732D03*
X2427165Y1984252D03*
D21*
X11007874Y4627756D03*
D14*
X11088583Y4543307D03*
D18*
X11141732Y4488189D03*
D14*
X11008661Y4500787D03*
D19*
X11088583Y4099803D03*
D21*
X11007874Y4115945D03*
D20*
X10221457Y6614961D03*
D14*
X10221260Y6548031D03*
D21*
X10236220Y6659252D03*
D20*
X10221457Y6103150D03*
D18*
X10287402Y6535433D03*
D14*
X10301181Y6590551D03*
D21*
X10220472Y4627756D03*
Y6675000D03*
D18*
X10354331Y4488189D03*
D21*
X10251969Y7186811D03*
D20*
X10221457Y3544094D03*
D18*
X10354331Y2952756D03*
D21*
X10220472Y2068701D03*
X10251969Y7171063D03*
D20*
X10221457Y2008661D03*
Y1496850D03*
D14*
X10221260Y1429921D03*
D20*
X10221457Y985039D03*
D19*
X9513780Y5635236D03*
Y3587992D03*
Y1028937D03*
D21*
X9448819Y6147441D03*
X9464567D03*
Y6163189D03*
Y1556890D03*
X9433071Y6147441D03*
Y6659252D03*
X9448819Y1556890D03*
D14*
X9513780Y1984252D03*
D19*
Y4611614D03*
D18*
X8712598Y6535433D03*
D20*
X8646654Y6614961D03*
D19*
X8726378Y6147047D03*
D18*
X8779528Y6023622D03*
D14*
X8646457Y6548031D03*
X8726378Y6590551D03*
D18*
X8712598Y2952756D03*
D14*
X8726378Y2496063D03*
D21*
X8645669Y3076575D03*
Y3588386D03*
D19*
X8726378Y2564370D03*
D21*
X8661417Y3588386D03*
D14*
X8646457Y7571654D03*
D18*
X8779528Y7559055D03*
D21*
X8661417Y5123819D03*
D18*
X8779528Y393701D03*
D21*
X8661417Y2068701D03*
D20*
X8646654Y473228D03*
D21*
X7858268Y3092323D03*
X7874016Y3076575D03*
X7858268Y3588386D03*
X7874016Y3092323D03*
D20*
X7859252Y3032283D03*
D21*
X7889764Y3092323D03*
X7874016Y517520D03*
D14*
X7859055Y2453543D03*
D21*
X7889764Y517520D03*
X7874016Y7682874D03*
X7858268D03*
D14*
X7859055Y-105512D03*
X7071654Y5012598D03*
Y5524409D03*
D20*
X7071850Y5079528D03*
D21*
X7070866Y4100197D03*
X7086614D03*
X7102362Y4115945D03*
D14*
X11008661Y5012598D03*
Y5524409D03*
D21*
X11039370Y5635630D03*
Y5139567D03*
D20*
X11008858Y5079528D03*
D21*
X11039370Y5123819D03*
D14*
X10301181Y7102362D03*
D20*
X10221457Y7126772D03*
D18*
X10354331Y7047244D03*
D19*
X10301181Y6658858D03*
D18*
X10287402Y7047244D03*
D21*
X10251969Y6675000D03*
D14*
X10301181Y4543307D03*
D21*
X10220472Y5139567D03*
D18*
X10287402Y5000000D03*
X10354331Y3464567D03*
D21*
X11039370Y4627756D03*
D14*
X10301181Y3519685D03*
D21*
X10220472Y2564764D03*
X10236220D03*
X10251969D03*
X10236220Y6163189D03*
X10251969Y1029331D03*
X10220472D03*
D19*
X9513780Y517126D03*
D18*
X9566929Y905512D03*
X9500000D03*
D14*
X9433858Y7059843D03*
D19*
X9513780Y6147047D03*
D18*
X9566929Y6023622D03*
D20*
X9434055Y2008661D03*
D21*
X9464567Y2564764D03*
X9433071D03*
X9464567Y7171063D03*
D19*
X9513780Y2052559D03*
D18*
X9500000Y5511811D03*
D19*
X8726378Y1028937D03*
D18*
X8779528Y1417323D03*
D19*
X8726378Y3587992D03*
Y1540748D03*
D14*
Y7102362D03*
D21*
X8677165Y7186811D03*
X8661417Y3076575D03*
Y3092323D03*
X8645669Y7171063D03*
D18*
X8779528Y2440945D03*
D21*
X8677165Y3076575D03*
Y3092323D03*
D19*
X8726378Y7682480D03*
D21*
X8645669Y7698622D03*
X8661417D03*
D18*
X8712598Y393701D03*
D14*
X8646457Y406299D03*
D21*
X8645669Y517520D03*
X7874016Y3588386D03*
D18*
X7925197Y1417323D03*
D21*
X7874016Y3604134D03*
D18*
X7992126Y3976378D03*
D19*
X7938976Y7170669D03*
D21*
X7889764Y3604134D03*
X7874016Y1029331D03*
X7889764D03*
D14*
X7859055Y918110D03*
D21*
X7874016Y4627756D03*
D18*
X7992126Y-118110D03*
X7925197D03*
X7204724Y5000000D03*
Y5511811D03*
D20*
X7071850Y5591339D03*
D21*
X7102362Y4100197D03*
X7086614Y4115945D03*
X7070866D03*
D18*
X11074803Y6023622D03*
D19*
X11088583Y5123425D03*
D14*
Y5566929D03*
D21*
X11023622Y5635630D03*
D14*
X11088583Y5055118D03*
Y6078740D03*
D18*
X10287402Y905512D03*
D19*
X10301181Y517126D03*
D14*
X11088583Y7614173D03*
D19*
X10301181Y1540748D03*
Y5635236D03*
Y3587992D03*
D20*
X10221457Y5079528D03*
D21*
X10251969Y5635630D03*
Y5139567D03*
D14*
X10301181Y3007874D03*
D19*
Y3076181D03*
D21*
X10236220Y3604134D03*
X10251969Y2580512D03*
X10220472D03*
Y7186811D03*
X10251969Y1045079D03*
X10236220D03*
Y6675000D03*
D20*
X10221457Y7638583D03*
D14*
X10221260Y7571654D03*
D18*
X10287402Y7559055D03*
D20*
X9434055Y6103150D03*
D18*
X9500000Y6535433D03*
X9566929D03*
Y2440945D03*
D21*
X9433071Y3588386D03*
D19*
X9513780Y2564370D03*
D18*
X9500000Y2440945D03*
D20*
X9434055Y4567717D03*
D21*
X9433071Y7171063D03*
D20*
X9434055Y7638583D03*
D21*
X9464567Y3092323D03*
X9433071D03*
D18*
X9566929Y7559055D03*
D21*
X9448819Y5123819D03*
D18*
X9500000Y7559055D03*
X8779528Y2952756D03*
D14*
X8726378Y3519685D03*
D20*
X8646654Y4567717D03*
D18*
X8712598Y2440945D03*
D14*
X8646457Y2965354D03*
D20*
X8646654Y3032283D03*
D21*
X8677165Y7682874D03*
X8645669D03*
X8661417D03*
X8677165Y517520D03*
D14*
X8646457Y2453543D03*
D21*
X8661417Y517520D03*
D20*
X7859252Y4055906D03*
D21*
X7858268Y4115945D03*
X7874016Y4100197D03*
X7889764D03*
X7874016Y4115945D03*
D19*
X7938976Y4099803D03*
D14*
X7859055Y1429921D03*
D21*
X7858268Y1541142D03*
D20*
X7859252Y1496850D03*
D21*
X7889764Y5709D03*
D20*
X7859252Y-38583D03*
D14*
X7938976Y-62992D03*
D19*
X7151575Y5123425D03*
D14*
Y5566929D03*
D21*
X8645669Y1556890D03*
D20*
X7071850Y4055906D03*
D14*
X7071654Y4500787D03*
D20*
X7071850Y4567717D03*
D19*
X11088583Y6147047D03*
D14*
X11008661Y7059843D03*
D21*
X11039370Y6163189D03*
D18*
X11141732Y6535433D03*
X11074803D03*
X11141732Y6023622D03*
D14*
X11008661Y7571654D03*
D20*
X11008858Y7638583D03*
D21*
X11023622Y1029331D03*
D18*
X10354331Y905512D03*
D19*
X10301181Y1028937D03*
D18*
X10354331Y1417323D03*
D20*
X10221457Y5591339D03*
D14*
X10221260Y5012598D03*
Y5524409D03*
D18*
X10354331Y3976378D03*
X10287402Y1417323D03*
D21*
X10251969Y3588386D03*
D18*
X10287402Y2440945D03*
D20*
X10221457Y4567717D03*
D21*
X10251969Y6147441D03*
X10220472Y1045079D03*
Y1541142D03*
X10236220Y4612008D03*
X10220472Y7171063D03*
Y3092323D03*
X10251969D03*
D14*
X9433858Y6548031D03*
D20*
X9434055Y6614961D03*
D14*
X9513780Y6590551D03*
D18*
X9500000Y3464567D03*
D14*
X9433858Y3477165D03*
Y2965354D03*
D20*
X9434055Y3032283D03*
Y3544094D03*
D21*
X11039370Y4612008D03*
D18*
X9500000Y-118110D03*
D14*
X9513780Y-62992D03*
D20*
X9434055Y-38583D03*
D14*
X9433858Y-105512D03*
D21*
X9448819Y4627756D03*
D18*
X9566929Y-118110D03*
D19*
X8726378Y3076181D03*
D21*
X8661417Y3604134D03*
D14*
X8726378Y3007874D03*
D21*
X8645669Y3604134D03*
D20*
X8646654Y3544094D03*
D14*
X8646457Y3477165D03*
D18*
X8779528Y-118110D03*
X8712598D03*
D14*
X8646457Y-105512D03*
Y918110D03*
D21*
X8645669Y533268D03*
X8661417D03*
D14*
X7938976Y4543307D03*
D21*
X7858268Y5139567D03*
X7889764D03*
X7858268Y4627756D03*
Y6675000D03*
D18*
X7925197Y4488189D03*
Y1929134D03*
D21*
X7889764Y6659252D03*
D19*
X7938976Y4611614D03*
D21*
X7858268Y21457D03*
X7874016Y5709D03*
X7858268D03*
X2362205Y2068701D03*
X2377953Y2564764D03*
D18*
X2413386Y905512D03*
D21*
X3133858Y533268D03*
X4724409Y21457D03*
X4708661Y2068701D03*
X4724409Y4115945D03*
D18*
X4055118Y6023622D03*
D21*
X5527559Y1029331D03*
Y1556890D03*
D19*
X5576772Y2052559D03*
D21*
X11795276Y21457D03*
D14*
X2427165Y1472441D03*
D21*
X2377953Y2052953D03*
D14*
X2427165Y4031496D03*
D18*
X2413386Y3976378D03*
D21*
X2362205Y6659252D03*
D14*
X3214567Y7614173D03*
D21*
X3149606Y5709D03*
Y7682874D03*
D14*
X3922047Y7059843D03*
D20*
X4709646Y-38583D03*
D21*
X4708661Y1029331D03*
X4724409Y2068701D03*
X4708661Y7171063D03*
X4724409Y3588386D03*
D18*
X4842520Y5000000D03*
D21*
X4708661Y5651378D03*
X5511811Y517520D03*
Y1029331D03*
Y1045079D03*
D14*
X5576772Y960630D03*
D18*
X5629921Y1929134D03*
D21*
X5527559Y2068701D03*
X11023622Y3604134D03*
Y4612008D03*
X2346457Y2068701D03*
Y4115945D03*
D18*
X2480315Y905512D03*
D21*
X3133858Y1029331D03*
X4740157Y21457D03*
Y2068701D03*
Y5651378D03*
D20*
X3922244Y6614961D03*
D21*
X5511811Y6163189D03*
D14*
X5576772Y1472441D03*
D21*
X5496063Y2068701D03*
X11811024Y5709D03*
X15748Y3588386D03*
X0D03*
X-15748D03*
Y3604134D03*
X0D03*
X15748D03*
D14*
X-14961Y3988976D03*
D18*
X118110Y3976378D03*
D19*
X64961Y4099803D03*
D20*
X-14764Y4055906D03*
D14*
X64961Y4031496D03*
D18*
X51181Y3976378D03*
D21*
X2377953Y2068701D03*
X2362205Y2052953D03*
D18*
X2480315Y3976378D03*
D19*
X2427165Y4099803D03*
D14*
X2347244Y6548031D03*
D19*
X2427165Y1028937D03*
D18*
X3267717Y393701D03*
D14*
X3134646Y918110D03*
D21*
X4740157Y5709D03*
D18*
X4775591Y-118110D03*
X4842520Y393701D03*
D19*
X4789370Y2052559D03*
D18*
X4775591Y3976378D03*
D21*
X4708661Y4115945D03*
X4724409Y5651378D03*
Y6147441D03*
X5496063Y517520D03*
X7070866Y1556890D03*
X5527559Y1045079D03*
X5511811Y1556890D03*
Y2068701D03*
X5496063Y1556890D03*
X11039370Y7186811D03*
X11811024Y21457D03*
X0Y5709D03*
X-15748D03*
X10236220Y3076575D03*
X15748Y5709D03*
Y21457D03*
X0D03*
X10251969Y4115945D03*
X10236220Y4100197D03*
Y4115945D03*
X10220472Y5651378D03*
X10236220D03*
D14*
X10301181Y6078740D03*
D15*
X2868504Y452756D03*
D14*
X2840945Y227559D03*
X6982283Y4575591D03*
X1470472Y765748D03*
X4553150Y369291D03*
X2257874Y765748D03*
D16*
X5996457Y4590551D03*
D14*
X1470472Y4642520D03*
D21*
X11039370Y5709D03*
D14*
X3045276Y832677D03*
Y765748D03*
X2257874Y481102D03*
X4415748Y227559D03*
D15*
X10801575Y4547244D03*
D14*
X4549606Y160630D03*
X7071654Y6036220D03*
D18*
X7204724Y4488189D03*
X11862205Y7559055D03*
D14*
X11875984Y7614173D03*
D20*
X11008858Y-38583D03*
D21*
X2346457Y2564764D03*
Y3604134D03*
D18*
X3200787Y7559055D03*
D21*
X3149606Y1029331D03*
X4708661Y21457D03*
X4740157Y2052953D03*
D20*
X4709646Y4567717D03*
D14*
X3922047Y6548031D03*
D18*
X5562992Y2440945D03*
D21*
X5511811Y3092323D03*
D19*
X5576772Y3076181D03*
D20*
X11796260Y2520472D03*
D21*
X2377953Y1541142D03*
D20*
X2347441Y2008661D03*
Y4055906D03*
D21*
X2346457Y4612008D03*
Y7171063D03*
X3133858Y7698622D03*
D14*
X3214567Y448819D03*
D21*
X3165354Y7682874D03*
D19*
X4001969Y6658858D03*
D21*
X4724409Y5709D03*
D20*
X4709646Y1496850D03*
Y2520472D03*
D18*
X4775591Y2952756D03*
D21*
X4740157Y3588386D03*
D18*
X4842520Y5511811D03*
D21*
X4740157Y6163189D03*
X5511811Y2580512D03*
Y2564764D03*
X5527559Y7171063D03*
D14*
X5496850Y2965354D03*
D20*
X5497047Y3544094D03*
D21*
X5496063Y3092323D03*
X11007874Y4100197D03*
Y1045079D03*
D20*
X2347441Y2520472D03*
D21*
X7086614Y517520D03*
D18*
X3267717Y7559055D03*
D21*
X3149606Y6163189D03*
D19*
X4789370Y5315D03*
D14*
X4709449Y2453543D03*
Y4500787D03*
D21*
X3921260Y6659252D03*
D18*
X5629921Y2440945D03*
D21*
X5527559Y3092323D03*
D14*
X5576772Y3519685D03*
D21*
X11811024Y5139567D03*
D18*
X51181Y3464567D03*
D14*
X64961Y3519685D03*
D20*
X-14764Y3544094D03*
D14*
X-14961Y3477165D03*
D18*
X118110Y3464567D03*
D19*
X64961Y3587992D03*
D21*
X-15748Y3092323D03*
X0D03*
X15748D03*
X-15748Y3076575D03*
X15748D03*
X0D03*
D14*
X2347244Y2453543D03*
D19*
X2427165Y2052559D03*
D18*
X2413386Y4488189D03*
D21*
X2346457Y4627756D03*
D20*
X2347441Y6614961D03*
D19*
X3214567Y7682480D03*
X6364173Y3076181D03*
D21*
X3165354Y1029331D03*
X4708661Y5709D03*
D18*
X4842520Y-118110D03*
D14*
X4789370Y-62992D03*
D20*
X4709646Y2008661D03*
D14*
X4709449Y3988976D03*
D19*
X4789370Y4099803D03*
D21*
X4708661Y6147441D03*
X4740157D03*
X5496063Y7186811D03*
Y7171063D03*
D20*
X5497047Y3032283D03*
D21*
X5527559Y3076575D03*
X5496063D03*
D18*
X5629921Y2952756D03*
X11074803Y5000000D03*
D21*
X11795276Y5709D03*
D14*
X7151575Y6078740D03*
D21*
X7086614Y6147441D03*
D18*
X7137795Y4488189D03*
D14*
X7151575Y4543307D03*
D21*
X11826772Y3092323D03*
X11795276D03*
D14*
X11796063Y7571654D03*
D20*
X11796260Y7638583D03*
D21*
X11023622Y3076575D03*
X11039370Y3092323D03*
D14*
X11088583Y-62992D03*
D18*
X11074803Y7559055D03*
D14*
X2187402Y227559D03*
X3832677Y832677D03*
D15*
X10033858Y4649606D03*
D14*
X8267717Y7791339D03*
D16*
X2059449Y496063D03*
D17*
X2116535Y503937D03*
D16*
X10075197Y4590551D03*
D14*
X1470472Y832677D03*
D16*
X2201181Y4606299D03*
D14*
X9055118Y7791339D03*
X2257874Y548031D03*
X4482677Y160630D03*
X3829134D03*
X5270079Y4255118D03*
X7938976Y448819D03*
D20*
X7859252Y4567717D03*
D18*
X7992126Y6023622D03*
D14*
X7859055Y7059843D03*
D21*
X8661417Y6163189D03*
Y5709D03*
X2362205Y2564764D03*
D18*
X2480315Y4488189D03*
D21*
X3149606Y7698622D03*
D14*
X3214567Y960630D03*
D21*
X4724409Y5139567D03*
X4708661Y2564764D03*
X4724409Y4612008D03*
X3937008Y6659252D03*
D14*
X5576772Y2496063D03*
D21*
X5511811Y3076575D03*
D14*
X5576772Y3007874D03*
D21*
X11826772Y3076575D03*
D14*
X5576772Y5566929D03*
D20*
X7071850Y6614961D03*
D19*
X7151575Y6147047D03*
D21*
X7858268Y517520D03*
D14*
X7859055Y3477165D03*
D20*
X7859252Y3544094D03*
D19*
X7938976Y1028937D03*
X8726378Y4611614D03*
D14*
X5496850Y5012598D03*
D21*
X8645669Y6675000D03*
D20*
X8646654Y6103150D03*
D14*
X8646457Y7059843D03*
D21*
X9433071Y1556890D03*
X9448819Y1541142D03*
X9433071Y5635630D03*
X10236220Y21457D03*
X5496063Y5139567D03*
X10220472Y6163189D03*
X5527559Y4100197D03*
X10251969D03*
D18*
X7137795Y1417323D03*
D21*
X11039370Y21457D03*
D18*
X11074803Y3976378D03*
D21*
X11007874Y1541142D03*
X7070866Y6659252D03*
X7874016Y533268D03*
D18*
X7992126Y2952756D03*
D21*
X8677165Y2052953D03*
D14*
X8726378Y4543307D03*
D21*
X8677165Y6675000D03*
X9448819Y7171063D03*
D20*
X10221457Y473228D03*
D14*
X5496850Y4500787D03*
D21*
X5511811Y3604134D03*
X11007874Y517520D03*
X11826772Y21457D03*
X-15748Y2564764D03*
X0Y2580512D03*
X15748Y2564764D03*
Y2580512D03*
X-15748D03*
X0Y2564764D03*
D14*
X-14961Y2965354D03*
D18*
X118110Y2952756D03*
D19*
X64961Y3076181D03*
D18*
X51181Y2952756D03*
D14*
X64961Y3007874D03*
D20*
X-14764Y3032283D03*
D14*
X7071654Y6548031D03*
X7151575Y6590551D03*
D21*
X7889764Y533268D03*
X7858268D03*
Y3076575D03*
D18*
X7925197Y3464567D03*
D21*
X7874016Y7186811D03*
X8677165Y1556890D03*
D18*
X8779528Y4488189D03*
D21*
X8677165Y4627756D03*
X8645669Y6147441D03*
X8661417Y6659252D03*
X9464567Y1541142D03*
Y6659252D03*
D18*
X9566929Y5511811D03*
D21*
X10236220Y5709D03*
D18*
X10354331Y1929134D03*
D14*
X10221260Y3477165D03*
D21*
X10220472Y4115945D03*
D18*
X10354331Y6023622D03*
D19*
X11088583Y5315D03*
D20*
X11008858Y2520472D03*
D21*
X11023622Y1556890D03*
D18*
X11929134Y393701D03*
X7992126D03*
D19*
X7938976Y5315D03*
D18*
X7925197Y2440945D03*
D21*
X7858268Y7186811D03*
Y6147441D03*
Y6163189D03*
D19*
X7938976Y6147047D03*
D20*
X7859252Y6103150D03*
D21*
X8677165Y1045079D03*
X8661417D03*
X8645669Y21457D03*
X8661417D03*
D15*
X8400000Y452756D03*
D16*
X2059449Y511811D03*
D14*
X2907874Y160630D03*
X10131890Y4927165D03*
X3832677Y302362D03*
X11502362Y4188189D03*
D15*
X6018110Y4547244D03*
D14*
X1266142Y26772D03*
D15*
X2179528Y555118D03*
D14*
X5337008Y160630D03*
X4482677Y227559D03*
X8553543Y160630D03*
D15*
X3714961Y555118D03*
X10014173Y4547244D03*
D14*
X5270079Y160630D03*
D15*
X2081102Y555118D03*
D17*
X3691339Y503937D03*
D15*
X3734646Y555118D03*
D18*
X9500000Y4488189D03*
Y5000000D03*
D21*
X9448819Y517520D03*
X9433071Y533268D03*
X8661417Y4115945D03*
D18*
X8712598Y3976378D03*
X7137795Y7047244D03*
D21*
X7858268Y1029331D03*
D18*
X7925197Y3976378D03*
D21*
X8645669Y2052953D03*
X8677165Y5635630D03*
D18*
X8712598Y905512D03*
D21*
X9464567Y2068701D03*
D18*
X10287402Y393701D03*
D20*
X5497047Y4567717D03*
D21*
X5527559Y3604134D03*
X11039370Y533268D03*
D18*
X11862205Y393701D03*
D19*
X5576772Y5123425D03*
D21*
X7102362Y6675000D03*
D18*
X7204724Y6023622D03*
D20*
X7859252Y985039D03*
D21*
X7889764Y3588386D03*
D14*
X7859055Y3988976D03*
D18*
X7992126Y905512D03*
D14*
X8726378Y1984252D03*
X5496850Y5524409D03*
D21*
X8677165Y5139567D03*
X8661417Y7186811D03*
D18*
X8779528Y7047244D03*
D14*
X9433858Y1941732D03*
D18*
X9500000Y1929134D03*
D21*
X9448819Y5635630D03*
D20*
X10221457Y2520472D03*
D18*
X5562992Y5000000D03*
D19*
X10301181Y4611614D03*
D21*
X5527559Y4115945D03*
D19*
X10301181Y4099803D03*
D21*
X5496063Y3588386D03*
X11039370Y3076575D03*
D18*
X11074803Y4488189D03*
D20*
X11008858Y1496850D03*
D19*
X7151575Y6658858D03*
D14*
X7938976Y960630D03*
Y4031496D03*
D21*
X8661417Y2052953D03*
X8645669Y5139567D03*
D18*
X8779528Y905512D03*
D21*
X9464567Y2580512D03*
X10251969Y5651378D03*
X7086614Y2580512D03*
X5496063Y3604134D03*
X11039370Y517520D03*
D20*
X11796260Y473228D03*
X-14764Y2520472D03*
D14*
X64961Y2496063D03*
D18*
X51181Y2440945D03*
D19*
X64961Y2564370D03*
D18*
X118110Y2440945D03*
D14*
X-14961Y2453543D03*
D21*
X-15748Y2068701D03*
X0D03*
X15748D03*
Y2052953D03*
X0D03*
X-15748D03*
X7070866Y6675000D03*
X7086614Y6659252D03*
X7889764Y1045079D03*
X7874016D03*
D19*
X7938976Y3076181D03*
D21*
X7858268Y3604134D03*
D14*
X7938976Y7102362D03*
D21*
X8661417Y1556890D03*
D18*
X8712598Y4488189D03*
Y5000000D03*
Y7047244D03*
D20*
X8646654Y7126772D03*
D21*
X9464567Y2052953D03*
X9448819Y2580512D03*
D20*
X9434055Y5591339D03*
D21*
X10220472Y5709D03*
D14*
X10301181Y1984252D03*
D21*
X10236220Y7186811D03*
X11039370Y7682874D03*
D14*
X10221260Y7059843D03*
D18*
X11141732Y393701D03*
D21*
X11023622Y21457D03*
D18*
X11141732Y5511811D03*
D21*
X11826772Y5651378D03*
X9433071Y5123819D03*
X9464567Y4627756D03*
D18*
X9566929Y4488189D03*
D21*
X9433071Y4627756D03*
D14*
X9433858Y918110D03*
D20*
X9434055Y985039D03*
D21*
X9464567Y533268D03*
D14*
X9513780Y960630D03*
D21*
X8645669Y4115945D03*
D19*
X8726378Y4099803D03*
D14*
Y4031496D03*
D21*
X8645669Y4100197D03*
D14*
X5340551Y4396850D03*
D15*
X2947244Y4547244D03*
D14*
X11706693Y4642520D03*
D15*
X1333071Y555118D03*
X2159843D03*
X5230709Y452756D03*
D14*
X1470472Y369291D03*
D15*
X9167717Y4649606D03*
D16*
X6783858Y4606299D03*
D14*
X7702756Y369291D03*
X1266142Y160630D03*
X6127953Y369291D03*
D15*
X1313386Y555118D03*
D16*
X2201181Y511811D03*
D14*
X2120472Y227559D03*
D15*
X3695276Y555118D03*
D19*
X9513780Y6658858D03*
D21*
X10236220Y4627756D03*
Y1556890D03*
Y3588386D03*
D14*
X10301181Y4031496D03*
D21*
X10236220Y5635630D03*
X7102362Y7186811D03*
X7874016Y1556890D03*
D14*
X7859055Y4500787D03*
D21*
X8677165Y2068701D03*
D18*
X8779528Y5511811D03*
D19*
X9513780Y7682480D03*
D18*
X9500000Y2952756D03*
D14*
X10221260Y2453543D03*
D21*
X5511811Y4612008D03*
D18*
X5629921Y3976378D03*
D21*
X11023622Y533268D03*
X11826772Y517520D03*
D14*
X5576772Y5055118D03*
D20*
X7071850Y7126772D03*
D18*
X7137795Y6535433D03*
D21*
X7858268Y1045079D03*
X7889764Y4115945D03*
X7874016Y4612008D03*
D18*
X7925197Y905512D03*
D21*
X8677165Y6659252D03*
D18*
X5562992Y5511811D03*
D20*
X8646654Y5079528D03*
D21*
X9448819Y1029331D03*
D19*
X8726378Y517126D03*
D21*
X9433071Y7186811D03*
D14*
X9513780Y2496063D03*
D18*
X9500000Y6023622D03*
D21*
X10251969Y21457D03*
X5527559Y5139567D03*
X10236220Y7171063D03*
X5511811Y4115945D03*
D14*
X10221260Y4500787D03*
D21*
X5527559Y3588386D03*
X11023622Y2068701D03*
D18*
X11141732Y5000000D03*
D14*
X11088583Y1472441D03*
X7151575Y7102362D03*
D21*
X7889764Y1541142D03*
Y4612008D03*
X8645669Y2068701D03*
Y6163189D03*
X9433071Y7698622D03*
Y3076575D03*
X10251969Y517520D03*
X5527559Y4612008D03*
D18*
X5562992Y3976378D03*
D21*
X11007874Y533268D03*
D14*
X11796063Y406299D03*
D21*
X-15748Y1541142D03*
X0Y1556890D03*
X15748Y1541142D03*
Y1556890D03*
X-15748D03*
X0Y1541142D03*
D14*
X64961Y1984252D03*
D19*
Y2052559D03*
D18*
X118110Y1929134D03*
D14*
X-14961Y1941732D03*
D18*
X51181Y1929134D03*
D20*
X-14764Y2008661D03*
D21*
X7086614Y7186811D03*
D18*
X7204724Y7047244D03*
D21*
X7874016Y6675000D03*
Y1541142D03*
X7858268Y4100197D03*
Y4612008D03*
D19*
X7938976Y5635236D03*
D14*
X8726378Y1472441D03*
X8646457Y5012598D03*
D21*
X8677165Y5123819D03*
D14*
X9513780Y7614173D03*
D21*
X9448819Y7698622D03*
X9433071Y2580512D03*
X9448819Y3588386D03*
D14*
X9513780Y5566929D03*
D21*
X10251969Y5709D03*
D18*
X10287402Y1929134D03*
Y3464567D03*
D20*
X10221457Y4055906D03*
D21*
X10251969Y6163189D03*
D14*
X11088583Y448819D03*
D21*
X11007874Y21457D03*
X11023622Y5651378D03*
X11795276Y517520D03*
D18*
X9566929Y7047244D03*
D21*
X9448819Y7186811D03*
X10220472Y7682874D03*
X10251969Y7698622D03*
D14*
X10301181Y1472441D03*
D21*
X10220472Y1556890D03*
D14*
X10301181Y2496063D03*
D18*
X10287402Y2952756D03*
Y3976378D03*
D21*
X10220472Y4100197D03*
D14*
X10301181Y5055118D03*
D18*
X10287402Y6023622D03*
D17*
X2144094Y503937D03*
D14*
X1470472Y548031D03*
Y4463780D03*
X1266142Y93701D03*
D15*
X1293701Y555118D03*
D14*
X2190945Y369291D03*
X10919291Y4463780D03*
X9927559Y4322047D03*
D15*
X2120472Y452756D03*
X2140157D03*
D16*
X3634252Y511811D03*
X3775984D03*
X9287795Y496063D03*
D15*
X3655906Y4649606D03*
D14*
X10852362Y4396850D03*
D15*
X3754331Y555118D03*
D21*
X7070866Y5651378D03*
Y5123819D03*
D19*
X11088583Y1028937D03*
Y5635236D03*
D21*
X11039370Y3604134D03*
D14*
X11008661Y-105512D03*
D18*
X7204724Y905512D03*
D21*
X7874016Y2052953D03*
X7889764Y5123819D03*
X8677165Y7171063D03*
D19*
X8726378Y5123425D03*
D21*
X9448819Y7682874D03*
D19*
X9513780Y3076181D03*
D14*
X10221260Y406299D03*
D21*
X5496063Y4612008D03*
D14*
X5496850Y3988976D03*
X11008661Y918110D03*
D21*
X11826772Y533268D03*
X5496063Y5635630D03*
D18*
X7204724Y1417323D03*
D21*
X7070866Y6163189D03*
D14*
X7938976Y1984252D03*
D21*
X7889764Y4627756D03*
D20*
X7859252Y5079528D03*
D14*
X8726378Y7614173D03*
D21*
X8661417Y7171063D03*
D20*
X5497047Y5591339D03*
D21*
X8645669Y6659252D03*
X9464567Y7682874D03*
Y7698622D03*
Y3604134D03*
Y3588386D03*
X11811024Y7682874D03*
X10251969Y3076575D03*
X5527559Y5123819D03*
X10236220Y2052953D03*
X5496063Y4115945D03*
X10251969Y4612008D03*
X5511811Y3588386D03*
D20*
X11008858Y473228D03*
D21*
X11023622Y6147441D03*
X11039370Y1541142D03*
D19*
X7151575Y1028937D03*
D14*
X7859055Y1941732D03*
Y5524409D03*
D19*
X8726378Y2052559D03*
D21*
X8645669Y5635630D03*
X9433071Y5709D03*
D14*
X9513780Y3519685D03*
D21*
X10236220Y517520D03*
X5527559Y4627756D03*
X5496063Y4100197D03*
D20*
X11008858Y985039D03*
D21*
X11811024Y517520D03*
D18*
X51181Y1417323D03*
D20*
X-14764Y1496850D03*
D14*
X64961Y1472441D03*
D19*
Y1540748D03*
D18*
X118110Y1417323D03*
D14*
X-14961Y1429921D03*
D18*
X7137795Y5000000D03*
D21*
X7102362Y5139567D03*
Y5123819D03*
X7070866Y6147441D03*
D14*
X7071654Y7059843D03*
D21*
X7102362Y6163189D03*
D19*
X7151575Y1540748D03*
Y5635236D03*
D18*
X7992126Y1929134D03*
D21*
X7858268Y1556890D03*
Y5123819D03*
D18*
X7992126Y5511811D03*
D19*
X7938976Y1540748D03*
D21*
X8677165Y1541142D03*
D14*
X8726378Y5566929D03*
D18*
X8779528Y5000000D03*
D21*
X9464567Y5709D03*
X9433071Y21457D03*
X9448819Y3076575D03*
D18*
X9500000Y1417323D03*
X9566929Y5000000D03*
D14*
X10301181Y-62992D03*
D21*
X10220472Y2052953D03*
D20*
X10221457Y3032283D03*
D21*
X10220472Y4612008D03*
X10236220Y6147441D03*
D18*
X11074803Y393701D03*
D21*
X11023622Y5709D03*
D14*
X11088583Y6590551D03*
D21*
X11811024Y533268D03*
X7086614Y5651378D03*
D18*
X7137795Y6023622D03*
D21*
X7102362Y4627756D03*
X7070866D03*
D18*
X11074803Y905512D03*
X11141732D03*
D19*
X11088583Y3587992D03*
D18*
X11141732Y1417323D03*
X11074803Y-118110D03*
X11141732D03*
D21*
X11007874Y6675000D03*
X11023622Y4627756D03*
D14*
X7766142Y4322047D03*
X2120472Y160630D03*
X2053543D03*
D15*
X2081102Y452756D03*
X2179528D03*
D14*
X2187402Y160630D03*
D15*
X2159843Y452756D03*
D14*
X4415748Y160630D03*
X6777953Y227559D03*
D15*
X8380315Y555118D03*
X6018110Y4649606D03*
D14*
X2257874Y369291D03*
D15*
X3714961Y452756D03*
X9974803Y4547244D03*
D14*
X3628346Y160630D03*
D15*
X2100787Y452756D03*
D14*
X5340551Y302362D03*
D21*
X7874016Y21457D03*
X7889764Y7171063D03*
D19*
X7938976Y5123425D03*
D14*
Y5055118D03*
D21*
X8677165Y1029331D03*
D20*
X8646654Y-38583D03*
D18*
X7925197Y7559055D03*
D21*
X7889764Y2580512D03*
X7858268Y5651378D03*
X8661417Y2564764D03*
D18*
X10287402Y4488189D03*
D21*
X9464567Y21457D03*
D18*
X9566929Y3976378D03*
D21*
X10220472Y517520D03*
X5496063Y4627756D03*
X5511811Y4100197D03*
D14*
X11008661Y1429921D03*
D21*
X11795276Y533268D03*
X5527559Y5635630D03*
D14*
X7938976Y7614173D03*
X10301181D03*
D18*
X7925197Y5511811D03*
D14*
X7938976Y5566929D03*
D21*
X7874016Y5651378D03*
X8661417Y1029331D03*
D18*
X8712598Y1929134D03*
X5629921Y5511811D03*
X8712598Y6023622D03*
D21*
X9448819Y5139567D03*
D20*
X9434055Y2520472D03*
D21*
X9433071Y1541142D03*
D14*
X9433858Y1429921D03*
D21*
X9448819Y5651378D03*
D18*
X10354331Y393701D03*
D20*
X5497047Y5079528D03*
D21*
X10251969Y2068701D03*
D19*
X5576772Y4099803D03*
D21*
X10220472Y5123819D03*
D18*
X5562992Y1417323D03*
D21*
X11039370Y5651378D03*
D20*
X11008858Y6614961D03*
D21*
X11023622Y1541142D03*
D18*
X7992126Y7559055D03*
D21*
X7858268Y2564764D03*
D14*
X7938976Y6078740D03*
D21*
X8645669Y2564764D03*
Y5651378D03*
X9448819Y21457D03*
Y4115945D03*
D14*
X10301181Y448819D03*
D18*
X5562992Y4488189D03*
D20*
X6284449Y473228D03*
D14*
X11008661Y406299D03*
X11875984Y448819D03*
D21*
X7889764Y6675000D03*
D20*
X7859252Y7126772D03*
D21*
X7858268Y6659252D03*
D14*
X7859055Y6548031D03*
D19*
X7938976Y6658858D03*
D18*
X7925197Y7047244D03*
Y2952756D03*
D14*
X7938976Y2496063D03*
D19*
Y2564370D03*
D18*
X7925197Y393701D03*
D21*
X7889764Y5651378D03*
D14*
X7859055Y406299D03*
Y7571654D03*
D19*
X7151575Y517126D03*
X7938976Y2052559D03*
D20*
X7859252Y2008661D03*
D18*
X7992126Y5000000D03*
X7925197Y6023622D03*
D19*
X7938976Y3587992D03*
D21*
X8661417Y1541142D03*
Y5651378D03*
Y5635630D03*
D19*
X9513780Y5315D03*
D21*
X9464567Y3076575D03*
D19*
X9513780Y7170669D03*
D21*
X9433071Y4115945D03*
D14*
X9513780Y5055118D03*
D20*
X10221457Y-38583D03*
D21*
X10251969Y2052953D03*
D14*
X10221260Y2965354D03*
D21*
X10251969Y4627756D03*
D14*
X10221260Y6036220D03*
X11008661Y2453543D03*
D21*
X11007874Y5709D03*
D20*
X11008858Y7126772D03*
X11796260Y985039D03*
X7859252Y2520472D03*
D21*
X7874016Y5139567D03*
X7889764Y2068701D03*
X7858268D03*
X7889764Y5635630D03*
X7874016D03*
X11811024Y1029331D03*
X7858268Y5635630D03*
X8645669Y1029331D03*
D14*
X8726378Y960630D03*
D21*
X8677165Y5709D03*
X8645669D03*
D15*
X2120472Y555118D03*
D14*
X1470472Y302362D03*
D15*
X9955118Y452756D03*
D14*
X1403543Y302362D03*
D15*
X11529921Y4547244D03*
D14*
X2257874Y302362D03*
X6127953Y4396850D03*
X2755906Y7724409D03*
D16*
X1413780Y496063D03*
D14*
X2053543Y93701D03*
X3832677Y369291D03*
D16*
X6783858Y496063D03*
D14*
X3543307Y7791339D03*
D15*
X2140157Y555118D03*
D14*
X1470472Y481102D03*
X3765748Y369291D03*
X9433858Y3988976D03*
D21*
X9464567Y4115945D03*
X9448819Y2068701D03*
D14*
X9513780Y448819D03*
D18*
X8712598Y1417323D03*
D19*
X8726378Y7170669D03*
D21*
X7889764Y7682874D03*
D18*
X7992126Y2440945D03*
Y6535433D03*
D21*
X8677165Y2564764D03*
Y6163189D03*
X9433071Y1029331D03*
X9464567Y4612008D03*
D14*
X10221260Y918110D03*
D18*
X5629921Y4488189D03*
D14*
X11796063Y1429921D03*
D21*
X11811024Y6675000D03*
X11795276Y6659252D03*
X5511811Y5635630D03*
X7858268Y7698622D03*
D18*
X7204724Y6535433D03*
D21*
X7874016Y7171063D03*
X7889764Y6147441D03*
D20*
X7859252Y6614961D03*
X8646654Y7638583D03*
D14*
X8646457Y1941732D03*
D18*
X5629921Y5000000D03*
D21*
X8661417Y6147441D03*
X9448819Y533268D03*
X9433071Y517520D03*
D20*
X9434055Y4055906D03*
D14*
X9433858Y4500787D03*
Y6036220D03*
D21*
X10236220Y2068701D03*
X5511811Y5123819D03*
D19*
X10301181Y2052559D03*
D20*
X5497047Y4055906D03*
D14*
X11875984Y960630D03*
D21*
X11811024Y1045079D03*
X11795276Y1541142D03*
X11826772D03*
X7889764Y7698622D03*
X7858268Y7171063D03*
D14*
X7938976Y6590551D03*
D21*
X8661417Y2580512D03*
X8677165Y6147441D03*
X9448819Y6163189D03*
D19*
X9513780Y4099803D03*
D21*
X10220472Y533268D03*
D14*
X5576772Y4543307D03*
D20*
X11796260Y1496850D03*
D21*
X11811024Y4612008D03*
D14*
X11875984Y1472441D03*
X8646457Y1429921D03*
D21*
X8645669Y1045079D03*
X8661417Y6675000D03*
D20*
X8646654Y2520472D03*
D21*
X8661417Y5139567D03*
D19*
X8726378Y5315D03*
D21*
X8677165Y4100197D03*
X8661417D03*
X8677165Y4115945D03*
X8645669Y4612008D03*
X8677165D03*
D14*
X8646457Y4500787D03*
D19*
X7938976Y7682480D03*
D21*
X7874016Y5123819D03*
X7858268Y2580512D03*
X7874016D03*
X7889764Y6163189D03*
D18*
X7925197Y6535433D03*
X7992126Y1417323D03*
D21*
X8645669Y1541142D03*
D14*
X8726378Y6078740D03*
X8646457Y6036220D03*
D21*
X9464567Y517520D03*
Y1029331D03*
X9433071Y4612008D03*
Y5139567D03*
D19*
X9513780Y5123425D03*
D21*
X10251969Y3604134D03*
D18*
X10287402Y5511811D03*
D21*
X10236220Y3092323D03*
X11795276Y1029331D03*
X11826772D03*
Y1045079D03*
X11795276D03*
X11811024Y1541142D03*
Y1556890D03*
X9464567Y4100197D03*
D18*
X9500000Y3976378D03*
D14*
X9513780Y4031496D03*
D21*
X9433071Y4100197D03*
D20*
X9434055Y473228D03*
D18*
X9500000Y393701D03*
D14*
X9433858Y2453543D03*
Y406299D03*
D20*
X8646654Y4055906D03*
D21*
X8645669Y2580512D03*
D18*
X8712598Y3464567D03*
D21*
X8677165Y2580512D03*
D14*
X4409449Y7929134D03*
D15*
X9974803Y555118D03*
D16*
X1272047Y496063D03*
D14*
X-241732Y4255118D03*
X2190945Y302362D03*
D15*
X1293701Y452756D03*
X6884252D03*
X7612598Y4547244D03*
D14*
X11502362Y227559D03*
X2254331D03*
X11636220Y4255118D03*
X2053543Y26772D03*
X4553150Y4463780D03*
D17*
X1329134Y503937D03*
D14*
X3628346Y227559D03*
X3695276D03*
D15*
X4462992Y4547244D03*
D14*
X4330709Y7791339D03*
D15*
X6864567Y452756D03*
X5230709Y4649606D03*
D21*
X7086614Y4612008D03*
X9448819Y6659252D03*
X10251969Y7682874D03*
Y1541142D03*
D19*
X10301181Y2564370D03*
Y7170669D03*
D21*
X11795276Y4115945D03*
D18*
X11862205Y3976378D03*
D21*
X11811024Y3604134D03*
D18*
X11929134Y2952756D03*
D20*
X11796260Y3032283D03*
D18*
X11862205Y2952756D03*
D20*
X11796260Y4567717D03*
D21*
X11826772Y2564764D03*
Y7171063D03*
X11811024Y2052953D03*
D18*
X11929134Y1929134D03*
D21*
X11795276Y1556890D03*
X11826772Y4612008D03*
D20*
X11796260Y4055906D03*
D21*
X11811024Y4100197D03*
Y4115945D03*
D14*
X11875984Y4031496D03*
D19*
Y7170669D03*
D18*
X11862205Y1417323D03*
D14*
X11875984Y3007874D03*
D20*
X11796260Y3544094D03*
D21*
X11826772Y7186811D03*
D14*
X11796063Y2965354D03*
D21*
X11795276Y3604134D03*
D14*
X11875984Y2496063D03*
D21*
X11795276Y3588386D03*
X11826772Y6147441D03*
X11795276Y7186811D03*
X11811024Y2580512D03*
X11795276Y2564764D03*
D19*
X11875984Y2052559D03*
D21*
X11826772Y2052953D03*
D18*
X11862205Y1929134D03*
D21*
X11811024Y7171063D03*
X11795276Y6163189D03*
Y6147441D03*
D14*
X11796063Y4500787D03*
D21*
X11795276Y4100197D03*
X11826772Y3588386D03*
D18*
X11929134Y3464567D03*
D14*
X11796063Y3477165D03*
D21*
X11795276Y3076575D03*
D18*
X11929134Y2440945D03*
D21*
X11826772Y2580512D03*
D20*
X11796260Y2008661D03*
D21*
X11795276Y2052953D03*
D19*
X11875984Y4611614D03*
D21*
X11826772Y1556890D03*
D14*
X9433858Y5012598D03*
D20*
X9434055Y5079528D03*
D21*
X9464567Y5123819D03*
Y5635630D03*
Y5139567D03*
D14*
X9433858Y5524409D03*
D21*
X9464567Y1045079D03*
X9448819Y6675000D03*
X9433071Y1045079D03*
X9448819Y4612008D03*
D20*
X9434055Y1496850D03*
D21*
X9448819Y1045079D03*
X11795276Y4612008D03*
D19*
X11875984Y4099803D03*
D21*
X11826772Y4100197D03*
Y4115945D03*
D14*
X11796063Y3988976D03*
D18*
X11929134Y3976378D03*
D19*
X11875984Y3076181D03*
D14*
Y3519685D03*
D21*
X11811024Y7186811D03*
D18*
X11862205Y3464567D03*
D21*
X11811024Y3092323D03*
Y3076575D03*
Y3588386D03*
D19*
X11875984Y2564370D03*
D18*
X11862205Y2440945D03*
D21*
X11795276Y2580512D03*
X11811024Y2564764D03*
X11795276Y2068701D03*
D18*
X11862205Y5511811D03*
D21*
X11826772Y2068701D03*
D14*
X11796063Y1941732D03*
X11875984Y1984252D03*
D21*
X11826772Y6659252D03*
X11795276Y5635630D03*
X7102362Y4612008D03*
X7070866D03*
X9464567Y6675000D03*
D18*
X9500000Y7047244D03*
D19*
X10301181Y7682480D03*
D18*
X10354331Y7559055D03*
D21*
X10251969Y1556890D03*
X10236220Y1541142D03*
X10220472Y3588386D03*
D18*
X10354331Y2440945D03*
D14*
X11008661Y6036220D03*
X10221260Y3988976D03*
D17*
X2931496Y503937D03*
D16*
X5350787Y496063D03*
X2988583D03*
D14*
X1333071Y227559D03*
D17*
X4478740Y4598425D03*
D15*
X1372441Y555118D03*
X1352756D03*
X1392126D03*
D14*
X679528Y4322047D03*
X3762205Y227559D03*
X9274016Y4255118D03*
X7151575Y5055118D03*
D21*
X11023622Y6659252D03*
D14*
X11088583Y7102362D03*
D21*
X11039370Y7698622D03*
D19*
X11088583Y7682480D03*
X10301181Y5123425D03*
D14*
X-174803Y227559D03*
X-104331Y302362D03*
Y765748D03*
D15*
X-241732Y452756D03*
D16*
X-161024Y511811D03*
D17*
X-218110Y503937D03*
D14*
X478740Y160630D03*
X616142Y369291D03*
D15*
X585039Y452756D03*
X506299Y555118D03*
D14*
X478740Y26772D03*
D18*
X118110Y-118110D03*
D14*
X-241732Y160630D03*
X-107874D03*
X-171260Y302362D03*
X-104331Y369291D03*
D15*
X-222047Y555118D03*
X-281102D03*
X-202362D03*
Y452756D03*
X-261417D03*
D16*
X-302756Y511811D03*
D17*
X-245669Y503937D03*
D14*
X679528Y160630D03*
X545669D03*
X679528Y227559D03*
X683071Y369291D03*
D15*
X545669Y452756D03*
D16*
X626378Y511811D03*
X484646D03*
D15*
X545669Y555118D03*
X525984D03*
D16*
X626378Y496063D03*
X484646D03*
D19*
X64961Y5315D03*
D14*
Y-62992D03*
X-107874Y227559D03*
X-104331Y481102D03*
Y832677D03*
D15*
X-222047Y452756D03*
D16*
X-161024Y496063D03*
D14*
X612598Y160630D03*
X545669Y227559D03*
D15*
X506299Y452756D03*
X565354D03*
D14*
X683071Y548031D03*
X616142Y302362D03*
D18*
X51181Y-118110D03*
D21*
X9464567Y7186811D03*
D14*
X9513780Y7102362D03*
D19*
Y1540748D03*
D18*
X10287402Y-118110D03*
X10354331D03*
D21*
X10236220Y7682874D03*
X10220472Y5635630D03*
Y6147441D03*
X10251969Y6659252D03*
X10220472Y3076575D03*
Y3604134D03*
X-15748Y21457D03*
D14*
X-241732Y227559D03*
X-174803Y160630D03*
X-171260Y369291D03*
X-104331Y548031D03*
D15*
X-241732Y555118D03*
X-261417D03*
X-182677D03*
Y452756D03*
X-281102D03*
D16*
X-302756Y496063D03*
D17*
X569291Y503937D03*
D14*
X478740Y93701D03*
X612598Y227559D03*
X478740D03*
D15*
X525984Y452756D03*
X604724D03*
Y555118D03*
X585039D03*
X565354D03*
D17*
X541732Y503937D03*
D14*
X683071Y481102D03*
Y302362D03*
D20*
X-14764Y-38583D03*
D14*
X-14961Y-105512D03*
D21*
X7102362Y5635630D03*
X7086614D03*
D19*
X11088583Y6658858D03*
D18*
X11074803Y7047244D03*
D14*
X11008661Y6548031D03*
D21*
X11039370Y6675000D03*
X11023622Y7698622D03*
X11007874D03*
D18*
X11141732Y7559055D03*
D21*
X11007874Y3092323D03*
D14*
X10301181Y5566929D03*
D18*
X10354331Y5000000D03*
D14*
X8352756Y4255118D03*
D15*
X1372441Y452756D03*
X1352756D03*
D14*
X1333071Y160630D03*
X8346457Y7862205D03*
D16*
X2846850Y511811D03*
D15*
X2947244Y452756D03*
D14*
X1466929Y160630D03*
D16*
X2988583Y511811D03*
D14*
X3829134Y227559D03*
D17*
X1356693Y503937D03*
D15*
X9974803Y452756D03*
D14*
X1400000Y160630D03*
D15*
X2927559Y452756D03*
D14*
X1403543Y369291D03*
X1400000Y227559D03*
X11706693Y765748D03*
D17*
X9203150Y4598425D03*
D15*
X4462992Y4649606D03*
D14*
X3765748Y4396850D03*
D21*
X11811024Y6163189D03*
D14*
X8553543Y4255118D03*
X9344488Y481102D03*
X7769685Y4463780D03*
D19*
X11088583Y3076181D03*
D17*
X2144094Y4598425D03*
D14*
X9340945Y4322047D03*
D15*
X1392126Y4649606D03*
M02*

