M48
;GenerationSoftware,Autodesk,EAGLE,9.6.2*%
;CreationDate,2023-05-11T15:31:08Z*%
FMAT,2
ICI,OFF
METRIC,TZ,000.000
T6C0.200
T5C0.650
T4C0.900
T3C1.600
T2C1.800
T1C3.200
%
G90
M71
T1
X59000Y90400
X17300Y70800
X17300Y25800
X87300Y25800
X87300Y70800
X36500Y4600
T2
X10050Y81200
T3
X5550Y81200
T4
X6500Y44100
X6500Y39700
T5
X18635Y1490
X19365Y80935
X19365Y79665
X20635Y79665
X20635Y80935
X99365Y80935
X99365Y79665
X100635Y79665
X100635Y80935
X98635Y6570
X97365Y6570
X97365Y5300
X98635Y5300
X97365Y4030
X98635Y4030
X97365Y2760
X98635Y2760
X97365Y1490
X98635Y1490
X18635Y6570
X17365Y6570
X17365Y5300
X18635Y5300
X17365Y4030
X18635Y4030
X17365Y2760
X18635Y2760
X17365Y1490
T6
X35500Y84800
X35500Y85600
X35500Y86400
X35500Y82400
X35500Y83200
X35500Y84000
X35500Y90400
X35900Y91100
X47700Y90400
X47300Y91100
X46400Y91200
X45600Y91200
X44800Y91200
X39200Y91200
X38400Y91200
X37600Y91200
X36800Y91200
X41600Y91200
X40800Y91200
X40000Y91200
X44000Y91200
X43200Y91200
X42400Y91200
X47700Y80000
X47700Y80800
X47700Y81600
X47700Y87200
X47700Y88000
X47700Y88800
X47700Y89600
X47700Y84800
X47700Y85600
X47700Y86400
X47700Y82400
X47700Y83200
X47700Y84000
X33300Y80400
X41100Y74700
X42000Y74700
X41100Y78200
X42000Y78200
X44600Y78200
X45400Y78200
X44500Y74700
X45400Y74700
X46200Y75600
X46200Y76400
X46200Y77200
X43300Y69200
X43300Y70800
X43300Y67600
X44400Y71700
X46100Y71700
X47300Y69200
X47300Y70800
X47300Y67600
X44400Y66700
X46100Y66700
X29300Y83100
X28100Y83100
X30200Y84000
X27200Y84000
X27100Y85800
X30200Y85800
X42000Y59500
X42000Y60700
X42800Y58600
X42800Y61600
X44600Y61700
X44600Y58600
X32500Y57300
X32500Y56400
X33400Y55400
X34500Y55400
X35600Y55400
X36400Y56800
X36400Y55800
X31300Y56300
X30200Y57400
X36400Y61700
X36400Y62400
X7100Y69000
X5400Y69000
X8800Y69000
X10600Y69000
X3600Y69000
X3600Y70300
X10600Y70300
X7100Y71600
X5400Y71600
X8800Y71600
X10600Y71600
X3600Y71600
X3400Y57600
X3400Y56900
X3400Y56200
X3400Y55500
X4800Y55500
X5500Y55500
X4100Y55500
X8250Y53200
X7100Y52100
X8250Y52100
X9400Y52100
X6000Y52100
X6000Y53200
X10500Y53200
X10500Y52100
X5500Y77300
X4700Y74100
X3900Y74100
X3900Y74900
X6300Y74100
X7100Y74100
X7100Y74900
X3900Y76500
X3900Y77300
X4700Y77300
X6300Y77300
X7100Y77300
X7100Y76500
X10100Y75700
X13300Y75700
X11700Y74100
X11700Y77300
X10900Y74100
X10100Y74100
X10100Y74900
X12500Y74100
X13300Y74100
X13300Y74900
X10100Y76500
X10100Y77300
X10900Y77300
X12500Y77300
X13300Y77300
X13300Y76500
X29900Y63100
X29900Y65700
X3500Y35800
X3500Y39000
X2300Y35800
X1500Y36600
X4700Y35800
X1500Y38200
X2300Y39000
X4700Y39000
X5500Y36600
X5500Y38200
X3500Y44800
X3500Y48000
X2300Y44800
X1500Y45600
X4700Y44800
X1500Y47200
X2300Y48000
X4700Y48000
X5500Y45600
X5500Y47200
X9000Y44800
X9000Y48000
X7800Y44800
X7000Y45600
X10200Y44800
X7000Y47200
X7800Y48000
X10200Y48000
X11300Y48000
X9000Y35800
X9000Y39000
X7800Y35800
X7000Y36600
X10200Y35800
X7000Y38200
X7800Y39000
X10200Y39000
X11300Y35800
X11300Y39000
X11800Y36600
X11800Y38200
X13600Y38300
X14800Y39600
X12400Y39600
X14700Y44600
X12600Y45100
X12600Y44200
X12600Y43300
X13700Y46050
X16300Y45200
X17400Y45200
X15200Y45200
X16200Y44400
X17700Y44400
X16300Y47800
X17800Y47800
X14700Y47800
X25000Y49800
X23800Y49100
X26100Y48700
X26100Y47200
X19100Y38400
X18900Y37400
X19400Y36300
X57400Y34800
X56000Y37500
X55800Y23000
X55800Y22000
X40100Y35200
X39100Y34200
X40100Y33100
X39100Y36300
X40100Y37400
X41600Y29700
X41600Y28500
X41600Y27200
X43000Y26000
X41600Y26000
X57900Y23500
X57900Y22600
X65000Y22900
X65000Y20600
X64200Y21800
X66500Y22900
X68000Y22900
X66500Y20600
X68000Y20600
X26900Y4030
X25700Y4030
X24500Y4030
X23100Y6030
X24500Y6930
X25700Y6930
X26900Y6930
X80300Y32600
X80300Y30200
X80300Y31400
X59800Y26800
X61100Y25400
X62400Y26800
X62400Y25400
X59800Y25400
X56600Y28300
X56600Y29100
X56000Y36800
X59900Y34500
X59900Y33000
X66200Y33800
X66200Y32900
X67200Y32900
X65100Y42300
X56000Y43900
X57100Y42800
X57100Y43900
X53000Y42900
X51700Y44200
X49600Y44200
X47400Y43800
X45400Y43800
X43400Y43800
X44400Y43800
X46400Y43800
X48500Y44200
X50650Y44200
X53000Y44200
X53000Y40800
X79300Y74700
X79300Y72700
X78300Y73700
X75200Y77600
X73700Y76000
X56000Y62200
X55900Y75500
X52900Y77000
X62200Y83550
X67700Y76000
X57300Y59500
X58100Y41900
X75100Y71400
X48500Y36700
X49700Y35500
X65800Y77900
X57900Y16700
X44500Y26000
X4300Y65800
X7100Y65800
X6400Y65800
X5700Y65800
X5000Y65800
X7800Y65800
X8500Y65800
X9200Y65800
X9900Y65800
X4300Y65100
X7100Y65100
X6400Y65100
X5700Y65100
X61100Y40000
X7800Y65100
X8500Y65100
X9200Y65100
X9900Y65100
X45200Y26000
X47100Y40000
X47800Y40000
X57100Y40700
X57100Y41400
X61500Y36100
X60800Y36100
X61500Y30100
X60800Y30100
X57900Y24400
X57900Y25100
X28900Y6130
X28100Y6130
X60000Y75600
X60800Y75600
X68800Y30400
X68800Y32300
X23600Y46600
X27000Y43300
X29400Y41300
X25900Y42200
X49300Y32100
X47000Y24200
X47000Y15500
X53800Y34600
X50000Y32600
X47900Y24200
X47900Y15500
X48600Y31700
X46100Y24200
X46100Y15500
X46000Y32900
X69700Y75900
X50200Y22500
X50900Y23400
X51600Y24200
X51400Y21750
X50900Y21075
X53200Y30700
X52600Y31200
X56200Y33800
X56200Y34800
X56700Y35800
X75900Y81200
X57400Y36300
X76500Y82500
X55200Y37500
X59500Y80100
X70200Y73800
X75300Y83400
X5000Y65100
X52800Y36600
X51500Y37100
X45200Y24200
X45200Y19900
X50700Y36700
X44300Y24200
X44300Y19900
X41400Y43800
X17400Y84000
X19900Y46400
X27100Y40800
X18800Y43800
X22500Y41600
X51400Y22500
X51800Y28700
X52000Y23400
X52000Y17400
X69100Y40000
X79000Y31400
X56400Y39900
X22300Y46600
X22900Y38200
X22900Y37400
X22300Y47400
X20100Y43000
X20800Y42300
X22300Y43000
X65200Y84900
X64400Y84900
X75500Y84300
X76200Y84300
X62100Y75500
X63300Y75500
X64200Y75800
X65200Y75800
X3900Y75700
X7100Y75700
X5500Y74100
X28100Y88400
X29300Y88400
X27200Y87500
X30200Y87500
X47200Y60800
X47200Y59600
X46300Y61700
X46300Y58700
X34400Y81600
X35500Y80000
X35500Y80800
X35500Y81600
X35500Y87200
X35500Y88000
X35500Y88800
X35500Y89600
X53500Y37100
M30