G04 EAGLE Gerber RS-274X export*
G75*
%MOMM*%
%FSLAX34Y34*%
%LPD*%
%INBoard Outline*%
%IPPOS*%
%AMOC8*
5,1,8,0,0,1.08239X$1,22.5*%
G01*
%ADD10C,0.000000*%
%ADD11C,0.254000*%


D10*
X0Y0D02*
X1050000Y0D01*
X1050000Y950000D01*
X0Y950000D01*
X0Y0D01*
X60500Y441000D02*
X60502Y441134D01*
X60508Y441268D01*
X60518Y441401D01*
X60532Y441535D01*
X60550Y441668D01*
X60572Y441800D01*
X60597Y441931D01*
X60627Y442062D01*
X60661Y442192D01*
X60698Y442320D01*
X60739Y442448D01*
X60784Y442574D01*
X60833Y442699D01*
X60885Y442822D01*
X60941Y442944D01*
X61001Y443064D01*
X61064Y443182D01*
X61131Y443298D01*
X61201Y443412D01*
X61275Y443524D01*
X61352Y443634D01*
X61432Y443742D01*
X61515Y443847D01*
X61601Y443949D01*
X61690Y444049D01*
X61783Y444146D01*
X61878Y444241D01*
X61976Y444332D01*
X62076Y444421D01*
X62179Y444506D01*
X62285Y444589D01*
X62393Y444668D01*
X62503Y444744D01*
X62616Y444817D01*
X62731Y444886D01*
X62847Y444952D01*
X62966Y445014D01*
X63086Y445073D01*
X63209Y445128D01*
X63332Y445180D01*
X63457Y445227D01*
X63584Y445271D01*
X63712Y445312D01*
X63841Y445348D01*
X63971Y445381D01*
X64102Y445409D01*
X64233Y445434D01*
X64366Y445455D01*
X64499Y445472D01*
X64632Y445485D01*
X64766Y445494D01*
X64900Y445499D01*
X65034Y445500D01*
X65167Y445497D01*
X65301Y445490D01*
X65435Y445479D01*
X65568Y445464D01*
X65701Y445445D01*
X65833Y445422D01*
X65964Y445396D01*
X66094Y445365D01*
X66224Y445330D01*
X66352Y445292D01*
X66479Y445250D01*
X66605Y445204D01*
X66730Y445154D01*
X66853Y445101D01*
X66974Y445044D01*
X67094Y444983D01*
X67211Y444919D01*
X67327Y444852D01*
X67441Y444781D01*
X67552Y444706D01*
X67661Y444629D01*
X67768Y444548D01*
X67873Y444464D01*
X67974Y444377D01*
X68074Y444287D01*
X68170Y444194D01*
X68264Y444098D01*
X68355Y443999D01*
X68442Y443898D01*
X68527Y443794D01*
X68609Y443688D01*
X68687Y443580D01*
X68762Y443469D01*
X68834Y443356D01*
X68903Y443240D01*
X68968Y443123D01*
X69029Y443004D01*
X69087Y442883D01*
X69141Y442761D01*
X69192Y442637D01*
X69239Y442511D01*
X69282Y442384D01*
X69321Y442256D01*
X69357Y442127D01*
X69388Y441997D01*
X69416Y441866D01*
X69440Y441734D01*
X69460Y441601D01*
X69476Y441468D01*
X69488Y441335D01*
X69496Y441201D01*
X69500Y441067D01*
X69500Y440933D01*
X69496Y440799D01*
X69488Y440665D01*
X69476Y440532D01*
X69460Y440399D01*
X69440Y440266D01*
X69416Y440134D01*
X69388Y440003D01*
X69357Y439873D01*
X69321Y439744D01*
X69282Y439616D01*
X69239Y439489D01*
X69192Y439363D01*
X69141Y439239D01*
X69087Y439117D01*
X69029Y438996D01*
X68968Y438877D01*
X68903Y438760D01*
X68834Y438644D01*
X68762Y438531D01*
X68687Y438420D01*
X68609Y438312D01*
X68527Y438206D01*
X68442Y438102D01*
X68355Y438001D01*
X68264Y437902D01*
X68170Y437806D01*
X68074Y437713D01*
X67974Y437623D01*
X67873Y437536D01*
X67768Y437452D01*
X67661Y437371D01*
X67552Y437294D01*
X67441Y437219D01*
X67327Y437148D01*
X67211Y437081D01*
X67094Y437017D01*
X66974Y436956D01*
X66853Y436899D01*
X66730Y436846D01*
X66605Y436796D01*
X66479Y436750D01*
X66352Y436708D01*
X66224Y436670D01*
X66094Y436635D01*
X65964Y436604D01*
X65833Y436578D01*
X65701Y436555D01*
X65568Y436536D01*
X65435Y436521D01*
X65301Y436510D01*
X65167Y436503D01*
X65034Y436500D01*
X64900Y436501D01*
X64766Y436506D01*
X64632Y436515D01*
X64499Y436528D01*
X64366Y436545D01*
X64233Y436566D01*
X64102Y436591D01*
X63971Y436619D01*
X63841Y436652D01*
X63712Y436688D01*
X63584Y436729D01*
X63457Y436773D01*
X63332Y436820D01*
X63209Y436872D01*
X63086Y436927D01*
X62966Y436986D01*
X62847Y437048D01*
X62731Y437114D01*
X62616Y437183D01*
X62503Y437256D01*
X62393Y437332D01*
X62285Y437411D01*
X62179Y437494D01*
X62076Y437579D01*
X61976Y437668D01*
X61878Y437759D01*
X61783Y437854D01*
X61690Y437951D01*
X61601Y438051D01*
X61515Y438153D01*
X61432Y438258D01*
X61352Y438366D01*
X61275Y438476D01*
X61201Y438588D01*
X61131Y438702D01*
X61064Y438818D01*
X61001Y438936D01*
X60941Y439056D01*
X60885Y439178D01*
X60833Y439301D01*
X60784Y439426D01*
X60739Y439552D01*
X60698Y439680D01*
X60661Y439808D01*
X60627Y439938D01*
X60597Y440069D01*
X60572Y440200D01*
X60550Y440332D01*
X60532Y440465D01*
X60518Y440599D01*
X60508Y440732D01*
X60502Y440866D01*
X60500Y441000D01*
X60500Y397000D02*
X60502Y397134D01*
X60508Y397268D01*
X60518Y397401D01*
X60532Y397535D01*
X60550Y397668D01*
X60572Y397800D01*
X60597Y397931D01*
X60627Y398062D01*
X60661Y398192D01*
X60698Y398320D01*
X60739Y398448D01*
X60784Y398574D01*
X60833Y398699D01*
X60885Y398822D01*
X60941Y398944D01*
X61001Y399064D01*
X61064Y399182D01*
X61131Y399298D01*
X61201Y399412D01*
X61275Y399524D01*
X61352Y399634D01*
X61432Y399742D01*
X61515Y399847D01*
X61601Y399949D01*
X61690Y400049D01*
X61783Y400146D01*
X61878Y400241D01*
X61976Y400332D01*
X62076Y400421D01*
X62179Y400506D01*
X62285Y400589D01*
X62393Y400668D01*
X62503Y400744D01*
X62616Y400817D01*
X62731Y400886D01*
X62847Y400952D01*
X62966Y401014D01*
X63086Y401073D01*
X63209Y401128D01*
X63332Y401180D01*
X63457Y401227D01*
X63584Y401271D01*
X63712Y401312D01*
X63841Y401348D01*
X63971Y401381D01*
X64102Y401409D01*
X64233Y401434D01*
X64366Y401455D01*
X64499Y401472D01*
X64632Y401485D01*
X64766Y401494D01*
X64900Y401499D01*
X65034Y401500D01*
X65167Y401497D01*
X65301Y401490D01*
X65435Y401479D01*
X65568Y401464D01*
X65701Y401445D01*
X65833Y401422D01*
X65964Y401396D01*
X66094Y401365D01*
X66224Y401330D01*
X66352Y401292D01*
X66479Y401250D01*
X66605Y401204D01*
X66730Y401154D01*
X66853Y401101D01*
X66974Y401044D01*
X67094Y400983D01*
X67211Y400919D01*
X67327Y400852D01*
X67441Y400781D01*
X67552Y400706D01*
X67661Y400629D01*
X67768Y400548D01*
X67873Y400464D01*
X67974Y400377D01*
X68074Y400287D01*
X68170Y400194D01*
X68264Y400098D01*
X68355Y399999D01*
X68442Y399898D01*
X68527Y399794D01*
X68609Y399688D01*
X68687Y399580D01*
X68762Y399469D01*
X68834Y399356D01*
X68903Y399240D01*
X68968Y399123D01*
X69029Y399004D01*
X69087Y398883D01*
X69141Y398761D01*
X69192Y398637D01*
X69239Y398511D01*
X69282Y398384D01*
X69321Y398256D01*
X69357Y398127D01*
X69388Y397997D01*
X69416Y397866D01*
X69440Y397734D01*
X69460Y397601D01*
X69476Y397468D01*
X69488Y397335D01*
X69496Y397201D01*
X69500Y397067D01*
X69500Y396933D01*
X69496Y396799D01*
X69488Y396665D01*
X69476Y396532D01*
X69460Y396399D01*
X69440Y396266D01*
X69416Y396134D01*
X69388Y396003D01*
X69357Y395873D01*
X69321Y395744D01*
X69282Y395616D01*
X69239Y395489D01*
X69192Y395363D01*
X69141Y395239D01*
X69087Y395117D01*
X69029Y394996D01*
X68968Y394877D01*
X68903Y394760D01*
X68834Y394644D01*
X68762Y394531D01*
X68687Y394420D01*
X68609Y394312D01*
X68527Y394206D01*
X68442Y394102D01*
X68355Y394001D01*
X68264Y393902D01*
X68170Y393806D01*
X68074Y393713D01*
X67974Y393623D01*
X67873Y393536D01*
X67768Y393452D01*
X67661Y393371D01*
X67552Y393294D01*
X67441Y393219D01*
X67327Y393148D01*
X67211Y393081D01*
X67094Y393017D01*
X66974Y392956D01*
X66853Y392899D01*
X66730Y392846D01*
X66605Y392796D01*
X66479Y392750D01*
X66352Y392708D01*
X66224Y392670D01*
X66094Y392635D01*
X65964Y392604D01*
X65833Y392578D01*
X65701Y392555D01*
X65568Y392536D01*
X65435Y392521D01*
X65301Y392510D01*
X65167Y392503D01*
X65034Y392500D01*
X64900Y392501D01*
X64766Y392506D01*
X64632Y392515D01*
X64499Y392528D01*
X64366Y392545D01*
X64233Y392566D01*
X64102Y392591D01*
X63971Y392619D01*
X63841Y392652D01*
X63712Y392688D01*
X63584Y392729D01*
X63457Y392773D01*
X63332Y392820D01*
X63209Y392872D01*
X63086Y392927D01*
X62966Y392986D01*
X62847Y393048D01*
X62731Y393114D01*
X62616Y393183D01*
X62503Y393256D01*
X62393Y393332D01*
X62285Y393411D01*
X62179Y393494D01*
X62076Y393579D01*
X61976Y393668D01*
X61878Y393759D01*
X61783Y393854D01*
X61690Y393951D01*
X61601Y394051D01*
X61515Y394153D01*
X61432Y394258D01*
X61352Y394366D01*
X61275Y394476D01*
X61201Y394588D01*
X61131Y394702D01*
X61064Y394818D01*
X61001Y394936D01*
X60941Y395056D01*
X60885Y395178D01*
X60833Y395301D01*
X60784Y395426D01*
X60739Y395552D01*
X60698Y395680D01*
X60661Y395808D01*
X60627Y395938D01*
X60597Y396069D01*
X60572Y396200D01*
X60550Y396332D01*
X60532Y396465D01*
X60518Y396599D01*
X60508Y396732D01*
X60502Y396866D01*
X60500Y397000D01*
X47500Y812000D02*
X47502Y812196D01*
X47510Y812393D01*
X47522Y812589D01*
X47539Y812784D01*
X47560Y812979D01*
X47587Y813174D01*
X47618Y813368D01*
X47654Y813561D01*
X47694Y813753D01*
X47740Y813944D01*
X47790Y814134D01*
X47844Y814322D01*
X47904Y814509D01*
X47968Y814695D01*
X48036Y814879D01*
X48109Y815061D01*
X48186Y815242D01*
X48268Y815420D01*
X48354Y815597D01*
X48445Y815771D01*
X48539Y815943D01*
X48638Y816113D01*
X48741Y816280D01*
X48848Y816445D01*
X48959Y816606D01*
X49074Y816766D01*
X49193Y816922D01*
X49316Y817075D01*
X49442Y817225D01*
X49572Y817372D01*
X49706Y817516D01*
X49843Y817657D01*
X49984Y817794D01*
X50128Y817928D01*
X50275Y818058D01*
X50425Y818184D01*
X50578Y818307D01*
X50734Y818426D01*
X50894Y818541D01*
X51055Y818652D01*
X51220Y818759D01*
X51387Y818862D01*
X51557Y818961D01*
X51729Y819055D01*
X51903Y819146D01*
X52080Y819232D01*
X52258Y819314D01*
X52439Y819391D01*
X52621Y819464D01*
X52805Y819532D01*
X52991Y819596D01*
X53178Y819656D01*
X53366Y819710D01*
X53556Y819760D01*
X53747Y819806D01*
X53939Y819846D01*
X54132Y819882D01*
X54326Y819913D01*
X54521Y819940D01*
X54716Y819961D01*
X54911Y819978D01*
X55107Y819990D01*
X55304Y819998D01*
X55500Y820000D01*
X55696Y819998D01*
X55893Y819990D01*
X56089Y819978D01*
X56284Y819961D01*
X56479Y819940D01*
X56674Y819913D01*
X56868Y819882D01*
X57061Y819846D01*
X57253Y819806D01*
X57444Y819760D01*
X57634Y819710D01*
X57822Y819656D01*
X58009Y819596D01*
X58195Y819532D01*
X58379Y819464D01*
X58561Y819391D01*
X58742Y819314D01*
X58920Y819232D01*
X59097Y819146D01*
X59271Y819055D01*
X59443Y818961D01*
X59613Y818862D01*
X59780Y818759D01*
X59945Y818652D01*
X60106Y818541D01*
X60266Y818426D01*
X60422Y818307D01*
X60575Y818184D01*
X60725Y818058D01*
X60872Y817928D01*
X61016Y817794D01*
X61157Y817657D01*
X61294Y817516D01*
X61428Y817372D01*
X61558Y817225D01*
X61684Y817075D01*
X61807Y816922D01*
X61926Y816766D01*
X62041Y816606D01*
X62152Y816445D01*
X62259Y816280D01*
X62362Y816113D01*
X62461Y815943D01*
X62555Y815771D01*
X62646Y815597D01*
X62732Y815420D01*
X62814Y815242D01*
X62891Y815061D01*
X62964Y814879D01*
X63032Y814695D01*
X63096Y814509D01*
X63156Y814322D01*
X63210Y814134D01*
X63260Y813944D01*
X63306Y813753D01*
X63346Y813561D01*
X63382Y813368D01*
X63413Y813174D01*
X63440Y812979D01*
X63461Y812784D01*
X63478Y812589D01*
X63490Y812393D01*
X63498Y812196D01*
X63500Y812000D01*
X63498Y811804D01*
X63490Y811607D01*
X63478Y811411D01*
X63461Y811216D01*
X63440Y811021D01*
X63413Y810826D01*
X63382Y810632D01*
X63346Y810439D01*
X63306Y810247D01*
X63260Y810056D01*
X63210Y809866D01*
X63156Y809678D01*
X63096Y809491D01*
X63032Y809305D01*
X62964Y809121D01*
X62891Y808939D01*
X62814Y808758D01*
X62732Y808580D01*
X62646Y808403D01*
X62555Y808229D01*
X62461Y808057D01*
X62362Y807887D01*
X62259Y807720D01*
X62152Y807555D01*
X62041Y807394D01*
X61926Y807234D01*
X61807Y807078D01*
X61684Y806925D01*
X61558Y806775D01*
X61428Y806628D01*
X61294Y806484D01*
X61157Y806343D01*
X61016Y806206D01*
X60872Y806072D01*
X60725Y805942D01*
X60575Y805816D01*
X60422Y805693D01*
X60266Y805574D01*
X60106Y805459D01*
X59945Y805348D01*
X59780Y805241D01*
X59613Y805138D01*
X59443Y805039D01*
X59271Y804945D01*
X59097Y804854D01*
X58920Y804768D01*
X58742Y804686D01*
X58561Y804609D01*
X58379Y804536D01*
X58195Y804468D01*
X58009Y804404D01*
X57822Y804344D01*
X57634Y804290D01*
X57444Y804240D01*
X57253Y804194D01*
X57061Y804154D01*
X56868Y804118D01*
X56674Y804087D01*
X56479Y804060D01*
X56284Y804039D01*
X56089Y804022D01*
X55893Y804010D01*
X55696Y804002D01*
X55500Y804000D01*
X55304Y804002D01*
X55107Y804010D01*
X54911Y804022D01*
X54716Y804039D01*
X54521Y804060D01*
X54326Y804087D01*
X54132Y804118D01*
X53939Y804154D01*
X53747Y804194D01*
X53556Y804240D01*
X53366Y804290D01*
X53178Y804344D01*
X52991Y804404D01*
X52805Y804468D01*
X52621Y804536D01*
X52439Y804609D01*
X52258Y804686D01*
X52080Y804768D01*
X51903Y804854D01*
X51729Y804945D01*
X51557Y805039D01*
X51387Y805138D01*
X51220Y805241D01*
X51055Y805348D01*
X50894Y805459D01*
X50734Y805574D01*
X50578Y805693D01*
X50425Y805816D01*
X50275Y805942D01*
X50128Y806072D01*
X49984Y806206D01*
X49843Y806343D01*
X49706Y806484D01*
X49572Y806628D01*
X49442Y806775D01*
X49316Y806925D01*
X49193Y807078D01*
X49074Y807234D01*
X48959Y807394D01*
X48848Y807555D01*
X48741Y807720D01*
X48638Y807887D01*
X48539Y808057D01*
X48445Y808229D01*
X48354Y808403D01*
X48268Y808580D01*
X48186Y808758D01*
X48109Y808939D01*
X48036Y809121D01*
X47968Y809305D01*
X47904Y809491D01*
X47844Y809678D01*
X47790Y809866D01*
X47740Y810056D01*
X47694Y810247D01*
X47654Y810439D01*
X47618Y810632D01*
X47587Y810826D01*
X47560Y811021D01*
X47539Y811216D01*
X47522Y811411D01*
X47510Y811607D01*
X47502Y811804D01*
X47500Y812000D01*
X91500Y812000D02*
X91503Y812221D01*
X91511Y812442D01*
X91524Y812662D01*
X91543Y812882D01*
X91568Y813102D01*
X91597Y813321D01*
X91633Y813539D01*
X91673Y813756D01*
X91719Y813972D01*
X91770Y814187D01*
X91826Y814400D01*
X91888Y814613D01*
X91954Y814823D01*
X92026Y815032D01*
X92103Y815239D01*
X92185Y815444D01*
X92272Y815647D01*
X92364Y815848D01*
X92461Y816047D01*
X92563Y816243D01*
X92669Y816436D01*
X92780Y816627D01*
X92896Y816815D01*
X93017Y817000D01*
X93142Y817182D01*
X93271Y817361D01*
X93405Y817537D01*
X93543Y817710D01*
X93685Y817879D01*
X93831Y818044D01*
X93982Y818206D01*
X94136Y818364D01*
X94294Y818518D01*
X94456Y818669D01*
X94621Y818815D01*
X94790Y818957D01*
X94963Y819095D01*
X95139Y819229D01*
X95318Y819358D01*
X95500Y819483D01*
X95685Y819604D01*
X95873Y819720D01*
X96064Y819831D01*
X96257Y819937D01*
X96453Y820039D01*
X96652Y820136D01*
X96853Y820228D01*
X97056Y820315D01*
X97261Y820397D01*
X97468Y820474D01*
X97677Y820546D01*
X97887Y820612D01*
X98100Y820674D01*
X98313Y820730D01*
X98528Y820781D01*
X98744Y820827D01*
X98961Y820867D01*
X99179Y820903D01*
X99398Y820932D01*
X99618Y820957D01*
X99838Y820976D01*
X100058Y820989D01*
X100279Y820997D01*
X100500Y821000D01*
X100721Y820997D01*
X100942Y820989D01*
X101162Y820976D01*
X101382Y820957D01*
X101602Y820932D01*
X101821Y820903D01*
X102039Y820867D01*
X102256Y820827D01*
X102472Y820781D01*
X102687Y820730D01*
X102900Y820674D01*
X103113Y820612D01*
X103323Y820546D01*
X103532Y820474D01*
X103739Y820397D01*
X103944Y820315D01*
X104147Y820228D01*
X104348Y820136D01*
X104547Y820039D01*
X104743Y819937D01*
X104936Y819831D01*
X105127Y819720D01*
X105315Y819604D01*
X105500Y819483D01*
X105682Y819358D01*
X105861Y819229D01*
X106037Y819095D01*
X106210Y818957D01*
X106379Y818815D01*
X106544Y818669D01*
X106706Y818518D01*
X106864Y818364D01*
X107018Y818206D01*
X107169Y818044D01*
X107315Y817879D01*
X107457Y817710D01*
X107595Y817537D01*
X107729Y817361D01*
X107858Y817182D01*
X107983Y817000D01*
X108104Y816815D01*
X108220Y816627D01*
X108331Y816436D01*
X108437Y816243D01*
X108539Y816047D01*
X108636Y815848D01*
X108728Y815647D01*
X108815Y815444D01*
X108897Y815239D01*
X108974Y815032D01*
X109046Y814823D01*
X109112Y814613D01*
X109174Y814400D01*
X109230Y814187D01*
X109281Y813972D01*
X109327Y813756D01*
X109367Y813539D01*
X109403Y813321D01*
X109432Y813102D01*
X109457Y812882D01*
X109476Y812662D01*
X109489Y812442D01*
X109497Y812221D01*
X109500Y812000D01*
X109497Y811779D01*
X109489Y811558D01*
X109476Y811338D01*
X109457Y811118D01*
X109432Y810898D01*
X109403Y810679D01*
X109367Y810461D01*
X109327Y810244D01*
X109281Y810028D01*
X109230Y809813D01*
X109174Y809600D01*
X109112Y809387D01*
X109046Y809177D01*
X108974Y808968D01*
X108897Y808761D01*
X108815Y808556D01*
X108728Y808353D01*
X108636Y808152D01*
X108539Y807953D01*
X108437Y807757D01*
X108331Y807564D01*
X108220Y807373D01*
X108104Y807185D01*
X107983Y807000D01*
X107858Y806818D01*
X107729Y806639D01*
X107595Y806463D01*
X107457Y806290D01*
X107315Y806121D01*
X107169Y805956D01*
X107018Y805794D01*
X106864Y805636D01*
X106706Y805482D01*
X106544Y805331D01*
X106379Y805185D01*
X106210Y805043D01*
X106037Y804905D01*
X105861Y804771D01*
X105682Y804642D01*
X105500Y804517D01*
X105315Y804396D01*
X105127Y804280D01*
X104936Y804169D01*
X104743Y804063D01*
X104547Y803961D01*
X104348Y803864D01*
X104147Y803772D01*
X103944Y803685D01*
X103739Y803603D01*
X103532Y803526D01*
X103323Y803454D01*
X103113Y803388D01*
X102900Y803326D01*
X102687Y803270D01*
X102472Y803219D01*
X102256Y803173D01*
X102039Y803133D01*
X101821Y803097D01*
X101602Y803068D01*
X101382Y803043D01*
X101162Y803024D01*
X100942Y803011D01*
X100721Y803003D01*
X100500Y803000D01*
X100279Y803003D01*
X100058Y803011D01*
X99838Y803024D01*
X99618Y803043D01*
X99398Y803068D01*
X99179Y803097D01*
X98961Y803133D01*
X98744Y803173D01*
X98528Y803219D01*
X98313Y803270D01*
X98100Y803326D01*
X97887Y803388D01*
X97677Y803454D01*
X97468Y803526D01*
X97261Y803603D01*
X97056Y803685D01*
X96853Y803772D01*
X96652Y803864D01*
X96453Y803961D01*
X96257Y804063D01*
X96064Y804169D01*
X95873Y804280D01*
X95685Y804396D01*
X95500Y804517D01*
X95318Y804642D01*
X95139Y804771D01*
X94963Y804905D01*
X94790Y805043D01*
X94621Y805185D01*
X94456Y805331D01*
X94294Y805482D01*
X94136Y805636D01*
X93982Y805794D01*
X93831Y805956D01*
X93685Y806121D01*
X93543Y806290D01*
X93405Y806463D01*
X93271Y806639D01*
X93142Y806818D01*
X93017Y807000D01*
X92896Y807185D01*
X92780Y807373D01*
X92669Y807564D01*
X92563Y807757D01*
X92461Y807953D01*
X92364Y808152D01*
X92272Y808353D01*
X92185Y808556D01*
X92103Y808761D01*
X92026Y808968D01*
X91954Y809177D01*
X91888Y809387D01*
X91826Y809600D01*
X91770Y809813D01*
X91719Y810028D01*
X91673Y810244D01*
X91633Y810461D01*
X91597Y810679D01*
X91568Y810898D01*
X91543Y811118D01*
X91524Y811338D01*
X91511Y811558D01*
X91503Y811779D01*
X91500Y812000D01*
X157000Y708000D02*
X157005Y708393D01*
X157019Y708785D01*
X157043Y709177D01*
X157077Y709568D01*
X157120Y709959D01*
X157173Y710348D01*
X157236Y710735D01*
X157307Y711121D01*
X157389Y711506D01*
X157479Y711888D01*
X157580Y712267D01*
X157689Y712645D01*
X157808Y713019D01*
X157935Y713390D01*
X158072Y713758D01*
X158218Y714123D01*
X158373Y714484D01*
X158536Y714841D01*
X158708Y715194D01*
X158889Y715542D01*
X159079Y715886D01*
X159276Y716226D01*
X159482Y716560D01*
X159696Y716889D01*
X159919Y717213D01*
X160149Y717531D01*
X160386Y717844D01*
X160632Y718150D01*
X160885Y718451D01*
X161145Y718745D01*
X161412Y719033D01*
X161686Y719314D01*
X161967Y719588D01*
X162255Y719855D01*
X162549Y720115D01*
X162850Y720368D01*
X163156Y720614D01*
X163469Y720851D01*
X163787Y721081D01*
X164111Y721304D01*
X164440Y721518D01*
X164774Y721724D01*
X165114Y721921D01*
X165458Y722111D01*
X165806Y722292D01*
X166159Y722464D01*
X166516Y722627D01*
X166877Y722782D01*
X167242Y722928D01*
X167610Y723065D01*
X167981Y723192D01*
X168355Y723311D01*
X168733Y723420D01*
X169112Y723521D01*
X169494Y723611D01*
X169879Y723693D01*
X170265Y723764D01*
X170652Y723827D01*
X171041Y723880D01*
X171432Y723923D01*
X171823Y723957D01*
X172215Y723981D01*
X172607Y723995D01*
X173000Y724000D01*
X173393Y723995D01*
X173785Y723981D01*
X174177Y723957D01*
X174568Y723923D01*
X174959Y723880D01*
X175348Y723827D01*
X175735Y723764D01*
X176121Y723693D01*
X176506Y723611D01*
X176888Y723521D01*
X177267Y723420D01*
X177645Y723311D01*
X178019Y723192D01*
X178390Y723065D01*
X178758Y722928D01*
X179123Y722782D01*
X179484Y722627D01*
X179841Y722464D01*
X180194Y722292D01*
X180542Y722111D01*
X180886Y721921D01*
X181226Y721724D01*
X181560Y721518D01*
X181889Y721304D01*
X182213Y721081D01*
X182531Y720851D01*
X182844Y720614D01*
X183150Y720368D01*
X183451Y720115D01*
X183745Y719855D01*
X184033Y719588D01*
X184314Y719314D01*
X184588Y719033D01*
X184855Y718745D01*
X185115Y718451D01*
X185368Y718150D01*
X185614Y717844D01*
X185851Y717531D01*
X186081Y717213D01*
X186304Y716889D01*
X186518Y716560D01*
X186724Y716226D01*
X186921Y715886D01*
X187111Y715542D01*
X187292Y715194D01*
X187464Y714841D01*
X187627Y714484D01*
X187782Y714123D01*
X187928Y713758D01*
X188065Y713390D01*
X188192Y713019D01*
X188311Y712645D01*
X188420Y712267D01*
X188521Y711888D01*
X188611Y711506D01*
X188693Y711121D01*
X188764Y710735D01*
X188827Y710348D01*
X188880Y709959D01*
X188923Y709568D01*
X188957Y709177D01*
X188981Y708785D01*
X188995Y708393D01*
X189000Y708000D01*
X188995Y707607D01*
X188981Y707215D01*
X188957Y706823D01*
X188923Y706432D01*
X188880Y706041D01*
X188827Y705652D01*
X188764Y705265D01*
X188693Y704879D01*
X188611Y704494D01*
X188521Y704112D01*
X188420Y703733D01*
X188311Y703355D01*
X188192Y702981D01*
X188065Y702610D01*
X187928Y702242D01*
X187782Y701877D01*
X187627Y701516D01*
X187464Y701159D01*
X187292Y700806D01*
X187111Y700458D01*
X186921Y700114D01*
X186724Y699774D01*
X186518Y699440D01*
X186304Y699111D01*
X186081Y698787D01*
X185851Y698469D01*
X185614Y698156D01*
X185368Y697850D01*
X185115Y697549D01*
X184855Y697255D01*
X184588Y696967D01*
X184314Y696686D01*
X184033Y696412D01*
X183745Y696145D01*
X183451Y695885D01*
X183150Y695632D01*
X182844Y695386D01*
X182531Y695149D01*
X182213Y694919D01*
X181889Y694696D01*
X181560Y694482D01*
X181226Y694276D01*
X180886Y694079D01*
X180542Y693889D01*
X180194Y693708D01*
X179841Y693536D01*
X179484Y693373D01*
X179123Y693218D01*
X178758Y693072D01*
X178390Y692935D01*
X178019Y692808D01*
X177645Y692689D01*
X177267Y692580D01*
X176888Y692479D01*
X176506Y692389D01*
X176121Y692307D01*
X175735Y692236D01*
X175348Y692173D01*
X174959Y692120D01*
X174568Y692077D01*
X174177Y692043D01*
X173785Y692019D01*
X173393Y692005D01*
X173000Y692000D01*
X172607Y692005D01*
X172215Y692019D01*
X171823Y692043D01*
X171432Y692077D01*
X171041Y692120D01*
X170652Y692173D01*
X170265Y692236D01*
X169879Y692307D01*
X169494Y692389D01*
X169112Y692479D01*
X168733Y692580D01*
X168355Y692689D01*
X167981Y692808D01*
X167610Y692935D01*
X167242Y693072D01*
X166877Y693218D01*
X166516Y693373D01*
X166159Y693536D01*
X165806Y693708D01*
X165458Y693889D01*
X165114Y694079D01*
X164774Y694276D01*
X164440Y694482D01*
X164111Y694696D01*
X163787Y694919D01*
X163469Y695149D01*
X163156Y695386D01*
X162850Y695632D01*
X162549Y695885D01*
X162255Y696145D01*
X161967Y696412D01*
X161686Y696686D01*
X161412Y696967D01*
X161145Y697255D01*
X160885Y697549D01*
X160632Y697850D01*
X160386Y698156D01*
X160149Y698469D01*
X159919Y698787D01*
X159696Y699111D01*
X159482Y699440D01*
X159276Y699774D01*
X159079Y700114D01*
X158889Y700458D01*
X158708Y700806D01*
X158536Y701159D01*
X158373Y701516D01*
X158218Y701877D01*
X158072Y702242D01*
X157935Y702610D01*
X157808Y702981D01*
X157689Y703355D01*
X157580Y703733D01*
X157479Y704112D01*
X157389Y704494D01*
X157307Y704879D01*
X157236Y705265D01*
X157173Y705652D01*
X157120Y706041D01*
X157077Y706432D01*
X157043Y706823D01*
X157019Y707215D01*
X157005Y707607D01*
X157000Y708000D01*
X157000Y258000D02*
X157005Y258393D01*
X157019Y258785D01*
X157043Y259177D01*
X157077Y259568D01*
X157120Y259959D01*
X157173Y260348D01*
X157236Y260735D01*
X157307Y261121D01*
X157389Y261506D01*
X157479Y261888D01*
X157580Y262267D01*
X157689Y262645D01*
X157808Y263019D01*
X157935Y263390D01*
X158072Y263758D01*
X158218Y264123D01*
X158373Y264484D01*
X158536Y264841D01*
X158708Y265194D01*
X158889Y265542D01*
X159079Y265886D01*
X159276Y266226D01*
X159482Y266560D01*
X159696Y266889D01*
X159919Y267213D01*
X160149Y267531D01*
X160386Y267844D01*
X160632Y268150D01*
X160885Y268451D01*
X161145Y268745D01*
X161412Y269033D01*
X161686Y269314D01*
X161967Y269588D01*
X162255Y269855D01*
X162549Y270115D01*
X162850Y270368D01*
X163156Y270614D01*
X163469Y270851D01*
X163787Y271081D01*
X164111Y271304D01*
X164440Y271518D01*
X164774Y271724D01*
X165114Y271921D01*
X165458Y272111D01*
X165806Y272292D01*
X166159Y272464D01*
X166516Y272627D01*
X166877Y272782D01*
X167242Y272928D01*
X167610Y273065D01*
X167981Y273192D01*
X168355Y273311D01*
X168733Y273420D01*
X169112Y273521D01*
X169494Y273611D01*
X169879Y273693D01*
X170265Y273764D01*
X170652Y273827D01*
X171041Y273880D01*
X171432Y273923D01*
X171823Y273957D01*
X172215Y273981D01*
X172607Y273995D01*
X173000Y274000D01*
X173393Y273995D01*
X173785Y273981D01*
X174177Y273957D01*
X174568Y273923D01*
X174959Y273880D01*
X175348Y273827D01*
X175735Y273764D01*
X176121Y273693D01*
X176506Y273611D01*
X176888Y273521D01*
X177267Y273420D01*
X177645Y273311D01*
X178019Y273192D01*
X178390Y273065D01*
X178758Y272928D01*
X179123Y272782D01*
X179484Y272627D01*
X179841Y272464D01*
X180194Y272292D01*
X180542Y272111D01*
X180886Y271921D01*
X181226Y271724D01*
X181560Y271518D01*
X181889Y271304D01*
X182213Y271081D01*
X182531Y270851D01*
X182844Y270614D01*
X183150Y270368D01*
X183451Y270115D01*
X183745Y269855D01*
X184033Y269588D01*
X184314Y269314D01*
X184588Y269033D01*
X184855Y268745D01*
X185115Y268451D01*
X185368Y268150D01*
X185614Y267844D01*
X185851Y267531D01*
X186081Y267213D01*
X186304Y266889D01*
X186518Y266560D01*
X186724Y266226D01*
X186921Y265886D01*
X187111Y265542D01*
X187292Y265194D01*
X187464Y264841D01*
X187627Y264484D01*
X187782Y264123D01*
X187928Y263758D01*
X188065Y263390D01*
X188192Y263019D01*
X188311Y262645D01*
X188420Y262267D01*
X188521Y261888D01*
X188611Y261506D01*
X188693Y261121D01*
X188764Y260735D01*
X188827Y260348D01*
X188880Y259959D01*
X188923Y259568D01*
X188957Y259177D01*
X188981Y258785D01*
X188995Y258393D01*
X189000Y258000D01*
X188995Y257607D01*
X188981Y257215D01*
X188957Y256823D01*
X188923Y256432D01*
X188880Y256041D01*
X188827Y255652D01*
X188764Y255265D01*
X188693Y254879D01*
X188611Y254494D01*
X188521Y254112D01*
X188420Y253733D01*
X188311Y253355D01*
X188192Y252981D01*
X188065Y252610D01*
X187928Y252242D01*
X187782Y251877D01*
X187627Y251516D01*
X187464Y251159D01*
X187292Y250806D01*
X187111Y250458D01*
X186921Y250114D01*
X186724Y249774D01*
X186518Y249440D01*
X186304Y249111D01*
X186081Y248787D01*
X185851Y248469D01*
X185614Y248156D01*
X185368Y247850D01*
X185115Y247549D01*
X184855Y247255D01*
X184588Y246967D01*
X184314Y246686D01*
X184033Y246412D01*
X183745Y246145D01*
X183451Y245885D01*
X183150Y245632D01*
X182844Y245386D01*
X182531Y245149D01*
X182213Y244919D01*
X181889Y244696D01*
X181560Y244482D01*
X181226Y244276D01*
X180886Y244079D01*
X180542Y243889D01*
X180194Y243708D01*
X179841Y243536D01*
X179484Y243373D01*
X179123Y243218D01*
X178758Y243072D01*
X178390Y242935D01*
X178019Y242808D01*
X177645Y242689D01*
X177267Y242580D01*
X176888Y242479D01*
X176506Y242389D01*
X176121Y242307D01*
X175735Y242236D01*
X175348Y242173D01*
X174959Y242120D01*
X174568Y242077D01*
X174177Y242043D01*
X173785Y242019D01*
X173393Y242005D01*
X173000Y242000D01*
X172607Y242005D01*
X172215Y242019D01*
X171823Y242043D01*
X171432Y242077D01*
X171041Y242120D01*
X170652Y242173D01*
X170265Y242236D01*
X169879Y242307D01*
X169494Y242389D01*
X169112Y242479D01*
X168733Y242580D01*
X168355Y242689D01*
X167981Y242808D01*
X167610Y242935D01*
X167242Y243072D01*
X166877Y243218D01*
X166516Y243373D01*
X166159Y243536D01*
X165806Y243708D01*
X165458Y243889D01*
X165114Y244079D01*
X164774Y244276D01*
X164440Y244482D01*
X164111Y244696D01*
X163787Y244919D01*
X163469Y245149D01*
X163156Y245386D01*
X162850Y245632D01*
X162549Y245885D01*
X162255Y246145D01*
X161967Y246412D01*
X161686Y246686D01*
X161412Y246967D01*
X161145Y247255D01*
X160885Y247549D01*
X160632Y247850D01*
X160386Y248156D01*
X160149Y248469D01*
X159919Y248787D01*
X159696Y249111D01*
X159482Y249440D01*
X159276Y249774D01*
X159079Y250114D01*
X158889Y250458D01*
X158708Y250806D01*
X158536Y251159D01*
X158373Y251516D01*
X158218Y251877D01*
X158072Y252242D01*
X157935Y252610D01*
X157808Y252981D01*
X157689Y253355D01*
X157580Y253733D01*
X157479Y254112D01*
X157389Y254494D01*
X157307Y254879D01*
X157236Y255265D01*
X157173Y255652D01*
X157120Y256041D01*
X157077Y256432D01*
X157043Y256823D01*
X157019Y257215D01*
X157005Y257607D01*
X157000Y258000D01*
X857000Y258000D02*
X857005Y258393D01*
X857019Y258785D01*
X857043Y259177D01*
X857077Y259568D01*
X857120Y259959D01*
X857173Y260348D01*
X857236Y260735D01*
X857307Y261121D01*
X857389Y261506D01*
X857479Y261888D01*
X857580Y262267D01*
X857689Y262645D01*
X857808Y263019D01*
X857935Y263390D01*
X858072Y263758D01*
X858218Y264123D01*
X858373Y264484D01*
X858536Y264841D01*
X858708Y265194D01*
X858889Y265542D01*
X859079Y265886D01*
X859276Y266226D01*
X859482Y266560D01*
X859696Y266889D01*
X859919Y267213D01*
X860149Y267531D01*
X860386Y267844D01*
X860632Y268150D01*
X860885Y268451D01*
X861145Y268745D01*
X861412Y269033D01*
X861686Y269314D01*
X861967Y269588D01*
X862255Y269855D01*
X862549Y270115D01*
X862850Y270368D01*
X863156Y270614D01*
X863469Y270851D01*
X863787Y271081D01*
X864111Y271304D01*
X864440Y271518D01*
X864774Y271724D01*
X865114Y271921D01*
X865458Y272111D01*
X865806Y272292D01*
X866159Y272464D01*
X866516Y272627D01*
X866877Y272782D01*
X867242Y272928D01*
X867610Y273065D01*
X867981Y273192D01*
X868355Y273311D01*
X868733Y273420D01*
X869112Y273521D01*
X869494Y273611D01*
X869879Y273693D01*
X870265Y273764D01*
X870652Y273827D01*
X871041Y273880D01*
X871432Y273923D01*
X871823Y273957D01*
X872215Y273981D01*
X872607Y273995D01*
X873000Y274000D01*
X873393Y273995D01*
X873785Y273981D01*
X874177Y273957D01*
X874568Y273923D01*
X874959Y273880D01*
X875348Y273827D01*
X875735Y273764D01*
X876121Y273693D01*
X876506Y273611D01*
X876888Y273521D01*
X877267Y273420D01*
X877645Y273311D01*
X878019Y273192D01*
X878390Y273065D01*
X878758Y272928D01*
X879123Y272782D01*
X879484Y272627D01*
X879841Y272464D01*
X880194Y272292D01*
X880542Y272111D01*
X880886Y271921D01*
X881226Y271724D01*
X881560Y271518D01*
X881889Y271304D01*
X882213Y271081D01*
X882531Y270851D01*
X882844Y270614D01*
X883150Y270368D01*
X883451Y270115D01*
X883745Y269855D01*
X884033Y269588D01*
X884314Y269314D01*
X884588Y269033D01*
X884855Y268745D01*
X885115Y268451D01*
X885368Y268150D01*
X885614Y267844D01*
X885851Y267531D01*
X886081Y267213D01*
X886304Y266889D01*
X886518Y266560D01*
X886724Y266226D01*
X886921Y265886D01*
X887111Y265542D01*
X887292Y265194D01*
X887464Y264841D01*
X887627Y264484D01*
X887782Y264123D01*
X887928Y263758D01*
X888065Y263390D01*
X888192Y263019D01*
X888311Y262645D01*
X888420Y262267D01*
X888521Y261888D01*
X888611Y261506D01*
X888693Y261121D01*
X888764Y260735D01*
X888827Y260348D01*
X888880Y259959D01*
X888923Y259568D01*
X888957Y259177D01*
X888981Y258785D01*
X888995Y258393D01*
X889000Y258000D01*
X888995Y257607D01*
X888981Y257215D01*
X888957Y256823D01*
X888923Y256432D01*
X888880Y256041D01*
X888827Y255652D01*
X888764Y255265D01*
X888693Y254879D01*
X888611Y254494D01*
X888521Y254112D01*
X888420Y253733D01*
X888311Y253355D01*
X888192Y252981D01*
X888065Y252610D01*
X887928Y252242D01*
X887782Y251877D01*
X887627Y251516D01*
X887464Y251159D01*
X887292Y250806D01*
X887111Y250458D01*
X886921Y250114D01*
X886724Y249774D01*
X886518Y249440D01*
X886304Y249111D01*
X886081Y248787D01*
X885851Y248469D01*
X885614Y248156D01*
X885368Y247850D01*
X885115Y247549D01*
X884855Y247255D01*
X884588Y246967D01*
X884314Y246686D01*
X884033Y246412D01*
X883745Y246145D01*
X883451Y245885D01*
X883150Y245632D01*
X882844Y245386D01*
X882531Y245149D01*
X882213Y244919D01*
X881889Y244696D01*
X881560Y244482D01*
X881226Y244276D01*
X880886Y244079D01*
X880542Y243889D01*
X880194Y243708D01*
X879841Y243536D01*
X879484Y243373D01*
X879123Y243218D01*
X878758Y243072D01*
X878390Y242935D01*
X878019Y242808D01*
X877645Y242689D01*
X877267Y242580D01*
X876888Y242479D01*
X876506Y242389D01*
X876121Y242307D01*
X875735Y242236D01*
X875348Y242173D01*
X874959Y242120D01*
X874568Y242077D01*
X874177Y242043D01*
X873785Y242019D01*
X873393Y242005D01*
X873000Y242000D01*
X872607Y242005D01*
X872215Y242019D01*
X871823Y242043D01*
X871432Y242077D01*
X871041Y242120D01*
X870652Y242173D01*
X870265Y242236D01*
X869879Y242307D01*
X869494Y242389D01*
X869112Y242479D01*
X868733Y242580D01*
X868355Y242689D01*
X867981Y242808D01*
X867610Y242935D01*
X867242Y243072D01*
X866877Y243218D01*
X866516Y243373D01*
X866159Y243536D01*
X865806Y243708D01*
X865458Y243889D01*
X865114Y244079D01*
X864774Y244276D01*
X864440Y244482D01*
X864111Y244696D01*
X863787Y244919D01*
X863469Y245149D01*
X863156Y245386D01*
X862850Y245632D01*
X862549Y245885D01*
X862255Y246145D01*
X861967Y246412D01*
X861686Y246686D01*
X861412Y246967D01*
X861145Y247255D01*
X860885Y247549D01*
X860632Y247850D01*
X860386Y248156D01*
X860149Y248469D01*
X859919Y248787D01*
X859696Y249111D01*
X859482Y249440D01*
X859276Y249774D01*
X859079Y250114D01*
X858889Y250458D01*
X858708Y250806D01*
X858536Y251159D01*
X858373Y251516D01*
X858218Y251877D01*
X858072Y252242D01*
X857935Y252610D01*
X857808Y252981D01*
X857689Y253355D01*
X857580Y253733D01*
X857479Y254112D01*
X857389Y254494D01*
X857307Y254879D01*
X857236Y255265D01*
X857173Y255652D01*
X857120Y256041D01*
X857077Y256432D01*
X857043Y256823D01*
X857019Y257215D01*
X857005Y257607D01*
X857000Y258000D01*
X857000Y708000D02*
X857005Y708393D01*
X857019Y708785D01*
X857043Y709177D01*
X857077Y709568D01*
X857120Y709959D01*
X857173Y710348D01*
X857236Y710735D01*
X857307Y711121D01*
X857389Y711506D01*
X857479Y711888D01*
X857580Y712267D01*
X857689Y712645D01*
X857808Y713019D01*
X857935Y713390D01*
X858072Y713758D01*
X858218Y714123D01*
X858373Y714484D01*
X858536Y714841D01*
X858708Y715194D01*
X858889Y715542D01*
X859079Y715886D01*
X859276Y716226D01*
X859482Y716560D01*
X859696Y716889D01*
X859919Y717213D01*
X860149Y717531D01*
X860386Y717844D01*
X860632Y718150D01*
X860885Y718451D01*
X861145Y718745D01*
X861412Y719033D01*
X861686Y719314D01*
X861967Y719588D01*
X862255Y719855D01*
X862549Y720115D01*
X862850Y720368D01*
X863156Y720614D01*
X863469Y720851D01*
X863787Y721081D01*
X864111Y721304D01*
X864440Y721518D01*
X864774Y721724D01*
X865114Y721921D01*
X865458Y722111D01*
X865806Y722292D01*
X866159Y722464D01*
X866516Y722627D01*
X866877Y722782D01*
X867242Y722928D01*
X867610Y723065D01*
X867981Y723192D01*
X868355Y723311D01*
X868733Y723420D01*
X869112Y723521D01*
X869494Y723611D01*
X869879Y723693D01*
X870265Y723764D01*
X870652Y723827D01*
X871041Y723880D01*
X871432Y723923D01*
X871823Y723957D01*
X872215Y723981D01*
X872607Y723995D01*
X873000Y724000D01*
X873393Y723995D01*
X873785Y723981D01*
X874177Y723957D01*
X874568Y723923D01*
X874959Y723880D01*
X875348Y723827D01*
X875735Y723764D01*
X876121Y723693D01*
X876506Y723611D01*
X876888Y723521D01*
X877267Y723420D01*
X877645Y723311D01*
X878019Y723192D01*
X878390Y723065D01*
X878758Y722928D01*
X879123Y722782D01*
X879484Y722627D01*
X879841Y722464D01*
X880194Y722292D01*
X880542Y722111D01*
X880886Y721921D01*
X881226Y721724D01*
X881560Y721518D01*
X881889Y721304D01*
X882213Y721081D01*
X882531Y720851D01*
X882844Y720614D01*
X883150Y720368D01*
X883451Y720115D01*
X883745Y719855D01*
X884033Y719588D01*
X884314Y719314D01*
X884588Y719033D01*
X884855Y718745D01*
X885115Y718451D01*
X885368Y718150D01*
X885614Y717844D01*
X885851Y717531D01*
X886081Y717213D01*
X886304Y716889D01*
X886518Y716560D01*
X886724Y716226D01*
X886921Y715886D01*
X887111Y715542D01*
X887292Y715194D01*
X887464Y714841D01*
X887627Y714484D01*
X887782Y714123D01*
X887928Y713758D01*
X888065Y713390D01*
X888192Y713019D01*
X888311Y712645D01*
X888420Y712267D01*
X888521Y711888D01*
X888611Y711506D01*
X888693Y711121D01*
X888764Y710735D01*
X888827Y710348D01*
X888880Y709959D01*
X888923Y709568D01*
X888957Y709177D01*
X888981Y708785D01*
X888995Y708393D01*
X889000Y708000D01*
X888995Y707607D01*
X888981Y707215D01*
X888957Y706823D01*
X888923Y706432D01*
X888880Y706041D01*
X888827Y705652D01*
X888764Y705265D01*
X888693Y704879D01*
X888611Y704494D01*
X888521Y704112D01*
X888420Y703733D01*
X888311Y703355D01*
X888192Y702981D01*
X888065Y702610D01*
X887928Y702242D01*
X887782Y701877D01*
X887627Y701516D01*
X887464Y701159D01*
X887292Y700806D01*
X887111Y700458D01*
X886921Y700114D01*
X886724Y699774D01*
X886518Y699440D01*
X886304Y699111D01*
X886081Y698787D01*
X885851Y698469D01*
X885614Y698156D01*
X885368Y697850D01*
X885115Y697549D01*
X884855Y697255D01*
X884588Y696967D01*
X884314Y696686D01*
X884033Y696412D01*
X883745Y696145D01*
X883451Y695885D01*
X883150Y695632D01*
X882844Y695386D01*
X882531Y695149D01*
X882213Y694919D01*
X881889Y694696D01*
X881560Y694482D01*
X881226Y694276D01*
X880886Y694079D01*
X880542Y693889D01*
X880194Y693708D01*
X879841Y693536D01*
X879484Y693373D01*
X879123Y693218D01*
X878758Y693072D01*
X878390Y692935D01*
X878019Y692808D01*
X877645Y692689D01*
X877267Y692580D01*
X876888Y692479D01*
X876506Y692389D01*
X876121Y692307D01*
X875735Y692236D01*
X875348Y692173D01*
X874959Y692120D01*
X874568Y692077D01*
X874177Y692043D01*
X873785Y692019D01*
X873393Y692005D01*
X873000Y692000D01*
X872607Y692005D01*
X872215Y692019D01*
X871823Y692043D01*
X871432Y692077D01*
X871041Y692120D01*
X870652Y692173D01*
X870265Y692236D01*
X869879Y692307D01*
X869494Y692389D01*
X869112Y692479D01*
X868733Y692580D01*
X868355Y692689D01*
X867981Y692808D01*
X867610Y692935D01*
X867242Y693072D01*
X866877Y693218D01*
X866516Y693373D01*
X866159Y693536D01*
X865806Y693708D01*
X865458Y693889D01*
X865114Y694079D01*
X864774Y694276D01*
X864440Y694482D01*
X864111Y694696D01*
X863787Y694919D01*
X863469Y695149D01*
X863156Y695386D01*
X862850Y695632D01*
X862549Y695885D01*
X862255Y696145D01*
X861967Y696412D01*
X861686Y696686D01*
X861412Y696967D01*
X861145Y697255D01*
X860885Y697549D01*
X860632Y697850D01*
X860386Y698156D01*
X860149Y698469D01*
X859919Y698787D01*
X859696Y699111D01*
X859482Y699440D01*
X859276Y699774D01*
X859079Y700114D01*
X858889Y700458D01*
X858708Y700806D01*
X858536Y701159D01*
X858373Y701516D01*
X858218Y701877D01*
X858072Y702242D01*
X857935Y702610D01*
X857808Y702981D01*
X857689Y703355D01*
X857580Y703733D01*
X857479Y704112D01*
X857389Y704494D01*
X857307Y704879D01*
X857236Y705265D01*
X857173Y705652D01*
X857120Y706041D01*
X857077Y706432D01*
X857043Y706823D01*
X857019Y707215D01*
X857005Y707607D01*
X857000Y708000D01*
X349000Y46000D02*
X349005Y46393D01*
X349019Y46785D01*
X349043Y47177D01*
X349077Y47568D01*
X349120Y47959D01*
X349173Y48348D01*
X349236Y48735D01*
X349307Y49121D01*
X349389Y49506D01*
X349479Y49888D01*
X349580Y50267D01*
X349689Y50645D01*
X349808Y51019D01*
X349935Y51390D01*
X350072Y51758D01*
X350218Y52123D01*
X350373Y52484D01*
X350536Y52841D01*
X350708Y53194D01*
X350889Y53542D01*
X351079Y53886D01*
X351276Y54226D01*
X351482Y54560D01*
X351696Y54889D01*
X351919Y55213D01*
X352149Y55531D01*
X352386Y55844D01*
X352632Y56150D01*
X352885Y56451D01*
X353145Y56745D01*
X353412Y57033D01*
X353686Y57314D01*
X353967Y57588D01*
X354255Y57855D01*
X354549Y58115D01*
X354850Y58368D01*
X355156Y58614D01*
X355469Y58851D01*
X355787Y59081D01*
X356111Y59304D01*
X356440Y59518D01*
X356774Y59724D01*
X357114Y59921D01*
X357458Y60111D01*
X357806Y60292D01*
X358159Y60464D01*
X358516Y60627D01*
X358877Y60782D01*
X359242Y60928D01*
X359610Y61065D01*
X359981Y61192D01*
X360355Y61311D01*
X360733Y61420D01*
X361112Y61521D01*
X361494Y61611D01*
X361879Y61693D01*
X362265Y61764D01*
X362652Y61827D01*
X363041Y61880D01*
X363432Y61923D01*
X363823Y61957D01*
X364215Y61981D01*
X364607Y61995D01*
X365000Y62000D01*
X365393Y61995D01*
X365785Y61981D01*
X366177Y61957D01*
X366568Y61923D01*
X366959Y61880D01*
X367348Y61827D01*
X367735Y61764D01*
X368121Y61693D01*
X368506Y61611D01*
X368888Y61521D01*
X369267Y61420D01*
X369645Y61311D01*
X370019Y61192D01*
X370390Y61065D01*
X370758Y60928D01*
X371123Y60782D01*
X371484Y60627D01*
X371841Y60464D01*
X372194Y60292D01*
X372542Y60111D01*
X372886Y59921D01*
X373226Y59724D01*
X373560Y59518D01*
X373889Y59304D01*
X374213Y59081D01*
X374531Y58851D01*
X374844Y58614D01*
X375150Y58368D01*
X375451Y58115D01*
X375745Y57855D01*
X376033Y57588D01*
X376314Y57314D01*
X376588Y57033D01*
X376855Y56745D01*
X377115Y56451D01*
X377368Y56150D01*
X377614Y55844D01*
X377851Y55531D01*
X378081Y55213D01*
X378304Y54889D01*
X378518Y54560D01*
X378724Y54226D01*
X378921Y53886D01*
X379111Y53542D01*
X379292Y53194D01*
X379464Y52841D01*
X379627Y52484D01*
X379782Y52123D01*
X379928Y51758D01*
X380065Y51390D01*
X380192Y51019D01*
X380311Y50645D01*
X380420Y50267D01*
X380521Y49888D01*
X380611Y49506D01*
X380693Y49121D01*
X380764Y48735D01*
X380827Y48348D01*
X380880Y47959D01*
X380923Y47568D01*
X380957Y47177D01*
X380981Y46785D01*
X380995Y46393D01*
X381000Y46000D01*
X380995Y45607D01*
X380981Y45215D01*
X380957Y44823D01*
X380923Y44432D01*
X380880Y44041D01*
X380827Y43652D01*
X380764Y43265D01*
X380693Y42879D01*
X380611Y42494D01*
X380521Y42112D01*
X380420Y41733D01*
X380311Y41355D01*
X380192Y40981D01*
X380065Y40610D01*
X379928Y40242D01*
X379782Y39877D01*
X379627Y39516D01*
X379464Y39159D01*
X379292Y38806D01*
X379111Y38458D01*
X378921Y38114D01*
X378724Y37774D01*
X378518Y37440D01*
X378304Y37111D01*
X378081Y36787D01*
X377851Y36469D01*
X377614Y36156D01*
X377368Y35850D01*
X377115Y35549D01*
X376855Y35255D01*
X376588Y34967D01*
X376314Y34686D01*
X376033Y34412D01*
X375745Y34145D01*
X375451Y33885D01*
X375150Y33632D01*
X374844Y33386D01*
X374531Y33149D01*
X374213Y32919D01*
X373889Y32696D01*
X373560Y32482D01*
X373226Y32276D01*
X372886Y32079D01*
X372542Y31889D01*
X372194Y31708D01*
X371841Y31536D01*
X371484Y31373D01*
X371123Y31218D01*
X370758Y31072D01*
X370390Y30935D01*
X370019Y30808D01*
X369645Y30689D01*
X369267Y30580D01*
X368888Y30479D01*
X368506Y30389D01*
X368121Y30307D01*
X367735Y30236D01*
X367348Y30173D01*
X366959Y30120D01*
X366568Y30077D01*
X366177Y30043D01*
X365785Y30019D01*
X365393Y30005D01*
X365000Y30000D01*
X364607Y30005D01*
X364215Y30019D01*
X363823Y30043D01*
X363432Y30077D01*
X363041Y30120D01*
X362652Y30173D01*
X362265Y30236D01*
X361879Y30307D01*
X361494Y30389D01*
X361112Y30479D01*
X360733Y30580D01*
X360355Y30689D01*
X359981Y30808D01*
X359610Y30935D01*
X359242Y31072D01*
X358877Y31218D01*
X358516Y31373D01*
X358159Y31536D01*
X357806Y31708D01*
X357458Y31889D01*
X357114Y32079D01*
X356774Y32276D01*
X356440Y32482D01*
X356111Y32696D01*
X355787Y32919D01*
X355469Y33149D01*
X355156Y33386D01*
X354850Y33632D01*
X354549Y33885D01*
X354255Y34145D01*
X353967Y34412D01*
X353686Y34686D01*
X353412Y34967D01*
X353145Y35255D01*
X352885Y35549D01*
X352632Y35850D01*
X352386Y36156D01*
X352149Y36469D01*
X351919Y36787D01*
X351696Y37111D01*
X351482Y37440D01*
X351276Y37774D01*
X351079Y38114D01*
X350889Y38458D01*
X350708Y38806D01*
X350536Y39159D01*
X350373Y39516D01*
X350218Y39877D01*
X350072Y40242D01*
X349935Y40610D01*
X349808Y40981D01*
X349689Y41355D01*
X349580Y41733D01*
X349479Y42112D01*
X349389Y42494D01*
X349307Y42879D01*
X349236Y43265D01*
X349173Y43652D01*
X349120Y44041D01*
X349077Y44432D01*
X349043Y44823D01*
X349019Y45215D01*
X349005Y45607D01*
X349000Y46000D01*
X574000Y904000D02*
X574005Y904393D01*
X574019Y904785D01*
X574043Y905177D01*
X574077Y905568D01*
X574120Y905959D01*
X574173Y906348D01*
X574236Y906735D01*
X574307Y907121D01*
X574389Y907506D01*
X574479Y907888D01*
X574580Y908267D01*
X574689Y908645D01*
X574808Y909019D01*
X574935Y909390D01*
X575072Y909758D01*
X575218Y910123D01*
X575373Y910484D01*
X575536Y910841D01*
X575708Y911194D01*
X575889Y911542D01*
X576079Y911886D01*
X576276Y912226D01*
X576482Y912560D01*
X576696Y912889D01*
X576919Y913213D01*
X577149Y913531D01*
X577386Y913844D01*
X577632Y914150D01*
X577885Y914451D01*
X578145Y914745D01*
X578412Y915033D01*
X578686Y915314D01*
X578967Y915588D01*
X579255Y915855D01*
X579549Y916115D01*
X579850Y916368D01*
X580156Y916614D01*
X580469Y916851D01*
X580787Y917081D01*
X581111Y917304D01*
X581440Y917518D01*
X581774Y917724D01*
X582114Y917921D01*
X582458Y918111D01*
X582806Y918292D01*
X583159Y918464D01*
X583516Y918627D01*
X583877Y918782D01*
X584242Y918928D01*
X584610Y919065D01*
X584981Y919192D01*
X585355Y919311D01*
X585733Y919420D01*
X586112Y919521D01*
X586494Y919611D01*
X586879Y919693D01*
X587265Y919764D01*
X587652Y919827D01*
X588041Y919880D01*
X588432Y919923D01*
X588823Y919957D01*
X589215Y919981D01*
X589607Y919995D01*
X590000Y920000D01*
X590393Y919995D01*
X590785Y919981D01*
X591177Y919957D01*
X591568Y919923D01*
X591959Y919880D01*
X592348Y919827D01*
X592735Y919764D01*
X593121Y919693D01*
X593506Y919611D01*
X593888Y919521D01*
X594267Y919420D01*
X594645Y919311D01*
X595019Y919192D01*
X595390Y919065D01*
X595758Y918928D01*
X596123Y918782D01*
X596484Y918627D01*
X596841Y918464D01*
X597194Y918292D01*
X597542Y918111D01*
X597886Y917921D01*
X598226Y917724D01*
X598560Y917518D01*
X598889Y917304D01*
X599213Y917081D01*
X599531Y916851D01*
X599844Y916614D01*
X600150Y916368D01*
X600451Y916115D01*
X600745Y915855D01*
X601033Y915588D01*
X601314Y915314D01*
X601588Y915033D01*
X601855Y914745D01*
X602115Y914451D01*
X602368Y914150D01*
X602614Y913844D01*
X602851Y913531D01*
X603081Y913213D01*
X603304Y912889D01*
X603518Y912560D01*
X603724Y912226D01*
X603921Y911886D01*
X604111Y911542D01*
X604292Y911194D01*
X604464Y910841D01*
X604627Y910484D01*
X604782Y910123D01*
X604928Y909758D01*
X605065Y909390D01*
X605192Y909019D01*
X605311Y908645D01*
X605420Y908267D01*
X605521Y907888D01*
X605611Y907506D01*
X605693Y907121D01*
X605764Y906735D01*
X605827Y906348D01*
X605880Y905959D01*
X605923Y905568D01*
X605957Y905177D01*
X605981Y904785D01*
X605995Y904393D01*
X606000Y904000D01*
X605995Y903607D01*
X605981Y903215D01*
X605957Y902823D01*
X605923Y902432D01*
X605880Y902041D01*
X605827Y901652D01*
X605764Y901265D01*
X605693Y900879D01*
X605611Y900494D01*
X605521Y900112D01*
X605420Y899733D01*
X605311Y899355D01*
X605192Y898981D01*
X605065Y898610D01*
X604928Y898242D01*
X604782Y897877D01*
X604627Y897516D01*
X604464Y897159D01*
X604292Y896806D01*
X604111Y896458D01*
X603921Y896114D01*
X603724Y895774D01*
X603518Y895440D01*
X603304Y895111D01*
X603081Y894787D01*
X602851Y894469D01*
X602614Y894156D01*
X602368Y893850D01*
X602115Y893549D01*
X601855Y893255D01*
X601588Y892967D01*
X601314Y892686D01*
X601033Y892412D01*
X600745Y892145D01*
X600451Y891885D01*
X600150Y891632D01*
X599844Y891386D01*
X599531Y891149D01*
X599213Y890919D01*
X598889Y890696D01*
X598560Y890482D01*
X598226Y890276D01*
X597886Y890079D01*
X597542Y889889D01*
X597194Y889708D01*
X596841Y889536D01*
X596484Y889373D01*
X596123Y889218D01*
X595758Y889072D01*
X595390Y888935D01*
X595019Y888808D01*
X594645Y888689D01*
X594267Y888580D01*
X593888Y888479D01*
X593506Y888389D01*
X593121Y888307D01*
X592735Y888236D01*
X592348Y888173D01*
X591959Y888120D01*
X591568Y888077D01*
X591177Y888043D01*
X590785Y888019D01*
X590393Y888005D01*
X590000Y888000D01*
X589607Y888005D01*
X589215Y888019D01*
X588823Y888043D01*
X588432Y888077D01*
X588041Y888120D01*
X587652Y888173D01*
X587265Y888236D01*
X586879Y888307D01*
X586494Y888389D01*
X586112Y888479D01*
X585733Y888580D01*
X585355Y888689D01*
X584981Y888808D01*
X584610Y888935D01*
X584242Y889072D01*
X583877Y889218D01*
X583516Y889373D01*
X583159Y889536D01*
X582806Y889708D01*
X582458Y889889D01*
X582114Y890079D01*
X581774Y890276D01*
X581440Y890482D01*
X581111Y890696D01*
X580787Y890919D01*
X580469Y891149D01*
X580156Y891386D01*
X579850Y891632D01*
X579549Y891885D01*
X579255Y892145D01*
X578967Y892412D01*
X578686Y892686D01*
X578412Y892967D01*
X578145Y893255D01*
X577885Y893549D01*
X577632Y893850D01*
X577386Y894156D01*
X577149Y894469D01*
X576919Y894787D01*
X576696Y895111D01*
X576482Y895440D01*
X576276Y895774D01*
X576079Y896114D01*
X575889Y896458D01*
X575708Y896806D01*
X575536Y897159D01*
X575373Y897516D01*
X575218Y897877D01*
X575072Y898242D01*
X574935Y898610D01*
X574808Y898981D01*
X574689Y899355D01*
X574580Y899733D01*
X574479Y900112D01*
X574389Y900494D01*
X574307Y900879D01*
X574236Y901265D01*
X574173Y901652D01*
X574120Y902041D01*
X574077Y902432D01*
X574043Y902823D01*
X574019Y903215D01*
X574005Y903607D01*
X574000Y904000D01*
D11*
X0Y0D02*
X1050000Y0D01*
X1050000Y950000D01*
X0Y950000D01*
X0Y0D01*
X69500Y440705D02*
X69423Y440120D01*
X69270Y439550D01*
X69045Y439005D01*
X68750Y438495D01*
X68391Y438027D01*
X67973Y437609D01*
X67505Y437250D01*
X66995Y436955D01*
X66450Y436730D01*
X65880Y436577D01*
X65295Y436500D01*
X64705Y436500D01*
X64120Y436577D01*
X63550Y436730D01*
X63005Y436955D01*
X62495Y437250D01*
X62027Y437609D01*
X61609Y438027D01*
X61250Y438495D01*
X60955Y439005D01*
X60730Y439550D01*
X60577Y440120D01*
X60500Y440705D01*
X60500Y441295D01*
X60577Y441880D01*
X60730Y442450D01*
X60955Y442995D01*
X61250Y443505D01*
X61609Y443973D01*
X62027Y444391D01*
X62495Y444750D01*
X63005Y445045D01*
X63550Y445270D01*
X64120Y445423D01*
X64705Y445500D01*
X65295Y445500D01*
X65880Y445423D01*
X66450Y445270D01*
X66995Y445045D01*
X67505Y444750D01*
X67973Y444391D01*
X68391Y443973D01*
X68750Y443505D01*
X69045Y442995D01*
X69270Y442450D01*
X69423Y441880D01*
X69500Y441295D01*
X69500Y440705D01*
X69500Y396705D02*
X69423Y396120D01*
X69270Y395550D01*
X69045Y395005D01*
X68750Y394495D01*
X68391Y394027D01*
X67973Y393609D01*
X67505Y393250D01*
X66995Y392955D01*
X66450Y392730D01*
X65880Y392577D01*
X65295Y392500D01*
X64705Y392500D01*
X64120Y392577D01*
X63550Y392730D01*
X63005Y392955D01*
X62495Y393250D01*
X62027Y393609D01*
X61609Y394027D01*
X61250Y394495D01*
X60955Y395005D01*
X60730Y395550D01*
X60577Y396120D01*
X60500Y396705D01*
X60500Y397295D01*
X60577Y397880D01*
X60730Y398450D01*
X60955Y398995D01*
X61250Y399505D01*
X61609Y399973D01*
X62027Y400391D01*
X62495Y400750D01*
X63005Y401045D01*
X63550Y401270D01*
X64120Y401423D01*
X64705Y401500D01*
X65295Y401500D01*
X65880Y401423D01*
X66450Y401270D01*
X66995Y401045D01*
X67505Y400750D01*
X67973Y400391D01*
X68391Y399973D01*
X68750Y399505D01*
X69045Y398995D01*
X69270Y398450D01*
X69423Y397880D01*
X69500Y397295D01*
X69500Y396705D01*
X63500Y811607D02*
X63423Y810825D01*
X63270Y810054D01*
X63041Y809302D01*
X62741Y808575D01*
X62370Y807882D01*
X61933Y807229D01*
X61435Y806621D01*
X60879Y806065D01*
X60271Y805567D01*
X59618Y805130D01*
X58925Y804759D01*
X58198Y804459D01*
X57446Y804230D01*
X56675Y804077D01*
X55893Y804000D01*
X55107Y804000D01*
X54325Y804077D01*
X53554Y804230D01*
X52802Y804459D01*
X52075Y804759D01*
X51382Y805130D01*
X50729Y805567D01*
X50121Y806065D01*
X49565Y806621D01*
X49067Y807229D01*
X48630Y807882D01*
X48259Y808575D01*
X47959Y809302D01*
X47730Y810054D01*
X47577Y810825D01*
X47500Y811607D01*
X47500Y812393D01*
X47577Y813175D01*
X47730Y813946D01*
X47959Y814698D01*
X48259Y815425D01*
X48630Y816118D01*
X49067Y816771D01*
X49565Y817379D01*
X50121Y817935D01*
X50729Y818433D01*
X51382Y818870D01*
X52075Y819241D01*
X52802Y819541D01*
X53554Y819770D01*
X54325Y819923D01*
X55107Y820000D01*
X55893Y820000D01*
X56675Y819923D01*
X57446Y819770D01*
X58198Y819541D01*
X58925Y819241D01*
X59618Y818870D01*
X60271Y818433D01*
X60879Y817935D01*
X61435Y817379D01*
X61933Y816771D01*
X62370Y816118D01*
X62741Y815425D01*
X63041Y814698D01*
X63270Y813946D01*
X63423Y813175D01*
X63500Y812393D01*
X63500Y811607D01*
X109500Y811607D02*
X109432Y810824D01*
X109295Y810050D01*
X109092Y809291D01*
X108823Y808553D01*
X108491Y807840D01*
X108098Y807160D01*
X107647Y806516D01*
X107142Y805914D01*
X106586Y805358D01*
X105984Y804853D01*
X105340Y804402D01*
X104660Y804009D01*
X103947Y803677D01*
X103209Y803408D01*
X102450Y803205D01*
X101676Y803069D01*
X100893Y803000D01*
X100107Y803000D01*
X99324Y803069D01*
X98550Y803205D01*
X97791Y803408D01*
X97053Y803677D01*
X96340Y804009D01*
X95660Y804402D01*
X95016Y804853D01*
X94414Y805358D01*
X93858Y805914D01*
X93353Y806516D01*
X92902Y807160D01*
X92509Y807840D01*
X92177Y808553D01*
X91908Y809291D01*
X91705Y810050D01*
X91569Y810824D01*
X91500Y811607D01*
X91500Y812393D01*
X91569Y813176D01*
X91705Y813950D01*
X91908Y814709D01*
X92177Y815447D01*
X92509Y816160D01*
X92902Y816840D01*
X93353Y817484D01*
X93858Y818086D01*
X94414Y818642D01*
X95016Y819147D01*
X95660Y819598D01*
X96340Y819991D01*
X97053Y820323D01*
X97791Y820592D01*
X98550Y820795D01*
X99324Y820932D01*
X100107Y821000D01*
X100893Y821000D01*
X101676Y820932D01*
X102450Y820795D01*
X103209Y820592D01*
X103947Y820323D01*
X104660Y819991D01*
X105340Y819598D01*
X105984Y819147D01*
X106586Y818642D01*
X107142Y818086D01*
X107647Y817484D01*
X108098Y816840D01*
X108491Y816160D01*
X108823Y815447D01*
X109092Y814709D01*
X109295Y813950D01*
X109432Y813176D01*
X109500Y812393D01*
X109500Y811607D01*
X189000Y707476D02*
X188932Y706431D01*
X188795Y705392D01*
X188590Y704365D01*
X188319Y703353D01*
X187983Y702361D01*
X187582Y701393D01*
X187118Y700454D01*
X186595Y699546D01*
X186013Y698675D01*
X185375Y697844D01*
X184684Y697057D01*
X183943Y696316D01*
X183156Y695625D01*
X182325Y694988D01*
X181454Y694406D01*
X180546Y693882D01*
X179607Y693418D01*
X178639Y693017D01*
X177647Y692681D01*
X176635Y692410D01*
X175608Y692205D01*
X174569Y692069D01*
X173524Y692000D01*
X172476Y692000D01*
X171431Y692069D01*
X170392Y692205D01*
X169365Y692410D01*
X168353Y692681D01*
X167361Y693017D01*
X166393Y693418D01*
X165454Y693882D01*
X164546Y694406D01*
X163675Y694988D01*
X162844Y695625D01*
X162057Y696316D01*
X161316Y697057D01*
X160625Y697844D01*
X159988Y698675D01*
X159406Y699546D01*
X158882Y700454D01*
X158418Y701393D01*
X158017Y702361D01*
X157681Y703353D01*
X157410Y704365D01*
X157205Y705392D01*
X157069Y706431D01*
X157000Y707476D01*
X157000Y708524D01*
X157069Y709569D01*
X157205Y710608D01*
X157410Y711635D01*
X157681Y712647D01*
X158017Y713639D01*
X158418Y714607D01*
X158882Y715546D01*
X159406Y716454D01*
X159988Y717325D01*
X160625Y718156D01*
X161316Y718943D01*
X162057Y719684D01*
X162844Y720375D01*
X163675Y721013D01*
X164546Y721595D01*
X165454Y722118D01*
X166393Y722582D01*
X167361Y722983D01*
X168353Y723319D01*
X169365Y723590D01*
X170392Y723795D01*
X171431Y723932D01*
X172476Y724000D01*
X173524Y724000D01*
X174569Y723932D01*
X175608Y723795D01*
X176635Y723590D01*
X177647Y723319D01*
X178639Y722983D01*
X179607Y722582D01*
X180546Y722118D01*
X181454Y721595D01*
X182325Y721013D01*
X183156Y720375D01*
X183943Y719684D01*
X184684Y718943D01*
X185375Y718156D01*
X186013Y717325D01*
X186595Y716454D01*
X187118Y715546D01*
X187582Y714607D01*
X187983Y713639D01*
X188319Y712647D01*
X188590Y711635D01*
X188795Y710608D01*
X188932Y709569D01*
X189000Y708524D01*
X189000Y707476D01*
X189000Y257476D02*
X188932Y256431D01*
X188795Y255392D01*
X188590Y254365D01*
X188319Y253353D01*
X187983Y252361D01*
X187582Y251393D01*
X187118Y250454D01*
X186595Y249546D01*
X186013Y248675D01*
X185375Y247844D01*
X184684Y247057D01*
X183943Y246316D01*
X183156Y245625D01*
X182325Y244988D01*
X181454Y244406D01*
X180546Y243882D01*
X179607Y243418D01*
X178639Y243017D01*
X177647Y242681D01*
X176635Y242410D01*
X175608Y242205D01*
X174569Y242069D01*
X173524Y242000D01*
X172476Y242000D01*
X171431Y242069D01*
X170392Y242205D01*
X169365Y242410D01*
X168353Y242681D01*
X167361Y243017D01*
X166393Y243418D01*
X165454Y243882D01*
X164546Y244406D01*
X163675Y244988D01*
X162844Y245625D01*
X162057Y246316D01*
X161316Y247057D01*
X160625Y247844D01*
X159988Y248675D01*
X159406Y249546D01*
X158882Y250454D01*
X158418Y251393D01*
X158017Y252361D01*
X157681Y253353D01*
X157410Y254365D01*
X157205Y255392D01*
X157069Y256431D01*
X157000Y257476D01*
X157000Y258524D01*
X157069Y259569D01*
X157205Y260608D01*
X157410Y261635D01*
X157681Y262647D01*
X158017Y263639D01*
X158418Y264607D01*
X158882Y265546D01*
X159406Y266454D01*
X159988Y267325D01*
X160625Y268156D01*
X161316Y268943D01*
X162057Y269684D01*
X162844Y270375D01*
X163675Y271013D01*
X164546Y271595D01*
X165454Y272118D01*
X166393Y272582D01*
X167361Y272983D01*
X168353Y273319D01*
X169365Y273590D01*
X170392Y273795D01*
X171431Y273932D01*
X172476Y274000D01*
X173524Y274000D01*
X174569Y273932D01*
X175608Y273795D01*
X176635Y273590D01*
X177647Y273319D01*
X178639Y272983D01*
X179607Y272582D01*
X180546Y272118D01*
X181454Y271595D01*
X182325Y271013D01*
X183156Y270375D01*
X183943Y269684D01*
X184684Y268943D01*
X185375Y268156D01*
X186013Y267325D01*
X186595Y266454D01*
X187118Y265546D01*
X187582Y264607D01*
X187983Y263639D01*
X188319Y262647D01*
X188590Y261635D01*
X188795Y260608D01*
X188932Y259569D01*
X189000Y258524D01*
X189000Y257476D01*
X889000Y257476D02*
X888932Y256431D01*
X888795Y255392D01*
X888590Y254365D01*
X888319Y253353D01*
X887983Y252361D01*
X887582Y251393D01*
X887118Y250454D01*
X886595Y249546D01*
X886013Y248675D01*
X885375Y247844D01*
X884684Y247057D01*
X883943Y246316D01*
X883156Y245625D01*
X882325Y244988D01*
X881454Y244406D01*
X880546Y243882D01*
X879607Y243418D01*
X878639Y243017D01*
X877647Y242681D01*
X876635Y242410D01*
X875608Y242205D01*
X874569Y242069D01*
X873524Y242000D01*
X872476Y242000D01*
X871431Y242069D01*
X870392Y242205D01*
X869365Y242410D01*
X868353Y242681D01*
X867361Y243017D01*
X866393Y243418D01*
X865454Y243882D01*
X864546Y244406D01*
X863675Y244988D01*
X862844Y245625D01*
X862057Y246316D01*
X861316Y247057D01*
X860625Y247844D01*
X859988Y248675D01*
X859406Y249546D01*
X858882Y250454D01*
X858418Y251393D01*
X858017Y252361D01*
X857681Y253353D01*
X857410Y254365D01*
X857205Y255392D01*
X857069Y256431D01*
X857000Y257476D01*
X857000Y258524D01*
X857069Y259569D01*
X857205Y260608D01*
X857410Y261635D01*
X857681Y262647D01*
X858017Y263639D01*
X858418Y264607D01*
X858882Y265546D01*
X859406Y266454D01*
X859988Y267325D01*
X860625Y268156D01*
X861316Y268943D01*
X862057Y269684D01*
X862844Y270375D01*
X863675Y271013D01*
X864546Y271595D01*
X865454Y272118D01*
X866393Y272582D01*
X867361Y272983D01*
X868353Y273319D01*
X869365Y273590D01*
X870392Y273795D01*
X871431Y273932D01*
X872476Y274000D01*
X873524Y274000D01*
X874569Y273932D01*
X875608Y273795D01*
X876635Y273590D01*
X877647Y273319D01*
X878639Y272983D01*
X879607Y272582D01*
X880546Y272118D01*
X881454Y271595D01*
X882325Y271013D01*
X883156Y270375D01*
X883943Y269684D01*
X884684Y268943D01*
X885375Y268156D01*
X886013Y267325D01*
X886595Y266454D01*
X887118Y265546D01*
X887582Y264607D01*
X887983Y263639D01*
X888319Y262647D01*
X888590Y261635D01*
X888795Y260608D01*
X888932Y259569D01*
X889000Y258524D01*
X889000Y257476D01*
X889000Y707476D02*
X888932Y706431D01*
X888795Y705392D01*
X888590Y704365D01*
X888319Y703353D01*
X887983Y702361D01*
X887582Y701393D01*
X887118Y700454D01*
X886595Y699546D01*
X886013Y698675D01*
X885375Y697844D01*
X884684Y697057D01*
X883943Y696316D01*
X883156Y695625D01*
X882325Y694988D01*
X881454Y694406D01*
X880546Y693882D01*
X879607Y693418D01*
X878639Y693017D01*
X877647Y692681D01*
X876635Y692410D01*
X875608Y692205D01*
X874569Y692069D01*
X873524Y692000D01*
X872476Y692000D01*
X871431Y692069D01*
X870392Y692205D01*
X869365Y692410D01*
X868353Y692681D01*
X867361Y693017D01*
X866393Y693418D01*
X865454Y693882D01*
X864546Y694406D01*
X863675Y694988D01*
X862844Y695625D01*
X862057Y696316D01*
X861316Y697057D01*
X860625Y697844D01*
X859988Y698675D01*
X859406Y699546D01*
X858882Y700454D01*
X858418Y701393D01*
X858017Y702361D01*
X857681Y703353D01*
X857410Y704365D01*
X857205Y705392D01*
X857069Y706431D01*
X857000Y707476D01*
X857000Y708524D01*
X857069Y709569D01*
X857205Y710608D01*
X857410Y711635D01*
X857681Y712647D01*
X858017Y713639D01*
X858418Y714607D01*
X858882Y715546D01*
X859406Y716454D01*
X859988Y717325D01*
X860625Y718156D01*
X861316Y718943D01*
X862057Y719684D01*
X862844Y720375D01*
X863675Y721013D01*
X864546Y721595D01*
X865454Y722118D01*
X866393Y722582D01*
X867361Y722983D01*
X868353Y723319D01*
X869365Y723590D01*
X870392Y723795D01*
X871431Y723932D01*
X872476Y724000D01*
X873524Y724000D01*
X874569Y723932D01*
X875608Y723795D01*
X876635Y723590D01*
X877647Y723319D01*
X878639Y722983D01*
X879607Y722582D01*
X880546Y722118D01*
X881454Y721595D01*
X882325Y721013D01*
X883156Y720375D01*
X883943Y719684D01*
X884684Y718943D01*
X885375Y718156D01*
X886013Y717325D01*
X886595Y716454D01*
X887118Y715546D01*
X887582Y714607D01*
X887983Y713639D01*
X888319Y712647D01*
X888590Y711635D01*
X888795Y710608D01*
X888932Y709569D01*
X889000Y708524D01*
X889000Y707476D01*
X381000Y45476D02*
X380932Y44431D01*
X380795Y43392D01*
X380590Y42365D01*
X380319Y41353D01*
X379983Y40361D01*
X379582Y39393D01*
X379118Y38454D01*
X378595Y37546D01*
X378013Y36675D01*
X377375Y35844D01*
X376684Y35057D01*
X375943Y34316D01*
X375156Y33625D01*
X374325Y32988D01*
X373454Y32406D01*
X372546Y31882D01*
X371607Y31418D01*
X370639Y31017D01*
X369647Y30681D01*
X368635Y30410D01*
X367608Y30205D01*
X366569Y30069D01*
X365524Y30000D01*
X364476Y30000D01*
X363431Y30069D01*
X362392Y30205D01*
X361365Y30410D01*
X360353Y30681D01*
X359361Y31017D01*
X358393Y31418D01*
X357454Y31882D01*
X356546Y32406D01*
X355675Y32988D01*
X354844Y33625D01*
X354057Y34316D01*
X353316Y35057D01*
X352625Y35844D01*
X351988Y36675D01*
X351406Y37546D01*
X350882Y38454D01*
X350418Y39393D01*
X350017Y40361D01*
X349681Y41353D01*
X349410Y42365D01*
X349205Y43392D01*
X349069Y44431D01*
X349000Y45476D01*
X349000Y46524D01*
X349069Y47569D01*
X349205Y48608D01*
X349410Y49635D01*
X349681Y50647D01*
X350017Y51639D01*
X350418Y52607D01*
X350882Y53546D01*
X351406Y54454D01*
X351988Y55325D01*
X352625Y56156D01*
X353316Y56943D01*
X354057Y57684D01*
X354844Y58375D01*
X355675Y59013D01*
X356546Y59595D01*
X357454Y60118D01*
X358393Y60582D01*
X359361Y60983D01*
X360353Y61319D01*
X361365Y61590D01*
X362392Y61795D01*
X363431Y61932D01*
X364476Y62000D01*
X365524Y62000D01*
X366569Y61932D01*
X367608Y61795D01*
X368635Y61590D01*
X369647Y61319D01*
X370639Y60983D01*
X371607Y60582D01*
X372546Y60118D01*
X373454Y59595D01*
X374325Y59013D01*
X375156Y58375D01*
X375943Y57684D01*
X376684Y56943D01*
X377375Y56156D01*
X378013Y55325D01*
X378595Y54454D01*
X379118Y53546D01*
X379582Y52607D01*
X379983Y51639D01*
X380319Y50647D01*
X380590Y49635D01*
X380795Y48608D01*
X380932Y47569D01*
X381000Y46524D01*
X381000Y45476D01*
X606000Y903476D02*
X605932Y902431D01*
X605795Y901392D01*
X605590Y900365D01*
X605319Y899353D01*
X604983Y898361D01*
X604582Y897393D01*
X604118Y896454D01*
X603595Y895546D01*
X603013Y894675D01*
X602375Y893844D01*
X601684Y893057D01*
X600943Y892316D01*
X600156Y891625D01*
X599325Y890988D01*
X598454Y890406D01*
X597546Y889882D01*
X596607Y889418D01*
X595639Y889017D01*
X594647Y888681D01*
X593635Y888410D01*
X592608Y888205D01*
X591569Y888069D01*
X590524Y888000D01*
X589476Y888000D01*
X588431Y888069D01*
X587392Y888205D01*
X586365Y888410D01*
X585353Y888681D01*
X584361Y889017D01*
X583393Y889418D01*
X582454Y889882D01*
X581546Y890406D01*
X580675Y890988D01*
X579844Y891625D01*
X579057Y892316D01*
X578316Y893057D01*
X577625Y893844D01*
X576988Y894675D01*
X576406Y895546D01*
X575882Y896454D01*
X575418Y897393D01*
X575017Y898361D01*
X574681Y899353D01*
X574410Y900365D01*
X574205Y901392D01*
X574069Y902431D01*
X574000Y903476D01*
X574000Y904524D01*
X574069Y905569D01*
X574205Y906608D01*
X574410Y907635D01*
X574681Y908647D01*
X575017Y909639D01*
X575418Y910607D01*
X575882Y911546D01*
X576406Y912454D01*
X576988Y913325D01*
X577625Y914156D01*
X578316Y914943D01*
X579057Y915684D01*
X579844Y916375D01*
X580675Y917013D01*
X581546Y917595D01*
X582454Y918118D01*
X583393Y918582D01*
X584361Y918983D01*
X585353Y919319D01*
X586365Y919590D01*
X587392Y919795D01*
X588431Y919932D01*
X589476Y920000D01*
X590524Y920000D01*
X591569Y919932D01*
X592608Y919795D01*
X593635Y919590D01*
X594647Y919319D01*
X595639Y918983D01*
X596607Y918582D01*
X597546Y918118D01*
X598454Y917595D01*
X599325Y917013D01*
X600156Y916375D01*
X600943Y915684D01*
X601684Y914943D01*
X602375Y914156D01*
X603013Y913325D01*
X603595Y912454D01*
X604118Y911546D01*
X604582Y910607D01*
X604983Y909639D01*
X605319Y908647D01*
X605590Y907635D01*
X605795Y906608D01*
X605932Y905569D01*
X606000Y904524D01*
X606000Y903476D01*
M02*
